<?xml version="1.0" standalone="no"?><!DOCTYPE svg PUBLIC "-//W3C//DTD SVG 1.1//EN" "http://www.w3.org/Graphics/SVG/1.1/DTD/svg11.dtd"><svg t="1554193019848" class="icon" style="" viewBox="0 0 1024 1024" version="1.1" xmlns="http://www.w3.org/2000/svg" p-id="84036" xmlns:xlink="http://www.w3.org/1999/xlink" width="200" height="200"><defs><style type="text/css"></style></defs><path d="M402.7 887H122.6c-27.5 0-49.9-22-49.9-49.1V167.2c0-27.1 22.4-49.1 49.9-49.1h525.5c27.5 0 49.9 22 49.9 49.1v201.5c0 10-8.1 18.1-18.1 18.1s-18.1-8.1-18.1-18.1V167.2c0-7-6.3-12.9-13.7-12.9H122.6c-7.5 0-13.7 5.9-13.7 12.9v670.7c0 7 6.3 12.9 13.7 12.9h280.1c10 0 18.1 8.1 18.1 18.1 0 10-8.1 18.1-18.1 18.1z" fill="#ffffff" p-id="84037"></path><path d="M536.6 367.2h-277c-13.3 0-24.1-10.8-24.1-24.1s10.8-24.1 24.1-24.1h277c13.3 0 24.1 10.8 24.1 24.1s-10.8 24.1-24.1 24.1zM416.7 516H259.6c-13.3 0-24.1-10.8-24.1-24.1s10.8-24.1 24.1-24.1h157.1c13.3 0 24.1 10.8 24.1 24.1S430 516 416.7 516zM906.5 900.4h-380c-26.6 0-48.3-21.6-48.3-48.3V611.4c0-26.6 21.6-48.3 48.3-48.3h380c26.6 0 48.3 21.6 48.3 48.3v240.7c-0.1 26.6-21.7 48.3-48.3 48.3zM526.4 587.3c-13.3 0-24.1 10.8-24.1 24.1v240.7c0 13.3 10.8 24.1 24.1 24.1h380c13.3 0 24.1-10.8 24.1-24.1V611.4c0-13.3-10.8-24.1-24.1-24.1h-380zM813.2 540.4c-6.7 0-12.1-5.4-12.1-12.1v-40.1c0-7.3-5.9-13.2-13.2-13.2H645c-7.3 0-13.2 5.9-13.2 13.2v40.1c0 6.7-5.4 12.1-12.1 12.1s-12.1-5.4-12.1-12.1v-40.1c0-20.6 16.8-37.4 37.4-37.4h143c20.6 0 37.4 16.8 37.4 37.4v40.1c-0.1 6.7-5.5 12.1-12.2 12.1z" fill="#ffffff" p-id="84038"></path><path d="M937.3 709.3H498.6c-10 0-18.1-8.1-18.1-18.1 0-10 8.1-18.1 18.1-18.1h438.8c10 0 18.1 8.1 18.1 18.1-0.1 10-8.2 18.1-18.2 18.1z" fill="#ffffff" p-id="84039"></path><path d="M768.4 803.4H667.5c-10 0-18.1-8.1-18.1-18.1 0-10 8.1-18.1 18.1-18.1h100.9c10 0 18.1 8.1 18.1 18.1 0 10-8.1 18.1-18.1 18.1z" fill="#ffffff" p-id="84040"></path></svg>