<?xml version="1.0" standalone="no"?><!DOCTYPE svg PUBLIC "-//W3C//DTD SVG 1.1//EN" "http://www.w3.org/Graphics/SVG/1.1/DTD/svg11.dtd"><svg t="1554193757245" class="icon" style="" viewBox="0 0 1024 1024" version="1.1" xmlns="http://www.w3.org/2000/svg" p-id="99973" xmlns:xlink="http://www.w3.org/1999/xlink" width="200" height="200"><defs><style type="text/css"></style></defs><path d="M958.7 246.8v156.6c0 9.4-2.1 16-6.3 20-4.1 3.7-10.8 6.8-19.8 8.3-11.6 1.6-22.7 8.1-33 19.2-10.4 11.1-15.5 26.5-15.5 46.1 0 13 2.2 23.9 6.3 32.7 4.1 9.2 9.2 16.3 14.9 21.9 5.8 5.6 11.6 9.7 17.2 12.4 5.9 2.5 10.4 3.8 13.7 3.8 9.2 1.7 15.2 5.1 17.9 9.7 2.7 4.5 4.3 11.7 4.3 21.2v184.8c0 23.9-4.7 48.1-13.7 56.7-9 8.7-24.9 12.5-47.2 11.6-6.7 0-11.9 0.4-29.7 0.6-17.7 0.5-35.6 0.6-53.8 0.6h-9.3V170.8h92.9c25.9 0 42.2 4.8 49.7 14.6 7.6 10.1 11.4 38.3 11.4 61.4z m-868.2-76c-6.5 0-12 2.6-15.7 8.4-3.6 5.6-5.6 18.5-6.2 25.5-0.4 7 1.2 18.6 4.6 25.4 3.2 6.8 8.7 11.6 16.3 14.1 7.4 2.6 13.5 6.9 18.1 12.9 4.6 5.9 7.2 33.2 8.1 40.4 0.6 7.4-1.1 14.4-5.1 21.3-4.3 6.9-11.3 12-21.3 15.3-7.3 3.3-13.5 8.5-17.9 15.5-4.5 7-7.3 13.9-7.4 21.2-0.5 7.4 1.2 14.2 4.8 20.8 3.6 6.3 9.7 10.9 18.1 13.4 9.8 2.5 17.5 7.6 22.9 14.5 5.3 7.4 8.1 14.8 8.7 22.7 0.4 7.6-1.8 15.3-6.2 23.1-4.8 7.6-11.4 13.1-20.7 16.6-8.2 3.6-14.5 8.7-18.6 15.5-4.2 7-6.4 14.2-6.9 21.9-0.5 7.7 1.1 15.1 4.3 21.9 3.2 6.9 8.2 12.2 14.8 15.5 20.7 10.4 31.5 22.8 32.1 37.3 1 14.5-6.9 26.1-23.4 34.8-7.4 3.3-13.5 8.7-17.9 16-4.7 7.2-7.2 15-7.6 23.1-0.4 8.1 1.2 15.5 4.6 21.8 3.2 6.8 8.7 11 16.1 13.7 10 2.6 17.6 7.3 23.1 14.1 5.2 6.7 7.9 14 8.4 21.6 0.6 7.9-1.5 15.5-6.2 23.1-4.5 7.8-11.7 14.2-21.6 19.4-6.8 3.3-11.5 8.8-14.4 16-3 7.4-4 14.4-3.2 21.3 1 6.9 3.1 20.9 7 26.3 3.6 5.8 8.8 8.4 15.6 8.4h648.4V170.8H90.5zM285.2 450c27-26.7 55.1-61.8 83.3-104.8l2.7-4.1 30.9 17.7-3.1 4.7c-0.5 0.7-0.9 1.4-1.4 2.1h0.6c70.2-1.8 130.5-5.8 179.5-12.2l4.9-0.6 6.7 34.1-5.7 0.6c-23.5 2.4-48.3 4.6-73.7 6.5v32.5H618v33.2H509.8v31.1h89.8v33H390.3v-33.2h84v-31.1h-97.5v-33.2h97.5v-30.2c-22.9 1.3-46.9 2.4-71.3 3.1l-4.5 0.2-0.8-4.5c-1.3-7.3-2.8-15-4.5-23-8.1 11.9-16.2 23.1-23.9 33.6v130.1h-35.2v-86.3c-8.5 9.6-16.8 18.2-24.7 25.9l-4.1 3.9-3.7-4.3c-4.2-5.3-9.7-11.1-16.3-17.2l-4-3.7 3.9-3.9z m335.5 133.5c-2.4 17.3-5.1 32.9-7.9 46.1-4.6 22.9-20.3 35.1-45.3 35.1h-38.6c-26.9 0-41.2-14.7-41.2-42.4v-47.4H407v1c0 28.5-7.3 50.3-21.9 64.7l-0.1 0.1c-16 14.6-41.3 26.5-75.6 35.5l-3.6 1-2.1-3.1c-4.7-7.3-10.3-14.9-16.5-22.6l-5.1-6.4 7.9-2c32.6-8.1 54.8-16.9 65.7-26l0.1-0.1c9.8-7.7 14.8-22.1 14.8-42.9v-31.6h153.6v74.1c0 12.4 5.9 14.2 12.2 14.2h22c15.2 0 18.6-7.4 19.9-13 2.3-10.7 4.5-26 6.5-45.5l0.8-7.3 6.7 3.1c6.9 3.2 15.2 6.6 24.9 10l4 1.5-0.5 3.9z m0 0" p-id="99974" fill="#ffffff"></path></svg>