<?xml version="1.0" standalone="no"?><!DOCTYPE svg PUBLIC "-//W3C//DTD SVG 1.1//EN" "http://www.w3.org/Graphics/SVG/1.1/DTD/svg11.dtd"><svg t="1554193988034" class="icon" style="" viewBox="0 0 1024 1024" version="1.1" xmlns="http://www.w3.org/2000/svg" p-id="104838" xmlns:xlink="http://www.w3.org/1999/xlink" width="200" height="200"><defs><style type="text/css"></style></defs><path d="M512.044 108.11c-119.988 0-239.977 0.013-359.965-0.011-23.062-0.005-44.006 20.901-44.001 44.305 0.052 239.601 0.02 479.202 0.052 718.802 0.003 20.85 14.025 38.722 34.759 43.486 3.301 0.758 6.767 1.117 10.157 1.119 103.71 0.057 207.419 0.101 311.129-0.02 13.353-0.016 22.825 5.935 25.794 20.771 1.853 9.259-8.068 22.591-18.299 24.215a90.034 90.034 0 0 1-14.008 1.127c-101.148 0.062-202.296 0.21-303.443-0.063-26.435-0.072-49.792-9.094-67.874-28.962-13.622-14.967-22.237-32.587-23.159-53.163a1118.045 1118.045 0 0 1-1.125-49.71c-0.07-224.603-0.104-449.206 0.038-673.809 0.015-23.068 6.37-44.15 21.965-62.07 16.145-18.553 36.095-29.189 60.563-30.934 11.782-0.84 23.627-1.127 35.443-1.13 229.734-0.063 459.468-0.122 689.202 0.057 26.225 0.02 49.504 8.918 67.731 28.312 14.162 15.069 22.708 33.084 23.822 54.016a785.876 785.876 0 0 1 1.114 40.931c0.094 92.365 0.057 184.73 0.037 277.096-0.002 10.129-3.046 18.962-12.302 24.266-14.799 8.481-33.792-1.685-33.786-20.163 0.012-40.97 0.004-81.94 0.004-122.91 0-63.65-0.038-127.299 0.022-190.949 0.019-20.488-14.78-39.011-34.843-43.449a47.471 47.471 0 0 0-10.158-1.112c-119.624-0.057-239.247-0.048-358.869-0.048z" fill="#ffffff" p-id="104839"></path><path d="M904.616 882.488c-7.2-0.479-16.778-1.938-26.293-1.606-38.222 1.334-66.719 18.869-84.854 52.71-2.096 3.911-3.381 8.254-5.056 12.391-3.5 8.646-10.816 12.538-19.246 13.58-11.477 1.419-23.112 2.353-34.66 2.188-11.305-0.161-22.616-1.72-33.868-3.118-8.961-1.114-14.381-7.186-17.272-15.154-11.698-32.237-35.026-51.46-67.468-60.047-14.242-3.77-28.804-3.819-43.463-0.724-13.79 2.911-23.806-3.37-31.829-14.539-10.083-14.037-18.895-28.729-26.417-44.268-3.977-8.217-3.277-20.918 4.234-28.055 13.526-12.854 21.221-28.941 24.095-47.023 3.669-23.087-2.487-44.089-16.272-62.865-2.024-2.757-4.172-5.536-6.73-7.768-8.31-7.251-9.505-20.838-4.868-30.278 8.667-17.642 18.744-34.311 31.196-49.482 7.087-8.635 17.014-9.96 27.162-8.101 28.808 5.276 55.109-0.261 78.573-17.745 14.908-11.108 25.916-25.289 31.802-43.275 3.263-9.971 12.584-15.856 23.071-16.297 9.378-0.394 18.724-1.822 28.097-1.98 8.68-0.146 17.398 0.555 26.059 1.333a82.001 82.001 0 0 1 15.202 2.814c9.718 2.786 12.715 11.479 15.933 19.634 7.081 17.949 19.395 31.508 35.289 41.855 18.901 12.305 39.905 16.957 62.299 15.374 4.818-0.341 9.573-1.495 14.377-2.117 12.38-1.602 21.279 4.062 27.747 13.989 8.4 12.892 16.751 25.831 24.565 39.079 2.752 4.665 4.827 10.181 5.487 15.521 0.946 7.65-2.793 14.078-8.14 19.643-12.671 13.187-20.549 28.949-23.105 47.004-3.193 22.558 2.872 42.998 16.085 61.345 2.842 3.946 6.636 7.194 9.682 11.01 8.043 10.08 6.048 20.357 0.777 30.994-8.084 16.315-18.019 31.405-29.408 45.519-5.087 6.303-11.874 9.984-22.783 8.459z m-342.804-65.97c2.878 4.785 5.688 9.357 8.397 13.988 2.392 4.089 5.663 5.445 10.553 5.385 11.292-0.139 22.692-0.261 33.873 1.076 31.594 3.779 58.284 18.203 80.759 40.261 10.01 9.824 18.351 21.228 23.978 34.278 1.427 3.308 3.274 4.62 6.955 4.44a199.931 199.931 0 0 1 19.739-0.002c4.064 0.204 5.921-1.323 7.707-4.963 10.351-21.104 25.599-38.031 45.059-51.165 16.991-11.468 35.548-19.615 55.762-22.65 12.179-1.828 24.748-1.295 37.143-1.317 4.869-0.009 8.691-0.455 11.024-5.402 1.669-3.539 3.574-7.164 6.183-10.009 2.845-3.102 1.459-5.195-0.236-7.8-3.513-5.397-7.348-10.646-10.27-16.355-7.227-14.12-11.758-29.001-13.528-44.946-2.254-20.302 0.062-39.794 6.725-58.963 4.154-11.952 10.143-22.881 17.618-33.038 1.753-2.382 1.832-4.302-0.271-6.876-2.69-3.292-4.819-7.119-6.739-10.942-2.192-4.363-5.714-4.541-9.893-4.468-10.454 0.183-21.049 1.056-31.342-0.262-19.09-2.444-37.494-8.159-53.811-18.56-10.706-6.825-21.145-14.516-30.208-23.352-10.122-9.869-18.367-21.578-24.324-34.679-0.677-1.488-3.104-3.002-4.781-3.073-7.666-0.327-15.357-0.262-23.03-0.038-1.446 0.042-3.577 1.091-4.168 2.282-8.155 16.432-18.803 30.76-32.682 42.977-17.351 15.273-37.117 25.737-59.345 31.127-15.902 3.856-32.163 6.613-48.712 3.644-3.634-0.652-6.603 0.258-8.594 3.689-2.512 4.328-4.901 8.776-7.896 12.755-1.812 2.408-1.005 4.011 0.221 5.864 2.47 3.734 5.215 7.298 7.521 11.128 10.15 16.858 16.194 35.259 17.36 54.764 0.718 12.011-0.264 24.325-2.132 36.244-3.189 20.332-12.158 38.426-24.615 54.958z m-50.363-484.522c-97.285 0-194.571-0.068-291.856 0.089-11.759 0.019-20.227-8.104-21.427-17.831-1.864-15.105 5.653-23.583 16.759-26.134 2.601-0.597 5.302-1.075 7.957-1.076 192.376-0.049 384.752-0.056 577.128-0.011 9.11 0.002 17.453 2.031 22.771 10.565 4.746 7.616 4.405 15.546 0.853 23.196-3.669 7.902-10.501 11.238-19.233 11.234-97.65-0.05-195.301-0.032-292.952-0.032zM377.084 533.933c-53.024 0-106.05-0.17-159.072 0.158-9.41 0.058-19.616-9.878-20.096-19.977-0.766-16.113 10.027-25.127 24.925-25.138 102.757-0.077 205.515-0.05 308.272-0.031 17.274 0.003 26.377 11.026 25.943 24.506-0.364 11.3-11.775 20.732-20.901 20.667-53.021-0.378-106.047-0.185-159.071-0.185zM332.537 691.97c37.857 0 75.713 0.066 113.569-0.046 9.638-0.029 15.408 5.17 19.195 13.217 3.338 7.092 1.818 18.75-3.949 24.126-5.604 5.224-11.709 7.645-18.913 7.653-73.336 0.076-146.671 0.134-220.007-0.061-9.484-0.025-18.158-2.914-22.442-12.777-6.196-14.263 1.393-32.189 18.976-32.143 37.858 0.1 75.714 0.031 113.571 0.031z" fill="#ffffff" p-id="104840"></path><path d="M848.942 736.205c0.188 62.124-50.25 113.865-114.701 112.639-59.811-1.137-110.909-48.953-110.108-114.116 0.746-60.696 49.085-111.815 115.16-110.642 59.798 1.062 109.198 49.424 109.649 112.119z m-44.999 0.425c-1.061-38.152-29.924-67.433-67.283-67.425-37.988 0.008-67.275 29.386-67.418 67.006-0.144 38.042 29.695 67.579 67.546 67.452 37.352-0.124 65.941-29.492 67.155-67.033z" fill="#ffffff" p-id="104841"></path></svg>