<?xml version="1.0" standalone="no"?><!DOCTYPE svg PUBLIC "-//W3C//DTD SVG 1.1//EN" "http://www.w3.org/Graphics/SVG/1.1/DTD/svg11.dtd"><svg t="1554193409485" class="icon" style="" viewBox="0 0 1024 1024" version="1.1" xmlns="http://www.w3.org/2000/svg" p-id="89765" xmlns:xlink="http://www.w3.org/1999/xlink" width="200" height="200"><defs><style type="text/css"></style></defs><path d="M128 64h768c35.2 0 64 28.8 64 64v768c0 35.2-28.8 64-64 64H128c-35.2 0-64-28.8-64-64V128c0-35.2 28.8-64 64-64z m544 256v64h128v-64h-128z m0 160v64h128v-64h-128z m0 160v64h128v-64h-128zM224 320v35.2h124.8v28.8h-96v102.4H576V384h-96v-28.8h128V320H224z m51.2 192v32h288v-32h-288z m-44.8 57.6v35.2h169.6v51.2c0 9.6-6.4 16-16 16s-22.4 0-35.2-3.2l6.4 35.2h38.4c28.8 0 41.6-12.8 41.6-41.6v-57.6h160v-35.2H230.4z m278.4 41.6l-28.8 25.6c41.6 22.4 73.6 44.8 96 64l28.8-28.8c-25.6-19.2-57.6-41.6-96-60.8z m-176 0c-28.8 22.4-60.8 38.4-102.4 54.4l25.6 32c41.6-19.2 76.8-38.4 105.6-64l-28.8-22.4z m108.8-227.2h-54.4v-28.8h54.4v28.8z m96 67.2H480V416h57.6v35.2z m-96 0h-54.4V416h54.4v35.2z m-92.8 0H294.4V416H352v35.2z" p-id="89766" fill="#ffffff"></path></svg>