<?xml version="1.0" standalone="no"?><!DOCTYPE svg PUBLIC "-//W3C//DTD SVG 1.1//EN" "http://www.w3.org/Graphics/SVG/1.1/DTD/svg11.dtd"><svg t="1554193850334" class="icon" style="" viewBox="0 0 1194 1024" version="1.1" xmlns="http://www.w3.org/2000/svg" p-id="101428" xmlns:xlink="http://www.w3.org/1999/xlink" width="233.203125" height="200"><defs><style type="text/css"></style></defs><path d="M199.099055 893.416903a65.219162 65.219162 0 0 1-69.713112-60.213243V190.597241A65.219162 65.219162 0 0 1 199.099055 130.440883h666.981832A65.219162 65.219162 0 0 1 935.765556 190.597241v76.112724a392.509565 392.509565 0 0 1 126.342572 44.029334V192.019377a195.685928 195.685928 0 0 0-199.099055-191.988374H199.099055a195.657485 195.657485 0 0 0-199.099055 191.988374v639.961246a195.657485 195.657485 0 0 0 199.099055 191.959932h294.069303a271.087584 271.087584 0 0 1-44.455974-130.381438H199.099055z m382.042643-511.968997a335.624121 335.624121 0 0 1 55.975277-49.831649v-0.369756h0.568854A385.88241 385.88241 0 0 1 796.396218 266.738408v-5.688545H268.783724v120.483371h312.386416zM268.783724 642.438323v120.454928h202.455295a271.940866 271.940866 0 0 1 60.241686-85.925463 272.19685 272.19685 0 0 1-12.827668-34.529465H268.783724z m0-70.281966h238.918865v-5.034362a266.878061 266.878061 0 0 1 26.366403-115.420566H268.783724v120.454928z m799.24049 165.394429a155.012835 155.012835 0 0 0 45.252371-108.935625v-79.099211a160.587609 160.587609 0 0 0-162.863027-158.141534 187.380653 187.380653 0 0 0-38.994972 3.640668 206.807032 206.807032 0 0 1 60.668327 82.483894 80.436018 80.436018 0 0 1 60.61144 72.187629v82.483894a80.464461 80.464461 0 0 1-60.61144 72.187628 138.516057 138.516057 0 0 1-10.12561 20.620974 306.072132 306.072132 0 0 1 80.862659 82.483894 151.40061 151.40061 0 0 1 70.73705 92.837045 51.708869 51.708869 0 0 1-40.445551 51.595098h-10.210937A131.917345 131.917345 0 0 1 1016.201574 1023.968997h56.259705A120.426485 120.426485 0 0 0 1194.594327 905.362846a242.616419 242.616419 0 0 0-126.683884-167.81206z m-166.702794-2.133204a146.90666 146.90666 0 0 0 50.542717-103.13331v-82.483894a156.719399 156.719399 0 0 0-161.696875-154.699966c-89.907444 0-171.794041 67.380809-171.794041 154.699966v82.483894a146.878217 146.878217 0 0 0 50.542717 103.13331 230.841132 230.841132 0 0 0-121.279767 164.967788A120.910012 120.910012 0 0 0 665.303712 1023.968997h244.29454a125.318633 125.318633 0 0 0 122.957888-123.498299 244.266097 244.266097 0 0 0-131.376934-164.967788z" p-id="101429" fill="#ffffff"></path></svg>