<?xml version="1.0" standalone="no"?><!DOCTYPE svg PUBLIC "-//W3C//DTD SVG 1.1//EN" "http://www.w3.org/Graphics/SVG/1.1/DTD/svg11.dtd"><svg t="1554193288616" class="icon" style="" viewBox="0 0 1024 1024" version="1.1" xmlns="http://www.w3.org/2000/svg" p-id="88035" xmlns:xlink="http://www.w3.org/1999/xlink" width="200" height="200"><defs><style type="text/css"></style></defs><path d="M595.52426667 456.32853333h75.91253333v86.28906667h-75.91253333zM595.52426667 337.27146666h75.91253333v86.28906667h-75.91253333zM484.11306667 337.27146666h75.91253333v86.28906667h-75.91253333zM484.11306667 456.32853333h75.91253333v86.28906667h-75.91253333z" fill="#ffffff" p-id="88036"></path><path d="M504.86613334 27.61386666c-270.336 0-489.8816 218.99946667-489.8816 489.8816 0 270.336 218.99946667 489.8816 489.8816 489.8816 270.336 0 489.8816-218.99946667 489.8816-489.8816-0.54613333-270.336-219.5456-489.8816-489.8816-489.8816z m-173.6704 874.9056c-42.5984 27.30666667-169.84746667-112.50346667-175.85493334-119.6032-49.152-55.15946667-48.05973333-61.71306667-41.50613333-72.0896 5.46133333-8.73813333 22.9376-13.65333333 28.94506667-5.46133333 10.92266667 14.19946667 103.76533333 127.7952 176.40106666 155.648 4.9152 1.6384 14.7456 6.5536 19.11466667 15.29173333 4.9152 9.28426667 2.73066667 19.6608-7.09973333 26.2144z m97.75786666-386.6624c-16.384 4.36906667-33.31413333 8.192-50.7904 12.56106667v134.3488c0 32.22186667-15.29173333 49.152-45.32906666 50.24426667-10.92266667 0.54613333-25.12213333 0.54613333-42.05226667 0.54613333-1.09226667-12.56106667-3.2768-25.12213333-6.00746667-37.13706667 15.29173333 1.09226667 27.8528 1.6384 36.59093334 1.6384 14.7456 0 21.84533333-6.5536 21.84533333-20.20693333v-120.14933333c-20.20693333 4.9152-40.96 10.37653333-62.2592 16.384l-2.18453333-37.6832c21.2992-4.36906667 43.14453333-9.28426667 64.44373333-14.7456v-107.58826667h-58.43626667v-32.768h58.43626667v-86.8352h34.95253333v86.8352h50.24426667v32.768h-50.24426667v98.85013333c17.47626667-4.36906667 34.4064-8.73813333 51.88266667-13.65333333 0 15.29173333-0.54613333 27.8528-1.09226667 36.59093333z m277.43573334 86.28906667h-34.95253334v-27.30666667h-75.91253333v145.27146667h-34.95253333v-145.27146667h-75.91253334v27.30666667h-34.95253333V304.50346666h257.2288v297.64266667z" fill="#ffffff" p-id="88037"></path></svg>