<?xml version="1.0" standalone="no"?><!DOCTYPE svg PUBLIC "-//W3C//DTD SVG 1.1//EN" "http://www.w3.org/Graphics/SVG/1.1/DTD/svg11.dtd"><svg t="1554193235094" class="icon" style="" viewBox="0 0 1024 1024" version="1.1" xmlns="http://www.w3.org/2000/svg" p-id="86091" xmlns:xlink="http://www.w3.org/1999/xlink" width="200" height="200"><defs><style type="text/css"></style></defs><path d="M622.651 256.983H729.26c27.462 0 33.923-16.59 14.537-37.051L608.654 76.165c-19.385-19.908-34.46-13.273-34.998 15.483v113.356c-0.54 28.201 21.535 51.427 48.995 51.979z" fill="#ffffff" p-id="86092"></path><path d="M755.106 292.924h-150.76c-33.923-0.553-60.842-29.306-60.304-64.144V64h-305.83c-47.92 0-86.686 41.471-86.686 92.343V825.98c-0.538 39.259 29.612 71.33 67.843 72.437h233.138l302.598-321.269V292.924z m-452.819 92.345h302.058c17.228 0.553 30.69 15.483 30.15 33.178-0.538 16.588-13.46 29.858-30.15 30.963H302.287c-16.693-0.552-30.152-14.928-30.152-32.071 0-17.139 13.46-31.517 30.152-32.07zM604.345 577.7H302.287c-16.693-0.552-30.152-14.933-30.152-32.071 0-17.143 13.46-31.521 30.152-32.073h302.058c17.228 0 31.227 14.378 31.227 32.073 0.001 17.693-13.999 32.071-31.227 32.071zM866.02 623.041l-30.152-32.071-0.538-0.552c-8.614-8.848-22.613-8.295-31.23 0.552l-34.998 37.049 61.919 66.357 34.998-37.051c8.615-9.953 8.615-24.883 0.001-34.284zM546.194 862.473c-3.768 2.213-6.461 6.083-7.536 10.508l-22.076 70.225c-3.771 12.718 2.69 19.908 14.537 15.485l66.225-23.226c4.308-1.108 7.539-4.425 9.691-8.293L814.87 705.434l-60.304-64.144-208.372 221.183z" fill="#ffffff" p-id="86093"></path></svg>