<?xml version="1.0" standalone="no"?><!DOCTYPE svg PUBLIC "-//W3C//DTD SVG 1.1//EN" "http://www.w3.org/Graphics/SVG/1.1/DTD/svg11.dtd"><svg t="1554193937619" class="icon" style="" viewBox="0 0 1024 1024" version="1.1" xmlns="http://www.w3.org/2000/svg" p-id="103196" xmlns:xlink="http://www.w3.org/1999/xlink" width="200" height="200"><defs><style type="text/css"></style></defs><path d="M398.222222 910.222222H113.777778V113.777778h682.666666v284.444444a56.888889 56.888889 0 0 0 113.777778 0V56.888889a56.888889 56.888889 0 0 0-56.888889-56.888889H56.888889a56.888889 56.888889 0 0 0-56.888889 56.888889v910.222222a56.888889 56.888889 0 0 0 56.888889 56.888889h341.333333a56.888889 56.888889 0 1 0 0-113.777778z" p-id="103197" fill="#ffffff"></path><path d="M682.666667 284.444444a56.888889 56.888889 0 0 0-56.888889-56.888888H284.444444a56.888889 56.888889 0 1 0 0 113.777777h341.333334a56.888889 56.888889 0 0 0 56.888889-56.888889zM284.444444 455.111111a56.888889 56.888889 0 1 0 0 113.777778h113.777778a56.888889 56.888889 0 1 0 0-113.777778zM1007.502222 926.72l-92.728889-92.16a56.888889 56.888889 0 0 0-8.533333-5.688889 227.555556 227.555556 0 0 0 33.564444-117.191111 230.4 230.4 0 1 0-113.777777 194.56 56.888889 56.888889 0 0 0 5.688889 8.533333l92.728888 92.16a56.888889 56.888889 0 1 0 80.782223-80.213333z m-295.253333-101.262222a113.777778 113.777778 0 1 1 113.777778-113.777778 113.777778 113.777778 0 0 1-114.346667 114.346667z" p-id="103198" fill="#ffffff"></path></svg>