<?xml version="1.0" standalone="no"?><!DOCTYPE svg PUBLIC "-//W3C//DTD SVG 1.1//EN" "http://www.w3.org/Graphics/SVG/1.1/DTD/svg11.dtd"><svg t="1554192963193" class="icon" style="" viewBox="0 0 1024 1024" version="1.1" xmlns="http://www.w3.org/2000/svg" p-id="81704" xmlns:xlink="http://www.w3.org/1999/xlink" width="200" height="200"><defs><style type="text/css"></style></defs><path d="M1024 574.4L903.6 825.2c-15.1 29.2-45.1 47.5-78 47.5H116c-13.1 0-21.6-13.8-15.7-25.5l0.3-0.6c9.6-19.1 3.9-42.3-13.5-54.7l-1-0.7C45.9 762.4 22 715.9 22 666.4v-56.9h631.8v-0.4c0-19.2 15.6-34.7 34.7-34.7H1024z" p-id="81705" fill="#ffffff"></path><path d="M618.6 363.8H495.8c-9.7 0-17.6 7.9-17.6 17.5v193c0 9.7 7.9 17.5 17.6 17.5h122.8c9.7 0 17.5-7.9 17.5-17.5v-193c0.1-9.7-7.8-17.5-17.5-17.5zM829.2 434H688.9c-9.7 0-17.6 7.9-17.6 17.5v70.2c0 9.7 7.9 17.5 17.6 17.5h140.4c9.7 0 17.6-7.9 17.6-17.5v-70.2c-0.1-9.7-8-17.5-17.7-17.5z" p-id="81706" fill="#ffffff"></path><path d="M285.2 591.9h140.4c9.7 0 17.5-7.9 17.5-17.5V434c0-9.7-7.9-17.6-17.5-17.6H285.2c-9.7 0-17.6 7.9-17.6 17.6v140.4c0.1 9.7 7.9 17.5 17.6 17.5z" p-id="81707" fill="#ffffff"></path><path d="M149.3 333.7V284h33.2v-33.2h-33.2v-99.5h-16.6v99.5H82.9V284h49.8v49.8H0V367h49.8v232.2h182.5V363.8l44-30.1h-127zM199 532.8h-49.8v-66.3H199v66.3z m0-99.6h-49.8v-49.8H199v49.8z" p-id="81708" fill="#ffffff"></path></svg>