<?xml version="1.0" standalone="no"?><!DOCTYPE svg PUBLIC "-//W3C//DTD SVG 1.1//EN" "http://www.w3.org/Graphics/SVG/1.1/DTD/svg11.dtd"><svg t="1554193073478" class="icon" style="" viewBox="0 0 1024 1024" version="1.1" xmlns="http://www.w3.org/2000/svg" p-id="84223" xmlns:xlink="http://www.w3.org/1999/xlink" width="200" height="200"><defs><style type="text/css"></style></defs><path d="M66.118 529.111l318.522 0.814 66.767 58.593 337.294 2.587 55.093-42.094 117.262 0.962-48.218 153.359v57.707H135.105l-8.155-34.476 55.112-23.23L66.118 529.111z m52.044-313.306h121.311v87.334H118.162v-87.334z m0 102.539h121.311v87.331H118.162v-87.331zM668.98 505.513v66.767l110.251-1.258 55.093-55.226 47.071 0.405v-98.8h38.897v-81.524h-89.055V311.39l-92.846-37.62v79.971h26.541v19.753h-26.541v132.018H668.98v0.001z m-215.467 0v66.767h95.899v-66.767h-95.899zM118.162 422.58h121.311v87.372H118.162V422.58z m142.799 0v87.372h121.311V422.58h-53.749V288.898l238.421 152.254v34.62h22.526v95.804h50.139v-95.804h40.912V357.108h-38.616L330.781 219.135l-14.538-6.435-6.011 14.761-11.246 27.632-4.826 11.871 10.856 6.916 8.916 5.697V422.58h-52.971z m193.718-114.705l-21.53 11.284-6.045-3.886-6.216-22.378 33.791 14.98z m58.298 25.817l-27.318 16.314-0.758-28.742 28.076 12.428z m42.537 18.905l-17.125 15.829-1.167-23.969 18.292 8.14z m-15.11 35.029l26.541-24.598v41.537l-26.541-16.939z m-42.393-27.041l23.859-14.242 1.5 30.408-25.359-16.166zM448.096 328.7l21.287-11.132 0.667 25.116-21.954-13.984z m-51.305-32.772l7.435-5.364 3.42 12.28-10.855-6.916z m-29.518-18.867c0.481-2.515 0.962-5.03 1.424-7.322l23.617 10.466a978.445 978.445 0 0 0-9.341 6.92l-15.7-10.064z m-10.227-12.499c0.368 1.92 0.867 4.288 1.458 6.95l-26.06-16.643 0.409-1.038 24.193 10.731z m509.978 89.179h33.571v19.753h-33.571v-19.753z m-45.165 0h33.552v19.753h-33.552v-19.753z m-45.329 0h33.548v19.753H776.53v-19.753zM462.815 633.313V653.4h31.204v-20.087h-31.204z m207.813 0V653.4h31.181v-20.087h-31.181z m52.339 0V653.4h31.181v-20.087h-31.181z m-104.035 0V653.4h31.204v-20.087h-31.204z m-52.32 0V653.4h31.181v-20.087h-31.181z m-51.453 0V653.4h31.181v-20.087h-31.181z" p-id="84224" fill="#ffffff"></path></svg>