<?xml version="1.0" standalone="no"?><!DOCTYPE svg PUBLIC "-//W3C//DTD SVG 1.1//EN" "http://www.w3.org/Graphics/SVG/1.1/DTD/svg11.dtd"><svg t="1554193313919" class="icon" style="" viewBox="0 0 1024 1024" version="1.1" xmlns="http://www.w3.org/2000/svg" p-id="88969" xmlns:xlink="http://www.w3.org/1999/xlink" width="200" height="200"><defs><style type="text/css"></style></defs><path d="M821.478329 827.174151c-4.543858-4.351864-4.47986-4.287866-9.823693-9.503703a18.015437 18.015437 0 0 0-24.223243 0.927971l-117.43633 120.700228-21.75932 51.1984c-1.151964 2.719915 1.119965 5.343833 3.711884 4.191869l52.286366-22.271304s108.284616-110.71654 117.244336-119.932252c8.927721-9.151714 4.47986-20.895347 0-25.311209z m-131.291897 68.861848a22.143308 22.143308 0 0 0-5.727821-30.751039 166.3948 166.3948 0 0 0-20.287366-11.903628A112.31649 112.31649 0 0 0 703.466017 767.976001c0-62.07806-50.494422-112.540483-112.572482-112.540483S478.353051 705.92994 478.353051 767.976001c0 34.142933 15.263523 64.765976 39.326772 85.43733a165.75482 165.75482 0 0 0-92.285117 148.443361 22.111309 22.111309 0 1 0 44.222618 0 121.404206 121.404206 0 0 1 189.882067-100.092872 22.047311 22.047311 0 0 0 30.687041-5.727821z m-99.292897-59.742133c-37.662823 0-68.317865-30.655042-68.317865-68.317865s30.655042-68.317865 68.317865-68.317865c37.694822 0 68.349864 30.655042 68.349864 68.317865a68.47786 68.47786 0 0 1-68.349864 68.317865z m140.7956 130.363926a22.111309 22.111309 0 0 0-20.031374 24.063248c0.31999 3.679885 0.511984 7.423768 0.511984 11.135652a22.143308 22.143308 0 0 0 44.222618 0c0-5.055842-0.191994-10.143683-0.671979-15.167526a22.07931 22.07931 0 0 0-24.031249-20.031374z m-305.366458-604.557108a11.231649 11.231649 0 0 0-11.231649-11.007656h-94.845036V288.086997h94.845036v-0.031999a11.19965 11.19965 0 0 0 11.231649-11.007656v-10.335677a11.231649 11.231649 0 0 0-11.231649-11.007656h-77.533577l38.71879-63.166026s8.831724-14.047561-5.919815-25.119215c-12.095622-8.63973-26.079185-5.279835-31.551014 3.871879L285.527077 255.704009h-3.071904L226.424924 171.290647s-13.247586-10.335677-27.615137-1.91994c-11.263648 6.463798-11.071654 19.455392-7.295772 26.143183l37.854817 60.222118H161.018968a11.231649 11.231649 0 0 0-11.231649 11.007656v10.335677c0 5.983813 5.11984 11.007656 11.231649 11.007656h95.709009v63.006031H161.018968a11.19965 11.19965 0 0 0-11.231649 11.007656v9.343708c0 5.983813 5.11984 11.007656 11.231649 11.007656h95.709009v54.334302c0 5.983813 5.11984 11.007656 11.231649 11.007656h39.070779c6.111809 0 13.215587-4.991844 13.215587-11.007656v-54.334302h94.877035a11.19965 11.19965 0 0 0 11.231649-11.007656l-0.031999-9.343708z m-68.669854 116.79635h-162.23493a32.95897 32.95897 0 0 0 0 65.821944h162.266929a32.95897 32.95897 0 0 0-0.031999-65.821944zM838.661792 0H185.338208C83.133402 0 0 78.109559 0 174.138558v675.018906C0 945.186463 83.133402 1023.968001 185.338208 1023.968001h149.051342c18.175432 0 32.894972-12.735602 32.894972-30.911034s-14.71954-32.894972-32.894972-32.894972H184.31424c-65.91794 0-119.516265-49.246461-119.516265-109.020593V172.47461c0-59.742133 53.598325-108.348614 119.516265-108.348614h656.33149c65.91794 0 119.516265 48.606481 119.516265 108.348614v678.666792c0 59.774132-53.598325 108.028624-119.516265 108.028624-18.175432 0-32.894972 14.71954-32.894972 32.894972s14.71954 31.903003 32.894972 31.903003C942.850536 1023.968001 1023.968001 947.170401 1023.968001 851.141402V174.138558C1023.968001 78.109559 940.834599 0 838.661792 0z m-309.910315 319.926002h302.998531c18.175432 0 32.926971-14.751539 32.926971-32.926971s-14.751539-31.903003-32.926971-31.903003h-302.998531c-18.175432 0-32.926971 13.727571-32.926972 31.903003s14.751539 32.926971 32.926972 32.926971z m0 223.801007h302.998531c18.175432 0 32.926971-13.75957 32.926971-31.935003a32.95897 32.95897 0 0 0-32.926971-32.894972h-302.998531a32.95897 32.95897 0 0 0-32.926972 32.894972c0 18.175432 14.751539 31.935002 32.926972 31.935003z" p-id="88970" fill="#ffffff"></path></svg>