<?xml version="1.0" standalone="no"?><!DOCTYPE svg PUBLIC "-//W3C//DTD SVG 1.1//EN" "http://www.w3.org/Graphics/SVG/1.1/DTD/svg11.dtd"><svg t="1554193273026" class="icon" style="" viewBox="0 0 1024 1024" version="1.1" xmlns="http://www.w3.org/2000/svg" p-id="87694" xmlns:xlink="http://www.w3.org/1999/xlink" width="200" height="200"><defs><style type="text/css"></style></defs><path d="M442.924 395.981l36.938 70.886-44.922 0.559v16.315h46.076v24.17H434.94v16.319h46.076v94.496H446.31v16.315h131.343v-16.315h-32.956V524.23h44.359v-16.319h-44.359v-24.17h44.359v-16.315h-44.359v-4.504h0.004l38.072-66.941v-0.559h29.018v-16.305h-79.623v16.305h20.877L514 462.922h-6.078l-35.589-67.5H491.8v-16.305h-79.607v16.305h30.73v0.559z m249.897-136.355V139.984c-14.94-43.149-65.734-44.994-81.546 0v119.642h-27.973V98.202c-17.103-44.952-60.247-45.916-80.414 0v161.424h-32.805V139.984c-17.024-46-63.952-44.557-82.396 0v119.642h-38.851v-97.548c-12.042-46.721-70.858-46.647-83.106 0v97.548H120.988v452.757l144.799-0.648C270.05 855.95 382.185 959.322 519.07 959.322c136.879 0 249.009-104.211 253.283-247.872l130.661 0.976V259.627l-210.193-0.001z m169.034 411.601h-89.503V481.14c-10.92-71.617-70.352-72.156-89.024-3.876v193.963H162.145V300.788h699.711v370.439z" p-id="87695" fill="#ffffff"></path></svg>