<?xml version="1.0" standalone="no"?><!DOCTYPE svg PUBLIC "-//W3C//DTD SVG 1.1//EN" "http://www.w3.org/Graphics/SVG/1.1/DTD/svg11.dtd"><svg t="1554193643263" class="icon" style="" viewBox="0 0 1024 1024" version="1.1" xmlns="http://www.w3.org/2000/svg" p-id="93847" xmlns:xlink="http://www.w3.org/1999/xlink" width="200" height="200"><defs><style type="text/css"></style></defs><path d="M307.2 409.6h358.4v51.2H307.2zM307.2 706.56h358.4v51.2H307.2zM307.2 558.08h358.4v51.2H307.2z" fill="#ffffff" p-id="93848"></path><path d="M819.2 368.64v512H153.6v-665.6h512v-51.2H102.4v768h768v-563.2z" fill="#ffffff" p-id="93849"></path><path d="M793.6 209.92l-20.48-20.48 81.92-81.92-250.88 5.12V358.4l81.92-81.92c5.12 5.12 20.48 10.24 25.6 20.48 56.32 56.32 56.32 153.6 0 209.92-46.08 46.08-117.76 56.32-179.2 25.6 81.92 51.2 189.44 40.96 261.12-30.72 81.92-76.8 81.92-209.92 0-291.84z" fill="#ffffff" p-id="93850"></path></svg>