<?xml version="1.0" standalone="no"?><!DOCTYPE svg PUBLIC "-//W3C//DTD SVG 1.1//EN" "http://www.w3.org/Graphics/SVG/1.1/DTD/svg11.dtd"><svg t="1568793831370" class="icon" viewBox="0 0 1024 1024" version="1.1" xmlns="http://www.w3.org/2000/svg" p-id="13277" xmlns:xlink="http://www.w3.org/1999/xlink" width="32" height="32"><defs><style type="text/css"></style></defs><path d="M136.484623 0.000146a49.151979 49.151979 0 0 0-35.839985 15.359994A54.418262 54.418262 0 0 0 85.284645 51.200124v921.599605a49.151979 49.151979 0 0 0 15.359993 35.839985A50.614835 50.614835 0 0 0 136.484623 1023.999707h750.884249a49.151979 49.151979 0 0 0 35.839985-15.359993 50.614835 50.614835 0 0 0 15.359993-35.839985V290.084593L648.484403 0.000146z" fill="#5ACC9B" p-id="13278"></path><path d="M938.715136 290.084593H699.684381a52.516549 52.516549 0 0 1-51.199978-51.199978V0.000146z" fill="#BDEBD7" p-id="13279"></path><path d="M472.795336 539.355344l-116.150808-162.230788h80.164537l75.922254 116.004522 79.433108-116.004522h77.677681l-118.637663 162.084502 124.635375 172.324498h-81.042251l-83.675393-122.879948-83.675392 123.757662h-79.286824z" fill="#FFFFFF" p-id="13280"></path></svg>