<?xml version="1.0" standalone="no"?><!DOCTYPE svg PUBLIC "-//W3C//DTD SVG 1.1//EN" "http://www.w3.org/Graphics/SVG/1.1/DTD/svg11.dtd"><svg t="1568791618905" class="icon" viewBox="0 0 1024 1024" version="1.1" xmlns="http://www.w3.org/2000/svg" p-id="12332" width="32" height="32" xmlns:xlink="http://www.w3.org/1999/xlink"><defs><style type="text/css"></style></defs><path d="M863.528421 1019.324632H158.315789c-14.821053 0-26.853053-14.120421-26.853052-31.528421v-95.757474H77.258105V446.558316h54.204632V32.592842c0-17.408 12.018526-31.528421 26.853052-31.528421h488.097685l243.954526 286.410105v159.08379h54.204632v445.480421h-54.204632v95.757474c0 17.408-12.018526 31.528421-26.853053 31.528421z m-27.378526-127.285895H185.667368v63.63621h650.482527v-63.63621zM342.339368 690.930526c44.436211 0 66.937263-22.581895 66.937264-67.47621 0-44.530526-22.231579-66.789053-66.66779-66.789053h-79.157895v227.166316h22.231579V690.930526h56.656842z m162.357895 92.901053c30.342737 0 53.638737-10.469053 69.928421-31.151158 15.413895-19.765895 23.296-47.440842 23.296-82.432 0-35.637895-7.329684-63.326316-21.692631-82.432-15.723789-20.965053-38.750316-31.151158-69.376-31.151158h-69.389474v227.166316h67.233684zM758.366316 579.233684v-22.581895H628.816842v227.166316h22.191158v-105.633684h101.632V655.629474h-101.632v-76.368842h107.358316z m-255.070316 0c25.505684 0 43.924211 7.639579 55.861895 23.242105 11.115789 14.618947 16.788211 37.214316 16.78821 67.759158 0 29.574737-6.224842 52.210526-18.176 67.476211-12.732632 15.562105-31.690105 23.511579-56.885894 23.511579H459.722105V579.247158h43.600842z m-162.074947 0c15.454316 0 26.853053 3.516632 34.411789 11.11579 7.612632 6.709895 11.398737 17.812211 11.398737 33.091368s-3.772632 26.421895-11.11579 33.738105c-7.572211 7.316211-18.957474 11.156211-34.694736 11.156211h-55.552v-89.101474h55.552z m305.178947-514.533052H185.667368v381.84421h650.482527V287.474526H646.413474V64.714105z" fill="#F95951" p-id="12333"></path></svg>