<?xml version="1.0" standalone="no"?><!DOCTYPE svg PUBLIC "-//W3C//DTD SVG 1.1//EN" "http://www.w3.org/Graphics/SVG/1.1/DTD/svg11.dtd"><svg t="1543020811389" class="icon" style="" viewBox="0 0 1048 1024" version="1.1" xmlns="http://www.w3.org/2000/svg" p-id="8419" xmlns:xlink="http://www.w3.org/1999/xlink" width="204.6875" height="200"><defs><style type="text/css"></style></defs><path d="M764.964427 412.837945V76.901186C764.964427 32.379447 732.58498 0 688.063241 0H161.897233C121.422925 0 89.043478 32.379447 89.043478 76.901186v335.936759l335.936759 129.517786c4.047431 0 339.98419-129.517787 339.98419-129.517786z m-416.885376-242.84585H647.588933v76.901186H348.079051V169.992095zM291.41502 392.600791H214.513834V315.699605h76.901186v76.901186z m0-149.754941H214.513834V169.992095h76.901186V242.84585z m56.664031 76.901186H647.588933v76.901185H348.079051V319.747036z" p-id="8420"></path><path d="M607.114625 801.391304c0-121.422925 97.13834-218.561265 218.561264-218.561264 8.094862 0 20.237154 0 28.332016 4.04743V485.6917c0-20.237154-20.237154-36.426877-40.474308-32.379447l-380.458498 149.754941h-16.189724L40.474308 453.312253c-20.237154-4.047431-40.474308 8.094862-40.474308 32.379447v311.652174c0 20.237154 16.189723 32.379447 32.379447 32.379446H607.114625v-28.332016z" p-id="8421"></path><path d="M825.675889 643.541502c-89.043478 0-161.897233 72.853755-161.897233 161.897233s72.853755 161.897233 161.897233 161.897233 161.897233-72.853755 161.897234-161.897233-72.853755-161.897233-161.897234-161.897233z m80.948617 222.608696l-8.094862 8.094861-68.806324-64.758893-68.806324 68.806324-8.094862-8.094862 68.806324-68.806324-68.806324-68.806324 8.094862-8.094861 68.806324 68.806324 68.806324-68.806324 8.094862 8.094861-68.806324 68.806324 68.806324 64.758894z" p-id="8422"></path></svg>