<?xml version="1.0" standalone="no"?><!DOCTYPE svg PUBLIC "-//W3C//DTD SVG 1.1//EN" "http://www.w3.org/Graphics/SVG/1.1/DTD/svg11.dtd"><svg t="1542934501091" class="icon" style="" viewBox="0 0 1024 1024" version="1.1" xmlns="http://www.w3.org/2000/svg" p-id="2094" xmlns:xlink="http://www.w3.org/1999/xlink" width="200" height="200"><defs><style type="text/css"></style></defs><path d="M510.276298 775.898367H190.025408V669.14776h71.167071l-14.802468-9.849727 52.036298-78.112058c-23.341996-16.624668-37.233829-43.49677-37.23383-72.191071 0-49.134345 39.853299-88.987644 88.986715-88.987644s88.930033 39.909982 88.930033 89.044326c0 29.775913-14.745786 56.02265-37.23383 72.191071l52.036298 78.056305-14.802468 9.849728h71.167071V775.898367zM403.525691 509.051586c0-29.491572-23.911608-53.404109-53.403179-53.346497-29.491572 0-53.404109 23.911608-53.346497 53.40225 0 29.492501 23.911608 53.404109 53.403179 53.404109 29.434889-0.113365 53.346497-24.025902 53.346497-53.459862z m-34.615288 86.880174a88.681002 88.681002 0 0 1-37.5191 0l-48.849074 73.216H417.702795l-48.792392-73.216z m105.782359 108.799536H225.608944v35.583535H474.691833v-35.583535z" fill="#666666" p-id="2095"></path><path d="M867.426497 59.470054H153.785844v832.580763h297.350272v59.470054H94.315789V0h832.580763v356.820327h-59.470055V59.470054zM213.255898 262.039927h297.350273v59.470055H213.255898v-59.470055z m0-118.940108h416.290381v59.470054H213.255898v-59.470054z" fill="#666666" p-id="2096"></path><path d="M679.973169 891.864973v-73.407419L547.774955 921.229241 679.973169 1024v-73.408348H929.684211V656.958258H621.218613v58.726678l249.709184-1.233074V891.864973z" fill="#666666" p-id="2097"></path></svg>