<?xml version="1.0" standalone="no"?><!DOCTYPE svg PUBLIC "-//W3C//DTD SVG 1.1//EN" "http://www.w3.org/Graphics/SVG/1.1/DTD/svg11.dtd"><svg t="1543022144921" class="icon" style="" viewBox="0 0 1024 1024" version="1.1" xmlns="http://www.w3.org/2000/svg" p-id="11570" xmlns:xlink="http://www.w3.org/1999/xlink" width="200" height="200"><defs><style type="text/css"></style></defs><path d="M803.120561 620.311201l130.386981 130.265352H698.519064L212.851883 233.893812h-199.472622V273.666706H195.702102l485.667182 516.682742h252.259888l-130.143722 129.900463 28.096448 28.096448L1009.647702 770.402186 831.217009 592.214752 803.120561 620.311201z m0 0" p-id="11571"></path><path d="M195.702102 750.576553h-182.322841v39.772895h199.472622l192.661361-204.945956-29.069486-27.245041L195.702102 750.576553z m0 0" p-id="11572"></path><path d="M698.519064 273.666706h234.988478l-130.143722 129.900463 28.096448 28.096449 178.065804-177.944174L831.217009 75.532011l-28.096448 28.096448 130.386981 130.265353H681.369284l-193.634399 206.7704 29.069486 27.123411L698.519064 273.666706z m0 0" p-id="11573"></path></svg>