<?xml version="1.0" standalone="no"?><!DOCTYPE svg PUBLIC "-//W3C//DTD SVG 1.1//EN" "http://www.w3.org/Graphics/SVG/1.1/DTD/svg11.dtd"><svg t="1542782073228" class="icon" style="" viewBox="0 0 1024 1024" version="1.1" xmlns="http://www.w3.org/2000/svg" p-id="1837" xmlns:xlink="http://www.w3.org/1999/xlink" width="200" height="200"><defs><style type="text/css"></style></defs><path d="M1007.981303 703.9873c-8.83907 0-15.99612 7.15705-15.996119 15.99612v96.010583c0 2.020681-2.528674 5.587918-4.436468 6.265241L521.708301 987.548716c-4.808996 1.715886-14.630184 1.715886-19.450468 0L36.439996 822.259244c-1.907794-0.677323-4.436468-4.24456-4.436468-6.265241v-96.010583a15.99612 15.99612 0 0 0-32.003528 0v96.010583c0 15.555859 11.062948 31.224606 25.726998 36.428707l465.829126 165.30076c5.91529 2.099702 13.173939 3.149554 20.432587 3.149554s14.517297-1.06114 20.421299-3.149554l465.840414-165.30076c14.675339-5.204101 25.726998-20.861559 25.726999-36.428707v-96.010583c0-8.83907-7.15705-15.99612-15.99612-15.99612zM500.496792 363.045309l0.474126 0.474127 11.051659 11.051659 11.05166-11.051659 0.474126-0.474127 191.772814-191.784103a15.984831 15.984831 0 1 0-22.622599-22.622599L528.018697 313.329776V15.99612a15.984831 15.984831 0 1 0-31.992239 0v297.322367L331.357866 148.638607a15.99612 15.99612 0 1 0-22.6226 22.622599L500.496792 363.045309z" p-id="1838"></path><path d="M91.099989 575.216845l416.034572 144.021519a16.086429 16.086429 0 0 0 9.798611 0L932.900011 575.216845a15.99612 15.99612 0 0 0 0-30.47955L516.888017 400.76093a15.917098 15.917098 0 0 0-9.787322 0L91.099989 544.748583a16.007408 16.007408 0 0 0 0 30.468262z m420.888722-142.418521l363.722633 127.178746-363.688767 127.2239-363.74521-127.2239 363.711344-127.178746z" p-id="1839"></path><path d="M91.099989 735.223195l416.034572 144.021519c1.59171 0.507993 3.239863 0.745056 4.899305 0.745056s3.307596-0.237063 4.899306-0.745056L932.900011 735.223195a16.007408 16.007408 0 0 0 0-30.47955L854.601433 679.581083l-52.289362 16.797618 73.399273 23.59343-363.677478 127.2239-363.74521-127.2239 73.399273-23.59343-52.289362-16.820196L91.099989 704.754933a15.984831 15.984831 0 0 0 0 30.468262z" p-id="1840"></path></svg>