<?xml version="1.0" standalone="no"?><!DOCTYPE svg PUBLIC "-//W3C//DTD SVG 1.1//EN" "http://www.w3.org/Graphics/SVG/1.1/DTD/svg11.dtd"><svg t="1541485598237" class="icon" style="" viewBox="0 0 1024 1024" version="1.1" xmlns="http://www.w3.org/2000/svg" p-id="2136" xmlns:xlink="http://www.w3.org/1999/xlink" width="200" height="200"><defs><style type="text/css"></style></defs><path d="M573.313949 273.499048l310.496683 0 0 0c12.088316 0 23.077601 4.936429 31.329543 12.647041l0 0c7.693216 8.250918 12.627598 19.258623 12.627598 31.366382l0 0 0 78.117149 0 0c0 12.107759-4.934382 23.096021-12.627598 31.366382-8.251941 7.693216-19.241226 12.628622-31.329543 12.628622l-33.526581 0 0 460.474486 0 0c0 12.106736-4.936429 23.11444-12.648065 31.366382l0 0c-8.231475 7.691169-19.221784 12.646018-31.311123 12.646018l0 0L185.882036 944.111508l0 0c-12.088316 0-23.627117-4.955872-31.31931-12.646018-8.250918-8.251941-13.196557-19.259646-13.196557-31.366382L141.36617 439.625646l-32.967856 0c-12.637832 0-23.627117-4.935406-31.329543-13.187347-8.241708-7.711636-13.187347-18.700921-13.187347-30.807656l0-78.117149c0-12.107759 4.945639-23.11444 13.187347-31.366382l0 0c7.702426-7.710612 18.691711-12.647041 31.329543-12.647041l0 0 309.948191 0 0 0c7.141654 0 13.187347 2.738367 17.58347 7.15291l0 0c4.3951 4.3951 7.141654 11.007705 7.141654 17.600867 0 7.151887-2.746554 13.205766-7.141654 17.60189l0 0c-4.3951 4.414543-10.440793 7.15291-17.58347 7.15291L113.892445 323.008648 113.892445 390.118092l304.453037 0 0 0c7.141654 0 13.187347 2.756787 17.58347 7.151887l0 0c4.3951 4.396123 7.141654 10.467399 7.141654 17.621333 0 6.592139-2.746554 13.187347-7.141654 17.582447l0 0c-4.3951 4.414543-10.440793 7.151887-17.58347 7.151887L191.37719 439.625646l0 454.978309 609.454566 0L800.831756 439.625646 573.313949 439.625646c-6.594185 0-12.647041-2.737344-17.582447-7.151887l0 0c-4.396123-4.3951-7.151887-10.990309-7.151887-17.582447 0-7.15291 2.755764-13.225209 7.151887-17.621333l0 0c4.934382-4.3951 10.987239-7.151887 17.582447-7.151887l305.002552 0 0-67.110467L573.313949 323.007625l0 0c-6.594185 0-12.647041-2.737344-17.582447-7.15291l0 0c-4.396123-4.396123-7.151887-10.44898-7.151887-17.60189 0-6.593162 2.755764-13.205766 7.151887-17.600867l0 0C560.665885 276.238438 566.718741 273.499048 573.313949 273.499048L573.313949 273.499048zM362.289792 552.425711 362.289792 552.425711c4.3951-4.414543 10.438747-7.15291 17.582447-7.15291 3.297093 0 6.594185 0.540306 9.340739 1.639337l0 0c2.7486 1.657756 5.496178 3.298116 8.242731 5.514597l0 0 73.638137 73.702606L471.093846 104.057961c0-6.611581 2.7486-12.665461 7.151887-17.620309l0 0 0 0c4.3951-4.3951 10.990309-7.15291 17.582447-7.15291 7.133468 0 13.187347 2.756787 17.582447 7.15291 4.396123 4.954849 7.153934 11.007705 7.153934 17.620309l0 0 0 522.070356 74.186629-73.702606c2.198062-2.216481 4.935406-3.856841 8.233522-5.514597 2.755764-1.098008 6.053879-1.639337 9.350972-1.639337 6.592139 0 13.187347 2.738367 17.58347 7.15291 4.3951 4.3951 7.133468 10.988262 7.133468 17.600867 0 3.297093-0.540306 6.593162-1.639337 9.349949l0 0c-1.657756 3.298116-3.298116 6.053879-5.494131 8.250918l0 0L513.411651 704.245466l0 0c-2.196015 2.217505-4.934382 3.855818-7.691169 5.513574-3.297093 1.100054-6.594185 1.64036-9.892301 1.64036l0 0c-3.297093 0-6.592139-0.539282-9.340739-1.64036-3.297093-1.657756-6.043646-3.296069-8.241708-5.513574l0 0L362.289792 587.627445l0 0c-2.7486-2.197038-4.396123-4.953825-5.494131-8.250918-1.100054-2.755764-2.198062-6.052856-2.198062-9.349949C354.596576 563.413973 357.345176 556.820811 362.289792 552.425711L362.289792 552.425711z" p-id="2137"></path></svg>