<?xml version="1.0" standalone="no"?><!DOCTYPE svg PUBLIC "-//W3C//DTD SVG 1.1//EN" "http://www.w3.org/Graphics/SVG/1.1/DTD/svg11.dtd"><svg t="1543024265787" class="icon" style="" viewBox="0 0 1024 1024" version="1.1" xmlns="http://www.w3.org/2000/svg" p-id="12065" xmlns:xlink="http://www.w3.org/1999/xlink" width="200" height="200"><defs><style type="text/css"></style></defs><path d="M692.5 355.9h104.3c2 0 2-4.1 2-10.2v-20.5c0-6.1 0-10.2-2-10.2H645.5s45 40.9 47 40.9zM578 456.2h-32.7v38.9H578v-38.9z m126.8 186.2L670 683.3h126.8s2-4.1 2-10.2v-20.5c0-6.1 0-10.2-2-10.2h-92z m-396.9-133c0 118.7 96.2 214.8 214.8 214.8 118.7 0 214.8-96.2 214.8-214.8 0-118.7-96.2-214.8-214.8-214.8-118.6 0-214.8 96.1-214.8 214.8z m165.7-14.3h36.8v-40.9h-36.8v-32.7h36.8v-40.9h34.8v40.9H578v-40.9h34.8v40.9h32.7v32.7h-32.7V493h38.9v32.7h-38.9v65.5H578v-65.5h-36.8c-6.1 26.6-16.4 51.2-36.8 69.6-4.1-6.1-18.4-20.5-24.6-24.6 14.3-12.3 22.5-28.6 28.6-45h-32.7V495h-2.1z m-53.2-116.7c16.4 14.3 36.8 32.7 45 45L440.9 446c-8.2-12.3-28.6-34.8-43-49.1l22.5-18.5z m-28.6 131v-32.7h67.5V581c4.1 2 10.2 6.1 16.4 10.2 20.5 10.2 45 12.3 77.7 12.3 30.7 0 75.7-2 104.3-6.1-4.1 8.2-8.2 26.6-10.2 34.8-20.5 2-67.5 2-96.2 2-36.8 0-61.4-4.1-81.8-14.3-12.3-6.1-22.5-16.4-28.6-16.4-8.2 0-20.5 18.4-30.7 36.8l-22.5-32.7c12.3-14.3 26.6-24.6 38.9-30.7v-69.6h-34.8v2.1z m353.9-30.7s6.1 32.7 0 40.9h51.1v-40.9h-51.1z m-519.6 0s-2 4.1-2 10.2v20.5c0 6.1 0 10.2 2 10.2h71.6s-4.1-28.6 4.1-40.9h-75.7z m2-122.8h122.8C355 349.8 402 315 400 315H228.1c-2 0-2 4.1-2 10.2v20.5c0 6.1 0 10.2 2 10.2z m785.7 61.4c4.1 0 6.1 0 10.2 2V214.8C1024 147.2 968.8 92 901.2 92H123.8C56.2 92 1 147.2 1 214.8v206.6c4.1 0 6.1-2 10.2-2 51.1 0 92.1 40.9 92.1 92.1 0 51.1-40.9 92.1-92.1 92.1-4.1 0-6.1 0-10.2-2v186.2c0 67.5 55.2 122.8 122.8 122.8h777.5c67.5 0 122.8-55.2 122.8-122.8V603.5c-4.1 0-6.1 2-10.2 2-51.1 0-92.1-40.9-92.1-92.1-0.1-51.1 40.8-96.1 92-96.1z m-71.6-65.5c-59.3 26.6-102.3 88-102.3 157.5s43 130.9 102.3 157.5v159.6H82.8V666.9c59.3-26.6 102.3-88 102.3-157.5s-43-130.9-102.3-157.5V171.8h859.3v180zM228.1 683.3h145.3c2 0-34.8-40.9-34.8-40.9H228.1c-2 0-2 4.1-2 10.2v20.5c0 6.1 0 10.2 2 10.2z m0 0" fill="" p-id="12066"></path><path d="M342.6 511.6a182.1 176.8 0 1 0 364.2 0 182.1 176.8 0 1 0-364.2 0Z" fill="" p-id="12067"></path><path d="M459.3 409.7c0-21.7-0.6-40.3-2.5-47.2 12 1.9 19.2 2.5 30.5 2.2 7.2-0.3 8.8 2.5 2.2 6.3-3.1 1.9-4.4 8.2-4.4 23.3V590c0 14.2 1.3 39.3 3.1 56.6h-31.8c1.6-15.1 2.8-42.5 2.8-56.6v-31.2l-36.5 10.1c-6.9 1.9-17 6.6-23 11.3-3.1-8.2-7.6-17.3-12.9-26.1 9.4-5.4 12.6-13.2 12.6-21.1v-89.4c0-17.3-0.3-30.2-1.3-36.5 10.4 1.9 18.3 2.5 27.4 1.6 6.6-0.6 7.9 2.8 3.1 5.3-3.8 1.9-6 5.7-6 8.5v120.8l36.5-7.6v-126z m145.4 37.7h-56.6c-13.8 31.5-23 49.7-32.4 64.2-6.6-4.4-13.8-8.5-22-11.3 25.5-34.6 47.8-95.7 51.3-135.6 10.1 3.5 25.2 7.6 33.7 8.8 4.4 0.6 5.4 2.8 1.6 5.7-3.5 2.5-6 7.2-22.7 45.9h63.9c23 0 34-0.9 41.9-2.8v27.1c-7.6-1.3-15.7-1.9-32.1-1.9-5 65.8-21.1 105.7-36.5 126.2 19.2 17 43.7 29.3 73 35.6-10.4 9.8-17.3 21.4-19.5 32.7-29-13.5-50-29-70.2-49.7-17.9 20.8-37.5 36.2-65.8 50-3.1-7.2-11-15.4-20.5-21.4 25.8-8.2 50-26.1 69.6-46.6-15.7-21.1-23.9-47.8-28.6-88.1l21.1-6.6c2.2 30.2 10.4 55.7 23.6 74.9 15.3-23 24.4-61.1 27.2-107.1z" fill="#FFFFFF" p-id="12068"></path></svg>