<?xml version="1.0" standalone="no"?><!DOCTYPE svg PUBLIC "-//W3C//DTD SVG 1.1//EN" "http://www.w3.org/Graphics/SVG/1.1/DTD/svg11.dtd"><svg t="1555153487610" class="icon" style="" viewBox="0 0 1024 1024" version="1.1" xmlns="http://www.w3.org/2000/svg" p-id="1619" xmlns:xlink="http://www.w3.org/1999/xlink" width="200" height="200"><defs><style type="text/css"></style></defs><path d="M288 832H96c-19.2 0-32-12.8-32-32s12.8-32 32-32h160v-176l-179.2-118.4c-6.4-6.4-12.8-16-12.8-25.6V224c0-19.2 12.8-32 32-32h192c19.2 0 32 12.8 32 32s-12.8 32-32 32H128v176l179.2 118.4c6.4 6.4 12.8 16 12.8 25.6v224c0 19.2-12.8 32-32 32zM608 832h-192c-19.2 0-32-12.8-32-32V224c0-19.2 12.8-32 32-32h192c19.2 0 32 12.8 32 32v576c0 19.2-12.8 32-32 32z m-160-64h128V256h-128v512zM736 832c-19.2 0-32-12.8-32-32V224c0-19.2 12.8-32 32-32h192c19.2 0 32 12.8 32 32v288c0 19.2-12.8 32-32 32h-160v256c0 19.2-12.8 32-32 32z m32-352h128V256h-128v224z" p-id="1620"></path></svg>