<?xml version="1.0" standalone="no"?><!DOCTYPE svg PUBLIC "-//W3C//DTD SVG 1.1//EN" "http://www.w3.org/Graphics/SVG/1.1/DTD/svg11.dtd"><svg t="1542072234124" class="icon" style="" viewBox="0 0 1024 1024" version="1.1" xmlns="http://www.w3.org/2000/svg" p-id="1479" xmlns:xlink="http://www.w3.org/1999/xlink" width="200" height="200"><defs><style type="text/css"></style></defs><path d="M507.955379 499.638691l199.696763-232.975291-199.54317 232.796099zM197.185131 862.195448l310.923841-362.735949 0.767966-0.921559z" fill="#CCD6DD" p-id="1480"></path><path d="M716.790938 255.988673l-9.138796 10.674727-199.696763 232.975291L137.821357 935.305813l370.134022-435.667122L102.418124 972.756956l405.537255-473.118265 0.153593-0.179192-310.923841 362.735949 311.691807-363.657508 144.121623-169.618095-144.121623 169.618095 156.229887-182.263935-156.229887 182.263935-0.767966 0.921559 199.54317-232.796099L716.790938 255.988673V0H51.220389v1023.95469h921.559222V255.988673z" fill="#CCD6DD" p-id="1481"></path><path d="M507.955379 499.638691l199.696763-232.975291-199.54317 232.796099z" fill="#F8FCFF" p-id="1482"></path><path d="M102.418124 51.197735v921.559221l405.537255-473.118265 0.153593-0.179192-310.923841 362.735949 311.691807-363.657508 144.121623-169.618095-144.121623 169.618095 156.229887-182.263935-156.229887 182.263935-0.767966 0.921559 199.54317-232.796099L716.790938 255.988673V51.197735z" fill="#F8FCFF" p-id="1483"></path><path d="M197.185131 862.195448l310.923841-362.735949 0.767966-0.921559z" fill="#F8FCFF" p-id="1484"></path><path d="M716.790938 255.988673l-208.835559 243.650018L137.821357 935.305813l370.134022-435.667122L102.418124 972.756956h819.163752V255.988673z" fill="#E1E8ED" p-id="1485"></path><path d="M921.581876 204.790938l-153.593203-153.593203-51.197735-51.197735v255.988673h255.988673z" fill="#9AAAB4" p-id="1486"></path><path d="M363.424174 655.228606c-0.742367-0.716768-1.58713-1.35674-2.303898-2.099107a172.766755 172.766755 0 0 1-50.941745-122.951359c0-44.362837 16.664863-86.088991 46.794729-118.369163 1.382339-1.510333 2.662282-3.097463 4.121418-4.530999l0.025598-0.025599a172.715557 172.715557 0 0 1 122.925761-50.941746c41.188577 0 80.150053 14.284168 111.355073 40.420612l24.472517-28.798726a211.651434 211.651434 0 0 0-55.472746-33.355324 212.64979 212.64979 0 0 0-99.477198-15.256925l-24.472517 3.737435a210.678677 210.678677 0 0 0-105.748921 57.008677l-0.460779 0.409582c-2.687881 2.662282-5.042977 5.554954-7.526067 8.345231-74.825489 83.17072-72.495992 211.165056 7.526067 291.187115 0.742367 0.742367 1.561531 1.382339 2.329497 2.124706 3.046265 2.94387 6.399717 5.324564 9.573976 8.012445l24.395721-28.721929c-2.431892-2.047909-4.838186-3.993423-7.116486-6.194926z" fill="#8CC152" p-id="1487"></path><path d="M683.691603 460.34443a210.499485 210.499485 0 0 0-11.621886-27.56998 211.395446 211.395446 0 0 0-36.247996-49.94339c-0.742367-0.767966-1.305542-1.638328-2.047909-2.380695a205.814893 205.814893 0 0 0-13.900185-12.517846l-24.472517 28.798726c3.993423 3.327853 7.884451 6.809299 11.596286 10.521134 0.742367 0.742367 1.305542 1.612729 2.022311 2.380695a172.280377 172.280377 0 0 1 46.845927 94.946198v0.025599c1.228746 8.422027 2.073508 16.920851 2.073508 25.598867 0 39.652645-13.311411 77.257381-37.630335 107.848028a175.761823 175.761823 0 0 1-13.311411 15.077733l-0.051197 0.025599a174.0211 174.0211 0 0 1-71.600032 42.980498 173.483523 173.483523 0 0 1-51.274531 7.91005 172.280377 172.280377 0 0 1-113.556575-42.647713l-24.395721 28.721929c4.172615 3.532644 8.191638 7.321276 12.517846 10.495536a211.29305 211.29305 0 0 0 148.831814 39.831837 211.113858 211.113858 0 0 0 89.05846-31.000228c1.971113-1.228746 3.814231-2.687881 5.759745-4.019022a209.910711 209.910711 0 0 0 26.981206-21.323857c1.510333-1.407938 3.071864-2.687881 4.556598-4.147016 59.389372-59.389372 75.823845-145.247973 49.866594-219.612682z" fill="#7BAA3F" p-id="1488"></path><path d="M414.877898 505.32164l-21.451851 21.400653 49.25222 49.25222 0.23039 0.204791 19.711128-23.166975z" fill="#8CC152" p-id="1489"></path><path d="M475.598411 560.128814l-2.918271 2.94387-8.550022-8.550022-1.510333-1.510333-19.711128 23.166975 29.771483 29.771483 22.885387-22.910987 107.13126-107.156858-21.426252-21.451851z" fill="#7BAA3F" p-id="1490"></path><path d="M898.722088 944.342213c-22.194218-19.147953-61.795666-23.397365-91.003974-10.060355-30.693042 14.00258-41.444566 43.364481-21.272658 66.429061 21.784636 24.907698 68.784156 30.949031 101.653102 12.64584 31.051426-17.356032 34.430476-48.484255 10.62353-69.014546z" fill="#C18B10" p-id="1491"></path><path d="M898.722088 929.238881c-22.194218-19.147953-61.795666-23.397365-91.003974-10.060355-30.693042 14.00258-41.444566 43.364481-21.272658 66.429061 21.784636 24.907698 68.784156 30.949031 101.653102 12.64584 31.051426-17.356032 34.430476-48.484255 10.62353-69.014546z" fill="#F9C82D" p-id="1492"></path><path d="M898.722088 914.161148c-22.194218-19.147953-61.795666-23.397365-91.003974-10.060354-30.693042 14.00258-41.444566 43.364481-21.272658 66.42906 21.784636 24.907698 68.784156 30.949031 101.653102 12.64584 31.051426-17.356032 34.430476-48.484255 10.62353-69.014546z" fill="#C18B10" p-id="1493"></path><path d="M898.722088 900.465754c-22.194218-19.147953-61.795666-23.397365-91.003974-10.060354-30.693042 14.00258-41.444566 43.364481-21.272658 66.42906 21.784636 24.907698 68.784156 30.949031 101.653102 12.64584 31.051426-17.330433 34.430476-48.484255 10.62353-69.014546z" fill="#F9C82D" p-id="1494"></path><path d="M898.722088 885.388022c-22.194218-19.147953-61.795666-23.397365-91.003974-10.060355-30.693042 14.00258-41.444566 43.364481-21.272658 66.42906 21.784636 24.907698 68.784156 30.949031 101.653102 12.645841 31.051426-17.356032 34.430476-48.484255 10.62353-69.014546z" fill="#C18B10" p-id="1495"></path><path d="M898.722088 870.28469c-22.194218-19.147953-61.795666-23.397365-91.003974-10.060355-30.693042 14.00258-41.444566 43.364481-21.272658 66.429061 21.784636 24.907698 68.784156 30.949031 101.653102 12.64584 31.051426-17.330433 34.430476-48.484255 10.62353-69.014546z" fill="#F9C82D" p-id="1496"></path><path d="M898.722088 855.206957c-22.194218-19.147953-61.795666-23.397365-91.003974-10.060355-30.693042 14.00258-41.444566 43.364481-21.272658 66.429061 21.784636 24.907698 68.784156 30.949031 101.653102 12.64584 31.051426-17.356032 34.430476-48.484255 10.62353-69.014546z" fill="#C18B10" p-id="1497"></path><path d="M898.722088 841.511563c-22.194218-19.147953-61.795666-23.397365-91.003974-10.060355-30.693042 14.00258-41.444566 43.364481-21.272658 66.429061 21.784636 24.907698 68.784156 30.949031 101.653102 12.64584 31.051426-17.330433 34.430476-48.458656 10.62353-69.014546z" fill="#F9C82D" p-id="1498"></path><path d="M898.722088 826.43383c-22.194218-19.147953-61.795666-23.397365-91.003974-10.060355-30.693042 14.00258-41.444566 43.364481-21.272658 66.429061 21.784636 24.907698 68.784156 30.949031 101.653102 12.64584 31.051426-17.356032 34.430476-48.484255 10.62353-69.014546z" fill="#C18B10" p-id="1499"></path><path d="M898.722088 811.330499c-22.194218-19.147953-61.795666-23.397365-91.003974-10.060355-30.693042 14.00258-41.444566 43.364481-21.272658 66.42906 21.784636 24.907698 68.784156 30.949031 101.653102 12.645841 31.051426-17.330433 34.430476-48.458656 10.62353-69.014546z" fill="#F9C82D" p-id="1500"></path><path d="M898.722088 796.252766c-22.194218-19.147953-61.795666-23.397365-91.003974-10.060355-30.693042 14.00258-41.444566 43.364481-21.272658 66.42906 21.784636 24.907698 68.784156 30.949031 101.653102 12.645841 31.051426-17.356032 34.430476-48.484255 10.62353-69.014546z" fill="#C18B10" p-id="1501"></path><path d="M898.722088 782.582971c-22.194218-19.147953-61.795666-23.397365-91.003974-10.060355-30.693042 14.00258-41.444566 43.364481-21.272658 66.42906 21.784636 24.907698 68.784156 30.949031 101.653102 12.645841 31.051426-17.356032 34.430476-48.484255 10.62353-69.014546z" fill="#F9C82D" p-id="1502"></path><path d="M898.722088 767.479639c-22.194218-19.147953-61.795666-23.397365-91.003974-10.060355-30.693042 14.00258-41.444566 43.364481-21.272658 66.429061 21.784636 24.907698 68.784156 30.949031 101.653102 12.64584 31.051426-17.356032 34.430476-48.484255 10.62353-69.014546z" fill="#C18B10" p-id="1503"></path><path d="M898.722088 752.401906c-22.194218-19.147953-61.795666-23.397365-91.003974-10.060355-30.693042 14.00258-41.444566 43.364481-21.272658 66.429061 21.784636 24.907698 68.784156 30.949031 101.653102 12.64584 31.051426-17.356032 34.430476-48.484255 10.62353-69.014546z" fill="#F9C82D" p-id="1504"></path><path d="M898.722088 737.298575c-22.194218-19.147953-61.795666-23.397365-91.003974-10.060355-30.693042 14.00258-41.444566 43.364481-21.272658 66.42906 21.784636 24.907698 68.784156 30.949031 101.653102 12.645841 31.051426-17.356032 34.430476-48.484255 10.62353-69.014546z" fill="#C18B10" p-id="1505"></path><path d="M898.722088 722.220842c-22.194218-19.147953-61.795666-23.397365-91.003974-10.060355-30.693042 14.00258-41.444566 43.364481-21.272658 66.42906 21.784636 24.907698 68.784156 30.949031 101.653102 12.645841 31.051426-17.356032 34.430476-48.484255 10.62353-69.014546z" fill="#F9C82D" p-id="1506"></path><path d="M898.722088 707.11751c-22.194218-19.147953-61.795666-23.397365-91.003974-10.060355-30.693042 14.00258-41.444566 43.364481-21.272658 66.429061 21.784636 24.907698 68.784156 30.949031 101.653102 12.64584 31.051426-17.356032 34.430476-48.484255 10.62353-69.014546z" fill="#C18B10" p-id="1507"></path><path d="M898.722088 691.399806c-22.194218-19.147953-61.795666-23.397365-91.003974-10.060355-30.693042 14.00258-41.444566 43.364481-21.272658 66.403461 21.759037 24.907698 68.784156 30.949031 101.653102 12.645841 31.051426-17.304834 34.430476-48.458656 10.62353-68.988947z" fill="#F9C82D" p-id="1508"></path><path d="M888.584936 696.49398c18.866365 16.664863 15.538512 41.521363-9.394784 55.114361-26.059647 14.23297-63.126807 9.548377-80.68763-9.906761-16.511269-18.30319-8.447626-42.007741 16.255281-53.476034 23.704551-11.007513 56.010322-7.474869 73.827133 8.268434z" fill="#E8B321" p-id="1509"></path><path d="M850.31463 731.538829l-11.621886 5.990135a5.119773 5.119773 0 0 1-3.481446 0.307187 7.44927 7.44927 0 0 1-2.995068-1.459136 2.995067 2.995067 0 0 1-0.66557-2.329497c0.127994-0.767966 0.716768-1.459135 1.766322-2.073508l11.570688-5.887739-2.662282-2.636684-11.596287 5.785344a5.862141 5.862141 0 0 1-3.302254 0.46078 6.015734 6.015734 0 0 1-2.841474-1.305542c-0.563175-0.767966-0.767966-1.535932-0.614373-2.278299 0.153593-0.742367 0.742367-1.407938 1.766322-1.996712l8.601219-4.30061-17.509625-5.759745a12.287456 12.287456 0 0 1-2.329497-0.691169 5.247768 5.247768 0 0 1-2.073508-1.407938 3.353452 3.353452 0 0 1-0.588774-2.406294c0.127994-0.742367 0.947158-1.58713 2.431892-2.48309a7.756457 7.756457 0 0 1 3.17426-0.563175 15.8201 15.8201 0 0 1 3.071864 0.358384l20.120709 6.7837-1.740723-15.768902c0-0.665571 0.179192-1.331141 0.563175-1.996712a4.940581 4.940581 0 0 1 1.791921-1.766322 12.389852 12.389852 0 0 1 1.715124-0.588773 5.119773 5.119773 0 0 1 3.327853 0.127994 8.191638 8.191638 0 0 1 1.894316 1.023955 3.225457 3.225457 0 0 1 1.100751 2.636683l1.535932 14.258569 8.422028-4.198214a5.734146 5.734146 0 0 1 5.810943 0.716768 2.867073 2.867073 0 0 1 0.870361 2.2527c-0.076797 0.767966-0.588774 1.433537-1.510333 1.996712l-10.981914 5.606152 2.611084 2.508689 11.08431-5.631751a5.529355 5.529355 0 0 1 3.199858-0.383983c1.100751 0.204791 2.047909 0.614373 2.841475 1.254345 0.691169 0.742367 0.998356 1.510333 0.921559 2.278299-0.051198 0.767966-0.563175 1.459135-1.484735 2.02231l-11.186705 5.708548 4.658994 4.5054c2.355096 2.534288 1.791921 4.710192-1.715124 6.55331a9.445982 9.445982 0 0 1-5.017378 1.228746 7.193282 7.193282 0 0 1-4.403005-1.971113l-4.530999-4.479802z" fill="#C18B10" p-id="1510"></path><path d="M713.1303 944.342213c-22.194218-19.147953-61.795666-23.397365-91.003973-10.060355-30.693042 14.00258-41.444566 43.364481-21.272659 66.429061 21.784636 24.907698 68.784156 30.949031 101.653102 12.64584 31.051426-17.356032 34.430476-48.484255 10.62353-69.014546z" fill="#C18B10" p-id="1511"></path><path d="M713.1303 929.238881c-22.194218-19.147953-61.795666-23.397365-91.003973-10.060355-30.693042 14.00258-41.444566 43.364481-21.272659 66.429061 21.784636 24.907698 68.784156 30.949031 101.653102 12.64584 31.051426-17.356032 34.430476-48.484255 10.62353-69.014546z" fill="#F9C82D" p-id="1512"></path><path d="M713.1303 914.161148c-22.194218-19.147953-61.795666-23.397365-91.003973-10.060354-30.693042 14.00258-41.444566 43.364481-21.272659 66.42906 21.784636 24.907698 68.784156 30.949031 101.653102 12.64584 31.051426-17.356032 34.430476-48.484255 10.62353-69.014546z" fill="#C18B10" p-id="1513"></path><path d="M713.1303 900.465754c-22.194218-19.147953-61.795666-23.397365-91.003973-10.060354-30.693042 14.00258-41.444566 43.364481-21.272659 66.42906 21.784636 24.907698 68.784156 30.949031 101.653102 12.64584 31.051426-17.330433 34.430476-48.484255 10.62353-69.014546z" fill="#F9C82D" p-id="1514"></path><path d="M713.1303 885.388022c-22.194218-19.147953-61.795666-23.397365-91.003973-10.060355-30.693042 14.00258-41.444566 43.364481-21.272659 66.42906 21.784636 24.907698 68.784156 30.949031 101.653102 12.645841 31.051426-17.356032 34.430476-48.484255 10.62353-69.014546z" fill="#C18B10" p-id="1515"></path><path d="M713.1303 870.28469c-22.194218-19.147953-61.795666-23.397365-91.003973-10.060355-30.693042 14.00258-41.444566 43.364481-21.272659 66.429061 21.784636 24.907698 68.784156 30.949031 101.653102 12.64584 31.051426-17.330433 34.430476-48.484255 10.62353-69.014546z" fill="#F9C82D" p-id="1516"></path><path d="M713.1303 855.206957c-22.194218-19.147953-61.795666-23.397365-91.003973-10.060355-30.693042 14.00258-41.444566 43.364481-21.272659 66.429061 21.784636 24.907698 68.784156 30.949031 101.653102 12.64584 31.051426-17.356032 34.430476-48.484255 10.62353-69.014546z" fill="#C18B10" p-id="1517"></path><path d="M713.1303 840.103625c-22.194218-19.147953-61.795666-23.397365-91.003973-10.060354-30.693042 14.00258-41.444566 43.364481-21.272659 66.42906 21.784636 24.907698 68.784156 30.949031 101.653102 12.645841 31.051426-17.330433 34.430476-48.484255 10.62353-69.014547z" fill="#F9C82D" p-id="1518"></path><path d="M713.1303 825.025893c-22.194218-19.147953-61.795666-23.397365-91.003973-10.060355-30.693042 14.00258-41.444566 43.364481-21.272659 66.42906 21.784636 24.907698 68.784156 30.949031 101.653102 12.645841 31.051426-17.356032 34.430476-48.484255 10.62353-69.014546z" fill="#C18B10" p-id="1519"></path><path d="M713.1303 809.308188c-22.194218-19.147953-61.795666-23.397365-91.003973-10.060355-30.693042 14.00258-41.444566 43.364481-21.272659 66.403462 21.759037 24.907698 68.784156 30.949031 101.653102 12.64584 31.051426-17.330433 34.430476-48.458656 10.62353-68.988947z" fill="#F9C82D" p-id="1520"></path><path d="M702.993149 814.402363c18.866365 16.664863 15.538512 41.521363-9.394785 55.114361-26.059647 14.23297-63.126807 9.548377-80.687629-9.906762-16.511269-18.30319-8.447626-42.007741 16.25528-53.476033 23.704551-11.007513 56.010322-7.500468 73.827134 8.268434z" fill="#E8B321" p-id="1521"></path><path d="M664.722842 849.421613l-11.621886 5.990135a5.119773 5.119773 0 0 1-3.481446 0.307186 7.44927 7.44927 0 0 1-2.995067-1.459135 2.995067 2.995067 0 0 1-0.665571-2.329497c0.127994-0.767966 0.716768-1.459135 1.766322-2.073508l11.570688-5.88774-2.662282-2.662282-11.596287 5.785344a5.862141 5.862141 0 0 1-3.302254 0.46078 6.015734 6.015734 0 0 1-2.841474-1.305542c-0.563175-0.767966-0.767966-1.535932-0.614373-2.2783 0.153593-0.742367 0.742367-1.407938 1.766322-1.996711l8.601219-4.30061-17.509625-5.759745a12.287456 12.287456 0 0 1-2.329497-0.69117 5.247768 5.247768 0 0 1-2.073508-1.407937 3.353452 3.353452 0 0 1-0.588774-2.406294c0.127994-0.742367 0.947158-1.58713 2.431892-2.48309a7.756457 7.756457 0 0 1 3.17426-0.563175 15.8201 15.8201 0 0 1 3.071864 0.358384l20.12071 6.7837-1.740723-15.768902c0-0.665571 0.179192-1.331141 0.563175-1.996712a4.940581 4.940581 0 0 1 1.791921-1.766322 12.389852 12.389852 0 0 1 1.715124-0.588774 5.119773 5.119773 0 0 1 3.327852 0.127995 8.191638 8.191638 0 0 1 1.894317 1.023954 3.225457 3.225457 0 0 1 1.100751 2.636684l1.535932 14.258569 8.422027-4.198214a5.734146 5.734146 0 0 1 5.810943 0.716768 2.867073 2.867073 0 0 1 0.870362 2.2527c-0.076797 0.767966-0.588774 1.433537-1.510334 1.996712l-10.981914 5.606152 2.611085 2.508689 11.084309-5.631751a5.529355 5.529355 0 0 1 3.199859-0.383983c1.100751 0.204791 2.047909 0.614373 2.841474 1.254344 0.691169 0.742367 0.998356 1.510333 0.921559 2.2783-0.051198 0.767966-0.563175 1.459135-1.484734 2.02231l-11.186705 5.708547 4.658994 4.505401c2.355096 2.534288 1.791921 4.710192-1.715124 6.55331a9.445982 9.445982 0 0 1-5.017378 1.228746 7.193282 7.193282 0 0 1-4.403005-1.971113l-4.531-4.454203z" fill="#C18B10" p-id="1522"></path><path d="M522.751524 944.342213c-22.194218-19.147953-61.795666-23.397365-91.003973-10.060355-30.693042 14.00258-41.444566 43.364481-21.272659 66.429061 21.784636 24.907698 68.784156 30.949031 101.653102 12.64584 31.025827-17.356032 34.404878-48.484255 10.62353-69.014546z" fill="#C18B10" p-id="1523"></path><path d="M522.751524 928.624508c-22.194218-19.147953-61.795666-23.397365-91.003973-10.060354-30.693042 14.00258-41.444566 43.364481-21.272659 66.403461 21.759037 24.907698 68.784156 30.949031 101.653102 12.645841 31.025827-17.330433 34.404878-48.458656 10.62353-68.988948z" fill="#F9C82D" p-id="1524"></path><path d="M512.588774 933.718683c18.866365 16.664863 15.538512 41.521363-9.394784 55.114361-26.059647 14.23297-63.126807 9.548377-80.68763-9.906761-16.511269-18.30319-8.447626-42.007741 16.255281-53.476034 23.704551-11.033112 56.010322-7.500468 73.827133 8.268434z" fill="#E8B321" p-id="1525"></path><path d="M474.344066 968.737933l-11.621885 5.990135a5.119773 5.119773 0 0 1-3.481446 0.307187 7.44927 7.44927 0 0 1-2.995068-1.459136 2.995067 2.995067 0 0 1-0.66557-2.329497c0.127994-0.767966 0.716768-1.459135 1.766321-2.073508l11.570688-5.887739-2.662282-2.662283-11.596287 5.785344a5.862141 5.862141 0 0 1-3.302254 0.46078 6.015734 6.015734 0 0 1-2.841474-1.305542c-0.563175-0.767966-0.767966-1.535932-0.614373-2.278299 0.153593-0.742367 0.742367-1.407938 1.766322-1.996712l8.60122-4.30061-17.509626-5.759745a12.287456 12.287456 0 0 1-2.329496-0.691169 5.247768 5.247768 0 0 1-2.073509-1.407938 3.353452 3.353452 0 0 1-0.588774-2.406293c0.127994-0.742367 0.947158-1.58713 2.431893-2.483091a7.756457 7.756457 0 0 1 3.174259-0.563175 15.8201 15.8201 0 0 1 3.071864 0.358384l20.12071 6.7837-1.740723-15.768902c0-0.665571 0.179192-1.331141 0.563175-1.996712a4.940581 4.940581 0 0 1 1.791921-1.766321 12.389852 12.389852 0 0 1 1.715124-0.588774 5.119773 5.119773 0 0 1 3.327853 0.127994 8.191638 8.191638 0 0 1 1.894316 1.023955 3.225457 3.225457 0 0 1 1.100751 2.636683l1.535932 14.258569 8.422027-4.198214a5.734146 5.734146 0 0 1 5.810943 0.716768 2.867073 2.867073 0 0 1 0.870362 2.2527c-0.076797 0.767966-0.588774 1.433537-1.510333 1.996712l-10.981914 5.606152 2.611084 2.508689 11.08431-5.631751a5.529355 5.529355 0 0 1 3.199858-0.383983c1.100751 0.204791 2.047909 0.614373 2.841474 1.254345 0.691169 0.742367 0.998356 1.510333 0.921559 2.278299-0.051198 0.767966-0.563175 1.459135-1.484734 2.02231l-11.186705 5.708548 4.658994 4.5054c2.355096 2.534288 1.791921 4.710192-1.715124 6.55331a9.445982 9.445982 0 0 1-5.017378 1.228746 7.193282 7.193282 0 0 1-4.403005-1.971113l-4.531-4.454203z" fill="#C18B10" p-id="1526"></path></svg>