<?xml version="1.0" standalone="no"?><!DOCTYPE svg PUBLIC "-//W3C//DTD SVG 1.1//EN" "http://www.w3.org/Graphics/SVG/1.1/DTD/svg11.dtd"><svg t="1554193000779" class="icon" style="" viewBox="0 0 1024 1024" version="1.1" xmlns="http://www.w3.org/2000/svg" p-id="83739" xmlns:xlink="http://www.w3.org/1999/xlink" width="200" height="200"><defs><style type="text/css"></style></defs><path d="M752.8 304h112c18.4 0 33.6-16 32-35.2-1.6-16.8-16.8-28.8-33.6-28.8H784v-78.4c0-16.8-12-32-28.8-33.6-19.2-1.6-35.2 12.8-35.2 32v112c-0.8 17.6 14.4 32 32.8 32z" p-id="83740" fill="#ffffff"></path><path d="M768.8 512c141.6 0 256-114.4 256-256s-114.4-256-256-256-256 114.4-256 256 114.4 256 256 256z m0-448c106.4 0 192 85.6 192 192s-85.6 192-192 192-192-85.6-192-192 85.6-192 192-192z" p-id="83741" fill="#ffffff"></path><path d="M959.2 640V512c-16 14.4-40 27.2-64 37.6V640H636c-15.2 0-27.2 10.4-31.2 24.8-11.2 40.8-48 71.2-92.8 71.2s-81.6-30.4-92.8-71.2c-4-14.4-16-24.8-31.2-24.8H255.2V192h199.2c4.8-22.4 11.2-44 20-64H256.8c-35.2 0-64 28.8-64 64h-64C93.6 192 64 220.8 64 256v384.8c-32 0-64 28-64 63.2v256c0 35.2 29.6 64 64.8 64h896c35.2 0 63.2-28.8 63.2-64V704c-0.8-35.2-24.8-64-64.8-64z m-832-384h64v384h-64V256z m832 704H63.2V704H365.6c24.8 56.8 80.8 96 146.4 96 65.6 0 121.6-39.2 146.4-96h300.8v256z" p-id="83742" fill="#ffffff"></path><path d="M352.8 512c-17.6 0-32 14.4-32 32s14.4 32 32 32h416c-72 0-138.4-24-192-64h-224zM352.8 320h102.4c-4-20.8-6.4-42.4-6.4-64h-96c-17.6 0-32 14.4-32 32s13.6 32 32 32zM352.8 384c-17.6 0-32 14.4-32 32s14.4 32 32 32h160c-14.4-20-27.2-40.8-37.6-64H352.8z" p-id="83743" fill="#ffffff"></path></svg>