<?xml version="1.0" standalone="no"?><!DOCTYPE svg PUBLIC "-//W3C//DTD SVG 1.1//EN" "http://www.w3.org/Graphics/SVG/1.1/DTD/svg11.dtd"><svg t="1554193889331" class="icon" style="" viewBox="0 0 1024 1024" version="1.1" xmlns="http://www.w3.org/2000/svg" p-id="102367" xmlns:xlink="http://www.w3.org/1999/xlink" width="200" height="200"><defs><style type="text/css"></style></defs><path d="M512 556.7c137 0 248.1-110.3 248.1-246.3C760.1 174.3 649 64 512 64S263.9 174.3 263.9 310.4c0 136 111.1 246.3 248.1 246.3zM700.8 584.3c-25.1-7.4-51.2-11-77.4-11h-40.7c-4 0.8-2.7 3-2 3.7 4.3 3.2 6.4 8.5 5 13.6 0 0.1-0.1 0.2-0.1 0.3-0.1 0.4-0.3 0.8-0.4 1.1l-25.8 61.3c-1.2 2.8-1.3 5.9-0.4 8.8l41.2 132.1c1.5 5.6 0 9.8-4.4 14.1l-73.4 70.4c-2.9 2.8-7.3 4.2-10.3 4.2-2.9 0-7.3-1.4-10.3-4.2l-73.4-70.4c-4.4-4.2-5.9-8.4-4.4-14.1l41.2-132.1c0.9-2.8 0.8-5.9-0.4-8.7l-23.8-58-1.5-3.3c-2.2-4.3-0.7-10.6 2-13.2 0.6-0.6 1.2-1.1 1.9-1.6 0.1-0.1 3-3-1.8-4h-65.3c-20.6 0-41.1 2.2-61.1 6.8-117.7 27.4-197.3 120-200.2 228.4v61.8c0 23.8 10.5 46.6 29.1 63.4 18.6 16.8 43.9 26.2 70.2 26.2h595.5c26.3 0 51.6-9.4 70.2-26.2 18.6-16.8 29.1-39.6 29.1-63.4V803c-0.1-94.5-74.2-179.3-208.3-218.7z" p-id="102368" fill="#ffffff"></path></svg>