<?xml version="1.0" standalone="no"?><!DOCTYPE svg PUBLIC "-//W3C//DTD SVG 1.1//EN" "http://www.w3.org/Graphics/SVG/1.1/DTD/svg11.dtd"><svg t="1554047940973" class="icon" style="" viewBox="0 0 1024 1024" version="1.1" xmlns="http://www.w3.org/2000/svg" p-id="1802" xmlns:xlink="http://www.w3.org/1999/xlink" width="200" height="200"><defs><style type="text/css"></style></defs><path d="M509.866667 652.8c-2.133333-4.266667-6.4-8.533333-10.666667-8.533333l0-2.133333c-2.133333 0-2.133333 0-4.266667 0l-85.333333-23.466667 0 0c-4.266667-2.133333-10.666667 0-17.066667 2.133333-10.666667 6.4-12.8 19.2-8.533333 29.866667 2.133333 4.266667 8.533333 8.533333 12.8 10.666667l32 8.533333C403.2 693.333333 384 727.466667 384 768c0 53.333333 32 98.133333 78.933333 117.333333l10.666667-42.666667c-27.733333-14.933333-46.933333-42.666667-46.933333-76.8 0-27.733333 12.8-51.2 34.133333-66.133333L448 744.533333c-2.133333 4.266667 0 10.666667 2.133333 17.066667 6.4 10.666667 19.2 12.8 29.866667 8.533333 4.266667-2.133333 8.533333-8.533333 10.666667-12.8l23.466667-87.466667C514.133333 663.466667 514.133333 657.066667 509.866667 652.8zM853.333333 379.733333c0-6.4 0-10.666667 0-17.066667 0-140.8-115.2-256-256-256-98.133333 0-183.466667 55.466667-226.133333 136.533333C354.133333 238.933333 337.066667 234.666667 320 234.666667c-83.2 0-149.333333 66.133333-149.333333 149.333333 0 10.666667 2.133333 21.333333 4.266667 32C98.133333 441.6 42.666667 512 42.666667 597.333333c0 106.666667 85.333333 192 192 192l85.333333 0c12.8 0 21.333333-8.533333 21.333333-21.333333s-8.533333-21.333333-21.333333-21.333333l-85.333333 0c-83.2 0-149.333333-66.133333-149.333333-149.333333 0-64 40.533333-121.6 102.4-140.8l36.266667-12.8L215.466667 405.333333C213.333333 398.933333 213.333333 390.4 213.333333 384c0-59.733333 46.933333-106.666667 106.666667-106.666667 12.8 0 23.466667 2.133333 36.266667 6.4l34.133333 12.8 17.066667-32C445.866667 194.133333 518.4 149.333333 597.333333 149.333333c117.333333 0 213.333333 96 213.333333 213.333333 0 4.266667 0 6.4 0 10.666667l0 4.266667-2.133333 29.866667 27.733333 12.8c61.866667 27.733333 102.4 89.6 102.4 155.733333 0 93.866667-76.8 170.666667-170.666667 170.666667l-64 0c-12.8 0-21.333333 8.533333-21.333333 21.333333s8.533333 21.333333 21.333333 21.333333l64 0c117.333333 0 213.333333-96 213.333333-213.333333C981.333333 488.533333 928 413.866667 853.333333 379.733333zM625.066667 876.8l-34.133333-8.533333c29.866667-23.466667 49.066667-57.6 49.066667-98.133333 0-53.333333-32-98.133333-76.8-117.333333l-10.666667 42.666667c27.733333 14.933333 46.933333 42.666667 46.933333 74.666667 0 27.733333-12.8 49.066667-32 66.133333l10.666667-42.666667c2.133333-4.266667 0-10.666667-2.133333-17.066667-6.4-10.666667-19.2-12.8-29.866667-8.533333-4.266667 2.133333-8.533333 8.533333-10.666667 12.8L512 868.266667c-2.133333 4.266667 0 10.666667 2.133333 17.066667 2.133333 4.266667 6.4 8.533333 12.8 8.533333l0 2.133333c0 0 2.133333 0 2.133333 0l87.466667 23.466667c4.266667 2.133333 10.666667 0 17.066667-2.133333 10.666667-6.4 12.8-19.2 8.533333-29.866667C635.733333 881.066667 631.466667 876.8 625.066667 876.8z" p-id="1803" fill="#b74f42"></path></svg>