<?xml version="1.0" standalone="no"?><!DOCTYPE svg PUBLIC "-//W3C//DTD SVG 1.1//EN" "http://www.w3.org/Graphics/SVG/1.1/DTD/svg11.dtd"><svg t="1548300036264" class="icon" style="" viewBox="0 0 1024 1024" version="1.1" xmlns="http://www.w3.org/2000/svg" p-id="5096" xmlns:xlink="http://www.w3.org/1999/xlink" width="200" height="200"><defs><style type="text/css"></style></defs><path d="M902.265103 170.501102L516.831467 27.272952c-2.799541-1.083693-5.870006-1.083693-8.669548 0L122.728283 170.501102c-4.876621 1.806156-8.127701 6.502161-8.127701 11.740013v415.686745c0 253.04242 377.576859 393.109798 393.651645 398.979804 2.709234 0.993386 5.779698 0.993386 8.488932 0 16.074786-5.870006 393.651645-145.937384 393.651645-398.979804V182.241115c0-5.237852-3.25108-9.933857-8.127701-11.740013zM825.684099 582.485228c0 177.906341-257.015963 290.339536-308.581709 311.020019-2.980157 1.174001-6.321545 1.174001-9.301702 0C456.234941 872.824764 199.218979 760.391569 199.218979 582.485228V249.249493c0-5.237852 3.25108-9.933857 8.127701-11.740012l300.724931-111.801041c2.799541-1.083693 5.870006-1.083693 8.669548 0l300.724931 111.801041c4.876621 1.806156 8.127701 6.502161 8.127701 11.740012v333.235735zM602.714172 337.11897c17.068172 14.088015 34.497575 30.343417 52.197901 48.585589 4.966928 5.057236 13.094629 5.057236 17.97125-0.090307 6.682776-7.044007 14.178323-14.720169 22.576947-23.209102 4.966928-5.057236 4.786313-13.184937-0.451539-17.971249-18.151865-16.526325-37.116501-32.420496-57.074522-47.682512-5.057236-3.883235-12.281859-3.341388-16.70694 1.354617l-19.687098 20.770791c-4.966928 5.237852-4.425082 13.636476 1.174001 18.242173z m119.386895 277.335215c-9.843549-4.876621-19.506482-10.295088-29.079107-16.255402-7.585854-4.696005-17.610019-0.090308-18.874328 8.759855-1.535232 9.933857-3.341388 19.867713-5.508775 29.620955-3.612311 16.255402-6.502161 26.008643-8.759855 29.169415-2.257695 3.160773-4.786313 4.786313-7.495547 4.786313-8.759855 0-20.228944-13.636476-34.407267-40.999736-13.365553-25.737719-25.28618-72.697769-35.581268-140.880148-1.083693-6.9537 3.792927-13.365553 10.746627-14.26863l116.226122-15.262016c6.682776-0.903078 11.469089-6.863392 10.836935-13.546169l-2.980157-32.149572c-0.632155-7.044007-6.9537-12.101243-13.997707-11.288473l-115.864892 14.539554c-7.044007 0.903078-13.45586-4.334774-13.997707-11.469089-2.43831-32.149572-3.792927-66.014993-4.154158-101.596261-0.090308-6.863392-5.599083-12.372167-12.462474-12.372167h-35.490961c-7.044007 0-12.733398 5.870006-12.462474 12.914014 1.264309 38.922656 3.160773 75.49731 5.870006 109.543346 0.541847 6.682776-4.244466 12.552782-10.927243 13.365552l-77.032542 9.482318 5.508775 45.786048c0.81277 6.863392 7.134315 11.83032 13.997707 10.927242l63.034835-8.127701c6.863392-0.903078 13.094629 3.973543 13.997708 10.836935C543.652879 656.808537 588.355234 737.272775 657.440691 737.272775c22.125408 0 38.38081-10.295088 48.58559-30.975571 9.39201-18.874328 16.977864-45.063586 22.84787-78.567775 0.903078-5.418467-1.806156-10.836934-6.773084-13.275244zM438.805538 302.531087l-35.671576-11.740012c-6.592468-2.167387-13.546168 1.444925-15.803862 7.947085-22.757562 68.362995-52.64944 128.507981-89.495018 180.434959-2.077079 2.889849-2.799541 6.502161-2.077079 9.933857 3.702619 17.339095 7.044007 34.226651 9.933857 50.662669 1.896464 10.746627 15.713555 14.088015 22.306023 5.328159 0.993386-1.354617 2.077079-2.799541 3.070465-4.154158 7.134315-9.662933 22.486639-4.605697 22.486639 7.405238v173.752183c0 6.863392 5.599083 12.462475 12.462475 12.462475H398.257342c6.863392 0 12.462475-5.599083 12.462475-12.462475V410.268278c0-1.806156 0.361231-3.612311 1.174001-5.237852 13.094629-27.995414 24.654026-56.893906 34.67819-86.695476 2.348002-6.592468-1.174001-13.636476-7.76647-15.803863z" p-id="5097"></path></svg>