<?xml version="1.0" standalone="no"?><!DOCTYPE svg PUBLIC "-//W3C//DTD SVG 1.1//EN" "http://www.w3.org/Graphics/SVG/1.1/DTD/svg11.dtd"><svg t="1554686923890" class="icon" style="" viewBox="0 0 1024 1024" version="1.1" xmlns="http://www.w3.org/2000/svg" p-id="1259" xmlns:xlink="http://www.w3.org/1999/xlink" width="200" height="200"><defs><style type="text/css"></style></defs><path d="M511.8 941.5c-58 0-114.4-11.4-167.4-33.8-51.2-21.7-97.2-52.7-136.7-92.1s-70.5-85.5-92.1-136.7c-22.4-53-33.8-109.3-33.8-167.4s11.4-114.4 33.8-167.4c21.7-51.2 52.7-97.2 92.1-136.7 39.5-39.5 85.5-70.5 136.7-92.1 53-22.4 109.3-33.8 167.4-33.8 58 0 114.4 11.4 167.4 33.8 51.2 21.7 97.2 52.7 136.7 92.1 39.5 39.5 70.5 85.5 92.1 136.7 22.4 53 33.8 109.3 33.8 167.4S930.5 625.8 908 678.8c-21.7 51.2-52.7 97.2-92.1 136.7s-85.5 70.5-136.7 92.1c-53 22.5-109.3 33.9-167.4 33.9z m0-810c-51.3 0-101.1 10-147.9 29.9-45.2 19.1-85.9 46.5-120.8 81.4-34.9 34.9-62.3 75.5-81.4 120.8-19.8 46.8-29.9 96.6-29.9 147.9 0 51.3 10 101.1 29.9 147.9 19.1 45.2 46.5 85.9 81.4 120.8 34.9 34.9 75.5 62.3 120.8 81.4 46.8 19.8 96.6 29.9 147.9 29.9s101.1-10 147.9-29.9c45.2-19.1 85.9-46.5 120.8-81.4 34.9-34.9 62.3-75.5 81.4-120.8 19.8-46.8 29.9-96.6 29.9-147.9 0-51.3-10-101.1-29.9-147.9-19.1-45.2-46.5-85.9-81.4-120.8-34.9-34.9-75.5-62.3-120.8-81.4-46.8-19.9-96.6-29.9-147.9-29.9z" fill="" p-id="1260"></path><path d="M418.6 424.5v197.3c0 21.8 0.5 44 1.6 66.8h-32.6c1-22.8 1.6-45.1 1.6-66.8V480.4c-15.5 24.9-28.5 43.5-38.8 55.9-6.2-8.3-14-16-23.3-23.3 16.6-15.5 33.6-40.4 51.3-74.6 17.6-34.2 30.5-70.9 38.8-110.3 15.5 7.3 27.4 11.9 35.7 14-6.3 10.4-17.7 37.8-34.3 82.4z m90.1-90.2c6.2 1 18.1 2.6 35.7 4.7-2.1 12.4-0.5 53.4 4.7 122.7 49.7-9.3 88-18.1 115-26.4l7.8 29.5c-11.4 1-51.3 8.8-119.6 23.3 12.4 65.3 30.8 110.3 55.2 135.2 24.3 24.9 38.3 31.6 42 20.2 3.6-11.4 5.9-23.8 7-37.3 11.4 7.3 22.8 11.9 34.2 14-7.3 29-14.3 48.2-21 57.5-6.7 9.3-19.2 10.9-37.3 4.7-18.1-6.2-37.8-22.8-59-49.7-21.2-26.9-38.6-73-52.1-138.3-39.4 8.3-63.7 14-73 17.1L439 482c16.6-2.1 43-6.7 79.2-14-5.4-67.4-8.5-111.9-9.5-133.7z m135.2 65.3c-9.3 6.2-18.6 13-28 20.2-9.3-17.6-21.2-35.2-35.7-52.8 8.3-5.2 16.6-11.4 24.9-18.6 18.6 22.7 31.5 39.8 38.8 51.2z" fill="" p-id="1261"></path><path d="M425.4 693.6h-43.1l0.2-5.2c1-23 1.5-45.4 1.5-66.6V497.6c-11.6 17.8-21.6 31.9-30 42l-4 4.9-3.8-5.1c-5.9-7.9-13.5-15.4-22.4-22.4l-4.6-3.6 4.3-4c16.1-15.1 33-39.7 50.3-73.2 17.3-33.6 30.2-70.3 38.4-109.1l1.3-6.2 5.7 2.7c15.2 7.1 26.9 11.7 34.8 13.7l6.6 1.6-3.5 5.8c-6 10-17.3 37.2-33.5 80.7v196.4c0 21.7 0.5 44.1 1.5 66.6l0.3 5.2z m-32.7-10h22.2c-0.9-20.8-1.3-41.6-1.3-61.8V423.6l0.3-0.8c14.4-38.7 24.8-64.2 31.5-77.5-6.7-2.2-14.9-5.4-24.8-9.9-8.4 37.4-21.2 72.8-38 105.5-16.4 31.8-32.6 55.9-48.2 71.9 5.9 5 11.2 10.2 15.8 15.7 9.5-12.1 21.2-29.1 34.6-50.6l9.2-14.8v158.8c0.1 19.6-0.4 40.4-1.3 61.7z m258.6 7.5c-6 0-12.9-1.3-20.7-4-19-6.5-39.6-23.8-61.3-51.4-21.1-26.7-38.6-72.3-52-135.5-36.2 7.7-59 13-67.6 15.9l-4.8 1.6-12.7-40.1 6-0.7c15.7-2 40.8-6.3 74.5-13.1-5-64.6-8-108.1-9-129.4l-0.3-6.2 6.1 1c6.1 1 18.1 2.6 35.5 4.6l5.2 0.6-0.9 5.2c-2 11.7-0.5 50.7 4.3 116 46.8-8.9 83.4-17.4 108.9-25.2l5-1.5 10.6 40.3-5.9 0.5c-10.9 1-49.3 8.5-114.2 22.2 12.2 61.4 30 104.4 52.9 127.8 24 24.5 31.2 24.3 32.4 24 0.6-0.1 1-1.1 1.2-1.8 3.5-11 5.8-23.1 6.8-36.2l0.6-8.3 7 4.5c10.8 6.9 21.7 11.3 32.4 13.3l5.3 1-1.3 5.2c-7.5 29.9-14.6 49.3-21.8 59.2-5 7-12.4 10.5-22.2 10.5zM525 488.4l1 4.9c13.2 64.2 30.4 110 51.1 136.2 20.5 26 39.6 42.2 56.7 48.1 5.9 2 23.7 8.1 31.6-2.9 5.9-8.2 12.3-25.3 18.9-50.8-8-2-15.9-5.1-23.8-9.5-1.3 10.8-3.4 21.1-6.4 30.5-1.9 5.8-5.6 7.9-8.4 8.5-5.9 1.4-16-0.4-41.9-26.8-24.9-25.4-43.9-71.8-56.5-137.7l-0.9-4.8 4.8-1c60.4-12.8 98-20.3 114.4-22.7l-5-19c-26.6 7.9-63.8 16.3-110.5 25l-5.5 1-0.4-5.6c-4.7-62.8-6.4-101.8-5.2-118.7-10.6-1.3-18.9-2.3-24.9-3.2 1.3 23.4 4.3 66.2 9 127.4l0.3 4.4-4.3 0.9c-32.2 6.4-56.9 10.9-73.7 13.3l6 19.1c11.7-3.3 34.3-8.5 68.7-15.8l4.9-0.8z m89.3-61l-2.8-5.3c-9.1-17.2-20.9-34.7-35.2-52l-3.6-4.4 4.8-3c8-5 16.1-11.1 24.2-18.2l3.9-3.4 3.3 4c18.6 22.8 31.8 40.2 39.2 51.8l2.6 4.1-4.1 2.7c-9 6-18.3 12.7-27.7 20l-4.6 3.7z m-26.7-59.3c11.7 14.7 21.8 29.5 29.9 44.1 6.5-5 13.1-9.7 19.5-14.1-7-10.4-17.9-24.7-32.6-42.8-5.6 4.8-11.2 9.1-16.8 12.8z" fill="" p-id="1262"></path></svg>