<?xml version="1.0" standalone="no"?><!DOCTYPE svg PUBLIC "-//W3C//DTD SVG 1.1//EN" "http://www.w3.org/Graphics/SVG/1.1/DTD/svg11.dtd"><svg t="1551408932003" class="icon" style="" viewBox="0 0 1024 1024" version="1.1" xmlns="http://www.w3.org/2000/svg" p-id="6330" xmlns:xlink="http://www.w3.org/1999/xlink" width="200" height="200"><defs><style type="text/css"></style></defs><path d="M313.343009 484.813824c18.006096 12.007475 35.368532 21.654182 52.088332 28.938076-30.867008 84.030835-63.452147 178.560792-97.746208 283.591917l-53.374628-28.294416C248.604566 691.453115 281.617447 596.70724 313.343009 484.813824zM263.827269 217.299071c38.151925 51.017954 71.590502 98.388844 100.317777 142.116765l-48.873104 32.153304c-32.153304-54.443983-63.878866-102.673427-95.173616-144.689357L263.827269 217.299071zM417.519674 315.045279l169.125909 0L586.645582 189.004655l51.444673 0 0 126.040624 169.125909 0 0 318.960449-50.1594 0 0-30.867008L638.090255 603.13872l0 217.355353-51.444673 0L586.645582 603.137697 467.67805 603.137697l0 30.867008L417.519674 634.004705 417.519674 315.045279zM467.67805 556.837184l118.966509 0 0-195.492416L467.67805 361.344768 467.67805 556.837184zM757.057787 361.345792 638.090255 361.345792l0 195.492416 118.967532 0L757.057787 361.345792z" p-id="6331"></path></svg>