<?xml version="1.0" standalone="no"?><!DOCTYPE svg PUBLIC "-//W3C//DTD SVG 1.1//EN" "http://www.w3.org/Graphics/SVG/1.1/DTD/svg11.dtd"><svg t="1563585359380" class="icon" viewBox="0 0 1024 1024" version="1.1" xmlns="http://www.w3.org/2000/svg" p-id="15257" xmlns:xlink="http://www.w3.org/1999/xlink" width="200" height="200"><defs><style type="text/css"></style></defs><path d="M256 256v608a32 32 0 0 0 32 32h448a32 32 0 0 0 32-32V256z m480 704H288a96 96 0 0 1-96-96V224a32 32 0 0 1 32-32h576a32 32 0 0 1 32 32v640a96 96 0 0 1-96 96z" p-id="15258" fill="#606266"></path><path d="M160 256a32 32 0 0 1 0-64h704a32 32 0 0 1 0 64zM352 448a32 32 0 0 1 64 0v256a32 32 0 0 1-64 0zM480 448a32 32 0 0 1 64 0v256a32 32 0 0 1-64 0zM608 448a32 32 0 0 1 64 0v256a32 32 0 0 1-64 0z" p-id="15259" fill="#606266"></path><path d="M647.04 128h-270.08l-16 64h302.08zM704 256H320a32 32 0 0 1-32-39.68l32-128A32 32 0 0 1 352 64h320a32 32 0 0 1 32 24.32l32 128A32 32 0 0 1 704 256z" p-id="15260" fill="#606266"></path></svg>