<?xml version="1.0" standalone="no"?><!DOCTYPE svg PUBLIC "-//W3C//DTD SVG 1.1//EN" "http://www.w3.org/Graphics/SVG/1.1/DTD/svg11.dtd"><svg t="1548299328117" class="icon" style="" viewBox="0 0 1109 1024" version="1.1" xmlns="http://www.w3.org/2000/svg" p-id="2060" xmlns:xlink="http://www.w3.org/1999/xlink" width="216.6015625" height="200"><defs><style type="text/css"></style></defs><path d="M818.961087 882.870427a63.994667 63.994667 0 0 1-63.994668 63.994668H294.375469a63.994667 63.994667 0 0 1-63.994667-63.994668V204.100325h588.750937v678.770102z m-460.761604-793.533872c0-7.338055 5.802183-13.054912 13.140239-13.054912h307.43038c7.423381 0 13.140238 5.716857 13.140239 13.054912V127.989334h-333.625531v-38.567452z m652.574952 38.567453H768.106658v-38.567453A89.592534 89.592534 0 0 0 678.770102 0H371.339722a89.592534 89.592534 0 0 0-89.336556 89.336555V127.989334H38.567453a38.482126 38.482126 0 1 0 0 77.049579h114.763769v677.916841c0 77.902841 63.141405 141.044246 140.95892 141.044246h460.761604c77.817515 0 140.95892-63.141405 140.95892-141.044246V204.100325h114.763769c21.331556 0 38.567453-17.150571 38.567453-38.482127a37.799517 37.799517 0 0 0-38.567453-37.71419zM524.75627 831.248063c21.331556 0 38.482126-17.235897 38.482127-38.482127V382.858762a38.482126 38.482126 0 1 0-77.049579 0V792.68061c0 21.331556 17.235897 38.482126 38.567452 38.482126z m-179.526372 0c21.331556 0 38.482126-17.235897 38.482126-38.482127V382.858762a38.482126 38.482126 0 1 0-77.049579 0V792.68061c0.853262 21.331556 18.089159 38.482126 38.567453 38.482126z m359.052745 0c21.331556 0 38.567453-17.235897 38.567453-38.482127V382.858762a38.482126 38.482126 0 1 0-77.134906 0V792.68061c0 21.331556 17.235897 38.482126 38.567453 38.482126z" fill="#999999" p-id="2061"></path></svg>