<?xml version="1.0" standalone="no"?><!DOCTYPE svg PUBLIC "-//W3C//DTD SVG 1.1//EN" "http://www.w3.org/Graphics/SVG/1.1/DTD/svg11.dtd"><svg t="1556675306430" class="icon" style="" viewBox="0 0 1025 1024" version="1.1" xmlns="http://www.w3.org/2000/svg" p-id="7847" xmlns:xlink="http://www.w3.org/1999/xlink" width="300.29296875" height="300"><defs><style type="text/css"></style></defs><path d="M503.44309 1015.748059c-67.950601 0-133.88529-13.31526-195.972347-39.575344-59.953464-25.358551-113.790626-61.654198-160.016437-107.880009-46.224788-46.225811-82.521458-100.06195-107.878986-160.015414C13.315237 646.190235-2.3e-05 580.255547-2.3e-05 512.304945s13.31526-133.88529 39.575344-195.972347c25.357528-59.953464 61.654198-113.790626 107.878986-160.016437 46.225811-46.225811 100.062973-82.521458 160.016437-107.878986C369.557801 22.177092 435.492489 8.861832 503.44309 8.861832S637.32838 22.177092 699.415437 48.437176c59.953464 25.358551 113.789603 61.654198 160.015414 107.878986s82.521458 100.062973 107.880009 160.016437c26.260084 62.087057 39.575344 128.020722 39.575344 195.972347S993.570944 646.190235 967.31086 708.277292c-25.358551 59.953464-61.654198 113.789603-107.880009 160.015414s-100.06195 82.521458-160.015414 107.880009C637.32838 1002.432799 571.394715 1015.748059 503.44309 1015.748059zM503.44309 70.260204c-243.744373 0-442.045765 198.300368-442.045765 442.044742 0 243.74335 198.300368 442.044742 442.045765 442.044742 243.74335 0 442.044742-198.300368 442.044742-442.044742C945.487832 268.560572 747.187464 70.260204 503.44309 70.260204z" p-id="7848"></path><path d="M295.639277 493.960135l67.054185 0L362.693463 385.684106l40.672328 0 0 108.277052 74.199932 0 0 37.374212-74.199932 0 0 74.199932c27.66099-3.847631 56.241932-7.875365 85.741803-12.091386-1.469468 12.82612-2.7486 26.01756-3.847631 39.573297-27.480888 4.031826-54.782697 8.063653-81.894172 12.091386l0 125.3151-40.672328 0L362.693463 651.15327c-39.942711 6.045693-79.69611 12.091386-119.269407 18.138102l-6.045693-42.320874c39.573297-4.761444 81.344656-10.07445 125.3151-15.939017l0-79.69611L250.019264 531.335371l0-36.824697c19.237133-40.85243 37.374212-88.490404 54.413284-142.902664l-60.458977 0 0-37.374212 71.726601 0c8.05956-27.662013 15.84385-56.976666 23.359011-87.940888l45.069475 8.794293c-8.244778 26.931373-16.5837 53.314253-25.007557 79.146595l118.444623 0 0 37.374212L346.754445 351.60801C330.264889 400.708288 313.226841 448.161043 295.639277 493.960135zM505.046611 645.107577l24.733311-32.978089c30.40959 19.056008 60.458977 38.293141 90.13895 57.710376l85.192288-98.933243L515.489451 570.906621l0-37.924751c6.961552-22.165836 13.921058-45.799092 20.88568-70.901817l-62.657039 0 0-37.374212 73.099878 0c6.045693-23.084765 12.181437-47.267537 18.413372-72.550363l-65.681932 0L499.54941 314.78229 574.299881 314.78229c6.412037-26.931373 12.821003-54.962799 19.237133-84.093257l42.320874 0c-6.229888 28.765137-12.641925 56.796564-19.237133 84.093257l147.849326 0 0 37.374212L607.826462 352.156502c-6.229888 24.918529-12.365632 49.101301-18.411325 72.550363l194.841593 0 0 37.374212L579.24552 462.081077c-6.779404 24.553209-13.560854 48.367591-20.336164 71.451332l199.515033 0 0 39.023782L653.994968 692.100868c21.801539 14.470573 43.420929 29.03529 64.856124 43.695175l-28.580942 36.275181C630.911227 727.731366 569.169024 685.415608 505.046611 645.107577z" p-id="7849"></path></svg>