<?xml version="1.0" standalone="no"?><!DOCTYPE svg PUBLIC "-//W3C//DTD SVG 1.1//EN" "http://www.w3.org/Graphics/SVG/1.1/DTD/svg11.dtd"><svg t="1556675748530" class="icon" style="" viewBox="0 0 1024 1024" version="1.1" xmlns="http://www.w3.org/2000/svg" p-id="8021" xmlns:xlink="http://www.w3.org/1999/xlink" width="300" height="300"><defs><style type="text/css"></style></defs><path d="M222.865345 91.866291c7.229658-24.064069 20.447704-34.909068 39.766702-32.537044 21.691021 7.230682 30.107715 22.934339 25.306362 46.997384l-21.691021 83.149768 130.147152 0c28.921703 0 44.569078 10.846022 46.997384 32.537044-2.429329 24.12035-18.075681 36.152385-46.997384 36.152385L248.171708 258.165828l-50.612725 198.836581c-2.429329 12.088316 2.373047 18.076704 14.461363 18.076704l61.458747 0L273.479093 355.775936c0-24.064069 12.032034-37.338397 36.152385-39.766702 21.691021 2.429329 32.537044 15.703657 32.537044 39.766702l0 119.302153 65.074088 0c24.064069 0 37.338397 10.846022 39.767725 32.537044 2.372024 21.691021-8.472975 33.779338-32.537044 36.152385l-72.304769 0 0 108.455107c38.524408-9.602705 68.689429-19.261693 90.38045-28.921703 21.691021-4.801353 36.152385 1.243317 43.383066 18.075681 4.801353 21.691021-2.429329 37.395702-21.691021 46.998407-36.152385 14.461363-73.547063 26.548656-112.071472 36.152385l0 195.220217c0 19.262716-10.846022 30.108738-32.537044 32.537044-24.12035-2.428306-36.152385-13.274328-36.152385-32.537044L273.480116 746.218416c-55.471382 16.890692-104.84079 27.735691-148.223856 32.537044-24.12035 2.429329-38.58069-5.987365-43.383066-25.305339-2.429329-24.064069 7.230682-38.524408 28.921703-43.383066 74.676793-14.461363 128.904859-26.493397 162.684196-36.152385L273.479093 543.767518 165.021939 543.767518c-45.811372 4.857635-60.272735-20.448728-43.383066-75.92011l57.843406-209.68158-61.458747 0c-21.691021-2.372024-32.536021-14.46034-32.536021-36.152385 2.372024-21.691021 14.46034-32.537044 36.152385-32.537044l75.919087 0L222.865345 91.866291zM649.46021 95.480608c7.229658-26.492374 21.691021-37.338397 43.383066-32.536021 24.064069 7.229658 33.723056 24.12035 28.921703 50.612725l-21.691021 86.765109 173.530219 0c21.691021 2.429329 32.537044 14.46034 32.537044 36.152385-2.429329 21.691021-14.461363 32.537044-36.152385 32.537044L685.611571 269.01185l-21.691021 104.84079 253.065669 0c21.691021 0 33.723056 10.846022 36.151361 32.537044-2.428306 24.12035-14.46034 36.152385-36.151361 36.152385L649.46021 442.542068l-18.076704 83.149768c-7.229658 21.691021 0 31.351032 21.691021 28.921703l180.7609 0c60.216453 2.429329 77.106122 32.537044 50.613748 90.38045-24.12035 55.470359-67.503417 112.071472-130.148176 169.914878 26.493397 9.658987 62.644759 27.679409 108.456131 54.228065 26.492374 16.833387 34.909068 36.152385 25.305339 57.843406-14.46034 21.689998-34.965349 24.064069-61.458747 7.229658-69.931722-45.812395-177.144536-95.238085-321.754075-148.223856-24.119327-12.032034-32.536021-30.108738-25.305339-54.228065 9.602705-19.261693 27.678386-24.064069 54.228065-14.461363 40.953737 14.461363 90.379427 34.966373 148.223856 61.458747 52.984748-43.382043 93.994768-89.13611 122.916471-137.377834 4.801353-9.602705 1.186012-15.646352-10.846022-18.075681L602.461803 623.301945c-31.351032 0-50.612725-4.801353-57.842383-14.461363-7.230682-7.229658-6.04467-25.305339 3.614317-54.228065l25.306362-112.071472L439.777607 442.541045c-16.889669 0-26.548656-10.846022-28.921703-32.537044 0-21.691021 8.416693-33.723056 25.306362-36.152385l151.839197 0 21.689998-104.84079L497.621013 269.010827c-21.691021 0-33.779338-12.032034-36.152385-36.152385 2.372024-21.691021 14.46034-32.537044 36.152385-32.537044l126.531811 0L649.46021 95.480608z" p-id="8022"></path></svg>