<?xml version="1.0" standalone="no"?><!DOCTYPE svg PUBLIC "-//W3C//DTD SVG 1.1//EN" "http://www.w3.org/Graphics/SVG/1.1/DTD/svg11.dtd"><svg t="1548400506192" class="icon" style="" viewBox="0 0 1024 1024" version="1.1" xmlns="http://www.w3.org/2000/svg" p-id="6789" xmlns:xlink="http://www.w3.org/1999/xlink" width="200" height="200"><defs><style type="text/css"></style></defs><path d="M542.92763 963.716872a30.141564 30.141564 0 1 1 0 60.228917H170.657631A110.428715 110.428715 0 0 1 60.228916 913.625496V110.374504A110.374504 110.374504 0 0 1 170.60342 0H853.342369a110.374504 110.374504 0 0 1 110.428715 110.428715v405.013712a30.141564 30.141564 0 0 1-60.228917 0V110.374504a50.199799 50.199799 0 0 0-50.199798-50.199799H170.60342a50.199799 50.199799 0 0 0-50.199799 50.199799v803.196781a50.199799 50.199799 0 0 0 50.199799 50.199799h372.32421z" fill="#999999" p-id="6790"></path><path d="M662.572291 511.972894h180.686749a30.141564 30.141564 0 1 1 0 60.228917h-180.686749a30.141564 30.141564 0 0 1 0-60.228917z m-120.512044 120.457833h301.198793a30.141564 30.141564 0 1 1 0 60.228916H542.060247a30.141564 30.141564 0 1 1 0-60.228916zM391.515062 451.743978V391.515062H301.144582a30.141564 30.141564 0 0 1 0-60.228917h90.37048v-5.421144L271.382498 205.352957a30.141564 30.141564 0 0 1 41.851236-43.369157l0.75896 0.75896 106.417068 106.579703 106.417068-106.47128a30.146985 30.146985 0 1 1 42.664408 42.610197L451.743978 323.262851v8.023294h90.316269a30.141564 30.141564 0 0 1 0 60.228917H451.743978v60.228916h90.316269a30.141564 30.141564 0 0 1 0 60.228916H451.743978v150.599397a30.141564 30.141564 0 1 1-60.228916 0V511.972894H301.144582a30.141564 30.141564 0 0 1 0-60.228916zM818.53862 876.544867l100.616444-100.724866a19.169167 19.169167 0 0 0-27.105723-27.105723l-100.724866 100.724866-100.724867-100.616443a19.169167 19.169167 0 0 0-27.105723 27.105723l100.724867 100.724866-100.616444 100.616444a19.082429 19.082429 0 0 0 13.444439 32.526867 18.702949 18.702949 0 0 0 13.444438-5.421144l100.724867-100.83329 100.833289 100.562232a19.082429 19.082429 0 0 0 13.444438 5.421145 18.702949 18.702949 0 0 0 13.444439-5.421145 19.028217 19.028217 0 0 0 0-27.105723z" fill="#999999" p-id="6791"></path></svg>