<?xml version="1.0" standalone="no"?><!DOCTYPE svg PUBLIC "-//W3C//DTD SVG 1.1//EN" "http://www.w3.org/Graphics/SVG/1.1/DTD/svg11.dtd"><svg t="1548409964317" class="icon" style="" viewBox="0 0 1024 1024" version="1.1" xmlns="http://www.w3.org/2000/svg" p-id="8297" xmlns:xlink="http://www.w3.org/1999/xlink" width="200" height="200"><defs><style type="text/css"></style></defs><path d="M959.035526 63.923716V959.077476H63.923716V63.923716h895.11181m63.923716-63.923716H0V1023.001192h1022.959242V0z" p-id="8298"></path><path d="M348.291363 673.558203h55.550708c0 162.458129-211.406716 158.462897-211.406716 158.462897l0.28566-57.396506s155.570349-14.014276 155.570348-101.066391z m482.592094 101.066391l0.28566 57.396506s-211.406716 3.995232-211.406716-158.462897h55.550708c0 87.052116 155.570349 101.066391 155.570348 101.066391z m-638.448102-163.608755h638.036594v62.541365H565.445221l0.118858 158.462897-118.626436 0.168799 0.428488-55.084265 64.248329 0.169797V673.558203h-319.179105v-62.542364z m48.933605-312.192443h150.877948V245.748733H192.078781v-52.43942h639.714591v52.43942H628.00856v53.074663h150.835v162.850661H241.36896V298.823396z m-1.909721 214.37018H780.168978v53.107623H239.459239v-53.107623z m56.033132-106.504902h96.755536v-53.510143h-96.755536v53.510143z m152.062535-107.865278h127.576755V245.748733H447.554906v53.074663z m0 107.865278h127.576755v-53.510143H447.554906v53.510143z m276.307266-53.510143h-95.853612v53.510143h95.853612v-53.510143z" p-id="8299"></path></svg>