<?xml version="1.0" standalone="no"?><!DOCTYPE svg PUBLIC "-//W3C//DTD SVG 1.1//EN" "http://www.w3.org/Graphics/SVG/1.1/DTD/svg11.dtd"><svg t="1553822652846" class="icon" style="" viewBox="0 0 1024 1024" version="1.1" xmlns="http://www.w3.org/2000/svg" p-id="2022" xmlns:xlink="http://www.w3.org/1999/xlink" width="200" height="200"><defs><style type="text/css"></style></defs><path d="M244.384 694.528c0 12.288 6.56 23.584 17.216 29.728 10.656 6.112 23.776 6.112 34.432 0a34.24 34.24 0 0 0 0-59.424 34.624 34.624 0 0 0-34.432 0 34.272 34.272 0 0 0-17.216 29.696z m0 0" fill="#666666" p-id="2023"></path><path d="M991.968 100.608a68.64 68.64 0 0 0-113.856-51.552L70.816 510.272v0.096a68.672 68.672 0 0 0-2.816 122.24v0.448l72.384 33.856v-0.096a34.336 34.336 0 0 0 48.544-31.296c0-13.6-7.936-25.376-19.52-30.848l0.096-0.224-40-18.88v-0.096a17.216 17.216 0 0 1 0-29.824v-0.128l714.56-407.424-453.12 579.904a33.824 33.824 0 0 0-6.88 16.512c-0.416 2.24-0.736 4.512-0.736 6.848v206.784c0 18.656 15.232 33.888 33.888 33.888s33.888-15.232 33.888-33.888v-196.992L910.24 173.504 776.608 866.24a17.184 17.184 0 0 1-24.32 12.992h-0.096l-173.376-81.824a34.336 34.336 0 0 0-52.32 29.28c0 15.648 10.496 28.8 24.96 32.896l193.632 90.784 0.448-0.224a68.48 68.48 0 0 0 95.744-51.424l0.224-0.128 146.208-762.976c-0.128 0.16 4.608-25.024 4.256-35.008z" fill="#666666" p-id="2024"></path></svg>