<?xml version="1.0" standalone="no"?><!DOCTYPE svg PUBLIC "-//W3C//DTD SVG 1.1//EN" "http://www.w3.org/Graphics/SVG/1.1/DTD/svg11.dtd"><svg t="1548411001701" class="icon" style="" viewBox="0 0 1024 1024" version="1.1" xmlns="http://www.w3.org/2000/svg" p-id="20397" xmlns:xlink="http://www.w3.org/1999/xlink" width="200" height="200"><defs><style type="text/css"></style></defs><path d="M935.42112 486.208a25.152 25.152 0 0 1-24.512-25.792V53.632c0-4.096-3.712-7.68-8.128-7.68H121.34112c-4.48 0-8.192 3.456-8.192 7.68V954.24c0 4.16 3.776 7.68 8.192 7.68h351.488c12.096 0 21.952 10.368 21.952 23.04 0 12.672-9.856 23.04-21.952 23.04H121.34112c-31.616 0-57.28-24.128-57.28-53.632V53.76C63.99712 24.128 89.72512 0 121.34112 0h781.312c31.616 0 57.28 24.128 57.28 53.632v406.848a25.216 25.216 0 0 1-24.512 25.728z" p-id="20398"></path><path d="M256.12512 561.92a4.608 4.608 0 0 1-4.48-4.48v-31.552c0-2.432 1.984-4.48 4.48-4.48h238.528c2.496 0 4.544 2.048 4.544 4.48v31.488c0 2.496-2.048 4.544-4.48 4.544H256.06112z m1.088-176.576h351.04c2.496 0 4.544 2.048 4.544 4.48v31.552c0 2.432-2.048 4.48-4.48 4.48H257.14912a4.608 4.608 0 0 1-4.48-4.48v-31.488c0-2.56 1.984-4.48 4.48-4.48z m-4.48-141.76c0-2.432 1.984-4.48 4.48-4.48H698.23712c2.496 0 4.544 2.048 4.544 4.48V275.2c0 2.432-2.048 4.48-4.48 4.48H257.14912a4.608 4.608 0 0 1-4.48-4.48v-31.552z m510.784 475.52H550.26912l69.76-60.032c13.568-13.568 27.136-34.88 13.568-50.432-13.568-13.568-36.8-5.76-52.352 9.728l-114.368 102.72c-23.296 19.392-17.472 29.12 5.76 52.352l114.432 104.704c13.568 13.568 40.704 11.584 46.528 1.92 5.824-11.648 3.84-27.136-9.664-42.624l-71.744-62.08h213.248c83.392 0 137.664 23.296 137.664 83.392 0 56.192-62.08 96.896-137.6 96.896H689.78912c-19.392 0-40.704 5.824-40.704 25.216 0 19.392 19.392 27.136 40.704 27.136h75.584c100.864 0 188.16-65.92 188.16-151.232-1.984-87.232-60.16-137.6-190.08-137.6z" p-id="20399"></path></svg>