<?xml version="1.0" standalone="no"?><!DOCTYPE svg PUBLIC "-//W3C//DTD SVG 1.1//EN" "http://www.w3.org/Graphics/SVG/1.1/DTD/svg11.dtd"><svg t="1550561331957" class="icon" style="" viewBox="0 0 1024 1024" version="1.1" xmlns="http://www.w3.org/2000/svg" p-id="2874" xmlns:xlink="http://www.w3.org/1999/xlink" width="200" height="200"><defs><style type="text/css"></style></defs><path d="M563.2 624.64c12.288 0 20.48 8.192 20.48 20.48s-8.192 20.48-20.48 20.48h-102.4c-12.288 0-20.48-8.192-20.48-20.48s8.192-20.48 20.48-20.48h102.4z m-317.44-409.6c-12.288 0-20.48-8.192-20.48-20.48s8.192-20.48 20.48-20.48h337.92c45.056 0 81.92 36.864 81.92 81.92v276.48c0 12.288-8.192 20.48-20.48 20.48s-20.48-8.192-20.48-20.48V256c0-22.528-18.432-40.96-40.96-40.96h-337.92z m38.912 409.6c12.288 0 20.48 8.192 20.48 20.48s-8.192 20.48-20.48 20.48h-90.112c-45.056 0-81.92-36.864-81.92-81.92v-286.72c0-12.288 8.192-20.48 20.48-20.48s20.48 8.192 20.48 20.48v286.72c0 22.528 18.432 40.96 40.96 40.96h90.112z m69.632-145.408c0-12.288 8.192-20.48 20.48-20.48s20.48 8.192 20.48 20.48v286.72c0 22.528 18.432 40.96 40.96 40.96h348.16c12.288 0 20.48 8.192 20.48 20.48s-8.192 20.48-20.48 20.48h-348.16c-45.056 0-81.92-36.864-81.92-81.92v-286.72z m208.896-102.4c12.288 0 20.48 8.192 20.48 20.48s-8.192 20.48-20.48 20.48h-102.4c-12.288 0-20.48-8.192-20.48-20.48s8.192-20.48 20.48-20.48h102.4z m344.064 358.4c0 12.288-8.192 20.48-20.48 20.48s-20.48-8.192-20.48-20.48v-276.48c0-22.528-18.432-40.96-40.96-40.96h-98.304c-12.288 0-20.48-8.192-20.48-20.48s8.192-20.48 20.48-20.48h98.304c45.056 0 81.92 36.864 81.92 81.92v276.48z m-786.432-524.288c-8.192-8.192-10.24-20.48-2.048-28.672s20.48-10.24 28.672-2.048l753.664 632.832c8.192 8.192 10.24 20.48 2.048 28.672-8.192 8.192-20.48 10.24-28.672 2.048l-753.664-632.832z" p-id="2875"></path></svg>