<?xml version="1.0" standalone="no"?><!DOCTYPE svg PUBLIC "-//W3C//DTD SVG 1.1//EN" "http://www.w3.org/Graphics/SVG/1.1/DTD/svg11.dtd"><svg t="1547693841012" class="icon" style="" viewBox="0 0 1024 1024" version="1.1" xmlns="http://www.w3.org/2000/svg" p-id="3612" xmlns:xlink="http://www.w3.org/1999/xlink" width="200" height="200"><defs><style type="text/css"></style></defs><path d="M843.34429 847.703276l96.770841 96.747607a45.632157 45.632157 0 1 1-64.521639 64.521639l-96.747607-96.770841-96.770841 96.770841a45.608922 45.608922 0 0 1-64.498405-64.521639l96.747607-96.747607-96.747607-96.770841a45.608922 45.608922 0 0 1 64.498405-64.498405l96.770841 96.747607 96.747607-96.747607a45.608922 45.608922 0 1 1 64.521639 64.498405zM279.657044 604.091687h232.342956a23.234296 23.234296 0 0 1 0 46.468591H279.657044a23.234296 23.234296 0 0 1 0-46.468591z m371.74873-325.280139H279.657044a23.234296 23.234296 0 0 1 0-46.468592h371.74873a23.234296 23.234296 0 0 1 0 46.468592z m0 185.874365H279.657044a23.234296 23.234296 0 0 1 0-46.468592h371.74873a23.234296 23.234296 0 0 1 0 46.468592z m162.640069 185.874365a46.468591 46.468591 0 0 1-46.468591-46.468591V139.405774a46.468591 46.468591 0 0 0-46.468591-46.468591H209.954157a46.468591 46.468591 0 0 0-46.468592 46.468591v743.49746a46.468591 46.468591 0 0 0 46.468592 46.468591h278.811547a46.468591 46.468591 0 0 1 0 92.937183H163.485565a92.937183 92.937183 0 0 1-92.937182-92.937183V92.937183a92.937183 92.937183 0 0 1 92.937182-92.937183h604.091687a92.937183 92.937183 0 0 1 92.937183 92.937183v511.154504a46.468591 46.468591 0 0 1-46.468592 46.468591z" p-id="3613"></path></svg>