<?xml version="1.0" standalone="no"?><!DOCTYPE svg PUBLIC "-//W3C//DTD SVG 1.1//EN" "http://www.w3.org/Graphics/SVG/1.1/DTD/svg11.dtd"><svg t="1553324778565" class="icon" style="" viewBox="0 0 1024 1024" version="1.1" xmlns="http://www.w3.org/2000/svg" p-id="2365" xmlns:xlink="http://www.w3.org/1999/xlink" width="200" height="200"><defs><style type="text/css"></style></defs><path d="M170.783322 866.61537h369.263939c-5.999414-22.097842-9.499072-45.295577-9.499072-69.293233 0-49.295186 13.598672-95.490675 37.096377-135.086808H351.165706c62.393907-89.491261 106.889562-202.680207 126.887609-327.16805 12.69876 3.099697 25.897471 4.799531 39.496143 4.799531 11.198906 0 22.097842-1.199883 32.796797-3.199688 14.798555 91.991017 42.895811 177.482668 81.592032 251.675423 21.697881-17.19832 46.295479-30.896983 72.692901-40.796016-40.296065-69.593204-69.193243-152.685089-82.691924-243.676204 39.896104-31.096963 65.593594-79.492237 65.593594-133.886925 0-93.890831-76.092569-169.9834-169.9834-169.9834s-169.9834 76.092569-169.9834 169.9834c0 51.594961 23.097744 97.69046 59.49419 128.887413-21.497901 151.185236-85.09169 280.672591-172.983107 363.364516h-63.193829c-44.095694 0-79.992188 35.896494-79.992188 79.992188v44.395664c-0.09999 44.095694 35.796504 79.992188 79.892198 79.992189zM517.549458 79.992188c49.595157 0 89.991212 40.396055 89.991212 89.991212s-40.396055 89.991212-89.991212 89.991212-89.991212-40.396055-89.991212-89.991212 40.396055-89.991212 89.991212-89.991212z" p-id="2366"></path><path d="M797.222146 570.644273c-125.187775 0-226.677863 101.490089-226.677863 226.677864 0 3.499658 0.09999 6.899326 0.29997 10.398984 0 2.099795 0.09999 4.29958 0.399961 6.299385 0.799922 11.998828 2.699736 23.697686 5.299483 35.196563 1.499854 5.999414 3.099697 11.998828 4.899521 17.998242 0.09999 0.299971 0.299971 0.499951 0.399961 0.799922 3.099697 9.199102 6.699346 18.298213 10.798946 26.897373 0 0.299971 0.09999 0.399961 0.29997 0.699932 7.099307 14.498584 15.598477 28.097256 25.497511 40.796016 1.999805 2.499756 3.999609 5.099502 6.099404 7.599258 41.495948 48.895225 103.489894 79.992188 172.683136 79.992188 125.187775 0 226.677863-101.490089 226.677864-226.677863S922.409921 570.644273 797.222146 570.644273z m103.789865 273.673274c15.598477 15.598477 15.598477 41.095987 0 56.494483-15.598477 15.598477-40.896006 15.598477-56.494483 0l-47.195391-47.095401-47.095401 47.095401c-15.598477 15.598477-41.095987 15.598477-56.494483 0-15.598477-15.498486-15.598477-40.896006 0-56.494483l47.095401-47.095401-47.095401-47.195391c-15.598477-15.598477-15.598477-41.095987 0-56.494483 15.498486-15.598477 40.896006-15.598477 56.494483 0l47.095401 47.095401 47.195391-47.095401c15.598477-15.598477 40.896006-15.598477 56.494483 0 15.598477 15.498486 15.598477 40.896006 0 56.494483L853.91661 797.222146l47.095401 47.095401zM588.742506 969.805292c-2.499756-2.899717-4.799531-5.999414-7.199297-8.89913-4.29958-5.499463-8.099209-11.198906-11.998829-16.89835H42.895811C19.198125 943.907822 0 961.806074 0 983.903916c0 21.997852 19.198125 39.996094 42.895811 39.996094h608.640562c-23.597696-14.698565-44.795625-32.896787-62.793867-54.094718z" p-id="2367"></path></svg>