<?xml version="1.0" standalone="no"?><!DOCTYPE svg PUBLIC "-//W3C//DTD SVG 1.1//EN" "http://www.w3.org/Graphics/SVG/1.1/DTD/svg11.dtd"><svg t="1550139376494" class="icon" style="" viewBox="0 0 1024 1024" version="1.1" xmlns="http://www.w3.org/2000/svg" p-id="2355" xmlns:xlink="http://www.w3.org/1999/xlink" width="200" height="200"><defs><style type="text/css"></style></defs><path d="M777.074318 462.60074l-30.191863-0.511727h-5.117264c-8.69935 0-16.375247 8.69935-16.886974 19.445607-8.69935 122.302629-90.575587 125.372988-99.274938 125.372988H476.179146c-4.605538 0-8.187624-4.605538-8.187623-10.23453v-3.070359c0-5.628991 3.582085-10.23453 8.187623-10.234529l134.072339 0.511726c9.211077 0 16.886974-9.722803 16.886973-20.980786v-47.590562c0-11.769709-7.675897-21.492512-16.886973-21.492513l-66.524443-0.511726c-6.140718 0-11.769709-2.046906-17.3987-6.140718-16.886974-12.281436-59.360272-39.402939-111.556374-39.402939-25.074598 0-51.684375 6.140718-79.317604 23.027692H312.426672c0.511726 3.582085 1.023453 7.164171 1.023453 10.746256v183.19808c0 3.582085-0.511726 6.652444-1.023453 9.722804h74.20034c9.722803 0 18.93388 1.023453 28.144956 3.582085l36.332581 8.69935c41.449845 9.722803 83.411417 14.840068 125.372988 15.351795l55.778186 0.511726s148.912406-8.69935 159.658663-216.972028c2.558632-12.793162-5.117265-23.027692-14.840068-23.027692z m-485.628432 8.69935c-2.558632-5.117265-6.652444-9.211077-11.769709-10.23453-1.023453 0-2.046906-0.511726-3.070359-0.511726h-39.914665c-9.211077 0-16.886974 9.722803-16.886974 21.492512V665.244427c0 11.769709 7.675897 21.492512 16.886974 21.492512H276.605818c1.023453 0 2.558632 0 3.582086-0.511726 5.117265-1.535179 9.722803-5.628991 11.769709-11.257983 1.023453-3.070359 2.046906-6.140718 2.046906-9.722803V482.046346c0-4.093812-1.023453-7.675897-2.558633-10.746256z" p-id="2356"></path><path d="M54.004798 576.715745c2.558632-16.375247 16.375247-29.168409 33.262222-30.191862 19.445606-1.023453 35.820854 13.816615 36.844306 33.262221 0 2.558632-0.511726 5.117265-1.023452 7.675898 8.69935 207.760952 181.151175 371.0017 388.912126 368.954793 212.36649 2.558632 386.353494-167.33456 389.423853-379.70105-3.070359-212.36649-177.057363-382.259682-389.423853-379.701049V322.387684L283.258262 167.33456 512 0v130.490253c249.722523-3.070359 454.413116 197.014696 457.995202 446.737219-3.070359 249.722523-208.272678 449.807578-457.995202 446.737219-248.187344 3.070359-452.36621-194.456063-457.995202-442.643407V576.715745z" p-id="2357"></path></svg>