<?xml version="1.0" standalone="no"?><!DOCTYPE svg PUBLIC "-//W3C//DTD SVG 1.1//EN" "http://www.w3.org/Graphics/SVG/1.1/DTD/svg11.dtd"><svg t="1548121384930" class="icon" style="" viewBox="0 0 1024 1024" version="1.1" xmlns="http://www.w3.org/2000/svg" p-id="7046" xmlns:xlink="http://www.w3.org/1999/xlink" width="200" height="200"><defs><style type="text/css"></style></defs><path d="M989.83059 716.939151c-20.563491 0-34.16941 13.605919-34.169409 34.16941V853.462177c0 57.979767-44.373849 102.353616-102.353616 102.353616H170.692435c-57.979767 0-102.353616-44.373849-102.353616-102.353616V170.692435c0-57.979767 44.373849-102.353616 102.353616-102.353616h682.61513c57.979767 0 102.353616 44.373849 102.353616 102.353616v68.33882c0 20.563491 13.605919 34.16941 34.169409 34.169409s34.16941-13.605919 34.16941-34.169409v-68.33882C1024 75.141779 949.012834 0 853.307565 0H170.692435C75.141779 0 0 75.141779 0 170.692435v682.61513c0 95.550657 75.141779 170.692435 170.692435 170.692435h682.61513c95.550657 0 170.692435-75.141779 170.692435-170.692435v-102.353617c0-20.408878-13.605919-34.014797-34.16941-34.014797z m0 0" p-id="7047"></path><path d="M239.031255 512.077306H443.738487c20.563491 0 34.16941-13.605919 34.16941-34.169409S464.301978 443.738487 443.738487 443.738487H239.031255c-20.563491 0-34.16941 13.605919-34.16941 34.16941 0 20.408878 13.605919 34.16941 34.16941 34.169409z m0-204.861845h409.72369c20.563491 0 34.16941-13.605919 34.16941-34.169409s-13.605919-34.16941-34.16941-34.16941h-409.72369c-20.563491 0-34.16941 13.605919-34.16941 34.16941s13.605919 34.16941 34.16941 34.169409z m0 0M768.270572 618.141628l136.213801-136.213801c6.029896-6.029896 9.431376-14.069757 9.431375-22.573456s-3.40148-16.54356-9.431375-22.573456c-6.029896-6.029896-14.069757-9.431376-22.573456-9.431376s-16.54356 3.40148-22.573457 9.431376l-136.2138 136.2138-136.2138-136.059187c-12.369017-12.369017-32.623283-12.369017-45.146913 0-6.029896 6.029896-9.431376 14.069757-9.431375 22.573456s3.40148 16.54356 9.431375 22.573456l136.213801 136.2138-136.059188 136.059188c-12.369017 12.369017-12.369017 32.623283 0 45.146912 6.029896 6.029896 14.22437 9.431376 22.573456 9.431376 8.658312 0 16.54356-3.40148 22.573456-9.431376l136.213801-136.368413 136.2138 136.213801c6.029896 6.029896 14.22437 9.431376 22.573456 9.431375 8.658312 0 16.54356-3.40148 22.573456-9.431375 12.369017-12.369017 12.369017-32.623283 0-45.146913l-136.368413-136.059187z" p-id="7048"></path></svg>