<?xml version="1.0" standalone="no"?><!DOCTYPE svg PUBLIC "-//W3C//DTD SVG 1.1//EN" "http://www.w3.org/Graphics/SVG/1.1/DTD/svg11.dtd"><svg t="1554272218713" class="icon" style="" viewBox="0 0 1024 1024" version="1.1" xmlns="http://www.w3.org/2000/svg" p-id="5194" xmlns:xlink="http://www.w3.org/1999/xlink" width="200" height="200"><defs><style type="text/css"></style></defs><path d="M917.751 1023.998H106.108c-26.385 0-51.649-9.822-71.298-27.647-2.528-2.247-4.911-4.775-7.158-7.158C9.827 969.544 0 944.279 0 917.89V106.106C0 79.72 9.827 54.461 27.652 34.807c2.247-2.524 4.77-4.911 7.158-7.158C54.459 9.825 79.723 0.002 106.108 0.002h811.643C976.281 0.002 1024 47.72 1024 106.246v271.018c0 13.612-11.089 24.842-24.842 24.842-13.758 0-24.842-11.089-24.842-24.842V135.999c0-36.348-4.916-56.837-16.141-68.77-11.792-12.351-33.543-17.825-70.459-17.825H136.002c-64.699 0-86.595 21.896-86.595 86.595v751.72c0 64.699 21.896 86.595 86.595 86.595h751.715c36.916 0 58.53-5.474 70.459-17.825 11.366-11.928 16.141-32.422 16.141-68.77v-259.09c0-13.612 11.084-24.837 24.842-24.837 13.753 0 24.842 11.084 24.842 24.837v288.984c-0.001 58.666-47.719 106.385-106.25 106.385z m49.829-582.874c5.193 0 9.959 1.965 13.612 5.615l37.192 37.192c3.649 3.649 5.615 8.42 5.615 13.612s-1.965 9.963-5.615 13.617l-244.07 243.925c-1.82 1.825-1.82 1.825-71.716 29.894l-0.145 0.141c-2.102 0.704-4.208 1.126-6.314 1.126-4.489 0-8.983-1.825-12.351-5.193-4.911-4.916-6.454-12.074-3.931-18.528v-0.141c27.788-69.192 28.21-69.751 30.034-71.58l244.07-244.066c3.652-3.649 8.427-5.614 13.619-5.614z m-86.177-96.703c0 13.054-10.526 23.58-23.58 23.58H167.298c-13.05 0-23.576-10.526-23.576-23.58v-1.684c0-13.05 10.526-23.576 23.576-23.576h690.525c13.054 0 23.58 10.526 23.58 23.576v1.684zM167.298 121.965h690.525c13.054 0 23.58 10.53 23.58 23.58v1.684c0 12.913-10.526 23.58-23.58 23.58H167.298c-13.05 0-23.576-10.526-23.576-23.58v-1.684c0-13.05 10.526-23.58 23.576-23.58z m0 434.667c-13.05 0-23.576-10.526-23.576-23.58v-1.684c0-13.05 10.526-23.58 23.576-23.58h259.231c13.054 0 23.576 10.53 23.576 23.58v1.684c0 12.913-10.521 23.58-23.576 23.58H167.298z m23.299 337.682c0 8.561-4.067 15.719-11.089 19.79-7.576 4.353-17.262 4.353-24.697 0-7.022-4.071-11.089-11.229-11.089-19.79v-8.138c0-5.755-0.141-11.652 0-17.548 0.985-54.173 19.649-108.35 53.896-156.631 17.679-24.978 39.013-47.015 63.437-65.679 22.876-17.407 44.21-28.632 64.98-33.97 24.279-6.314 44.913-2.664 58.385 10.249 14.457 13.894 16 33.965 14.602 48.422-2.392 25.682-10.807 50.106-18.95 73.541-3.368 9.827-6.877 19.931-9.822 29.758-1.829 6.173-3.795 13.472-5.056 20.77-0.136 0.558-0.136 1.121-0.277 1.543 0 0.281 0 0.704-0.145 0.98 0.704-0.141 1.407-0.418 2.111-0.699 0.277-0.141 0.418-0.141 0.694-0.281 0.427-0.281 0.844-0.422 1.407-0.704 0.422-0.141 0.84-0.418 1.126-0.558a70.865 70.865 0 0 0 5.333-2.95c3.509-2.106 7.153-4.63 11.366-7.721 2.946-2.242 6.173-4.771 11.229-8.978 3.509-2.95 7.017-5.896 10.385-8.842l1.965-1.689c1.262-1.121 2.664-2.242 3.926-3.363 16.004-13.617 32.422-27.792 53.197-35.091 18.805-6.595 42.948-4.208 54.736 16.141 8.842 15.301 6.314 33.825 3.227 49.965-2.106 11.37-5.193 22.595-8.138 33.402-1.266 4.634-2.528 9.405-3.795 14.035-1.82 6.877-3.645 14.316-4.766 21.755-0.141 0.563-0.141 1.126-0.286 1.684 0 0.281 0 0.422-0.141 0.563l-0.136 0.985c-0.1 0.785-0.132 1.57-0.186 2.31 0.272 0.586 0.372 1.276 0.295 2.056 0.903-0.204 1.711-0.345 2.415-0.581 0.286-0.141 0.563-0.141 0.844-0.281 0.141-0.141 0.422-0.141 0.563-0.277l0.703-0.422c2.383-1.403 4.63-2.669 6.877-4.212l0.136-0.141c0.281-0.277 0.704-0.558 0.985-0.84 0.277-0.281 0.699-0.563 0.98-0.844 1.126-0.98 2.247-2.106 3.649-3.368 2.524-2.387 4.911-5.052 7.158-7.439 10.667-11.366 24.002-25.682 43.089-31.859 27.651-8.983 55.298 3.372 73.681 13.472 11.37 6.178 15.16 19.654 8.846 31.16-6.6 11.933-20.353 16.141-32.004 9.682-8.996-4.979-16.359-8.32-25.573-10.027a68.16 68.16 0 0 1-2.919 0.064c-1.666 0-3.295-0.064-4.87-0.177a3.377 3.377 0 0 1-0.458 0.036h-0.844c-0.704 0.141-1.266 0.281-1.825 0.422-0.281 0-0.422 0.141-0.699 0.281-0.286 0.141-0.563 0.141-0.704 0.281-0.817 0.463-1.602 0.93-2.378 1.393-2.828 2.828-6.191 5.547-9.709 7.889-2.928 2.941-5.751 5.896-8.824 9.105-7.862 8.279-15.864 16.84-26.385 23.435-10.108 6.454-23.721 11.089-37.056 11.089-7.998 0-15.859-1.684-22.74-5.615-14.03-7.998-21.329-24.42-20.067-45.054 0.98-16.417 5.338-32.277 9.405-47.578l1.543-5.755a724.918 724.918 0 0 0 4.916-18.524c0.98-4.071 1.82-7.439 2.383-10.526 0.281-1.684 0.699-3.227 0.985-4.911 0-0.281 0.141-1.126 0.277-1.825l0.141-1.266c0-0.141 0-0.422 0.141-0.563 0.141-1.262 0.277-2.524 0.277-3.786h-0.136c-0.422 0.141-0.699 0.281-0.985 0.422-0.418 0.136-0.699 0.277-1.121 0.558-1.684 0.844-3.368 1.684-5.193 2.805-3.087 1.829-6.459 4.071-10.104 6.74-3.931 2.946-6.037 4.489-11.089 8.701-3.926 3.227-7.857 6.595-11.652 9.827l-0.699 0.558c-9.264 7.862-18.387 15.578-28.069 22.877-15.02 11.229-38.037 25.405-63.16 20.212-11.511-2.388-20.212-8.279-25.541-17.402-10.948-18.669-5.056-45.617 2.388-69.474 2.805-9.123 5.892-18.247 8.837-27.089 2.528-7.439 5.193-15.301 7.58-22.876 3.087-9.827 5.193-17.262 6.877-24.279 0.844-3.372 1.543-7.163 2.247-11.511 0-0.141 0-0.422 0.141-0.563v-0.558c0-0.281 0-0.422 0.141-0.704 0.141-1.543 0.277-2.805 0.277-4.071 0.145-1.825 0-3.649-0.136-5.755v-0.136c0-0.281-0.141-0.563-0.141-0.844 0-0.422-0.141-0.985-0.141-1.543-0.141-0.281-0.141-0.563-0.281-0.844 0-0.136 0-0.136-0.141-0.277 0 0-0.141 0-0.141-0.145-0.141 0-0.281-0.136-0.418-0.136-0.145 0-0.422 0-0.704-0.141h-3.227c-0.422 0-1.126 0.141-1.684 0.141-0.563 0-1.126 0.136-1.403 0.136h-0.563c-3.509 0.704-6.877 1.548-9.968 2.528-1.961 0.704-4.071 1.403-6.173 2.247l-0.563 0.281c-0.281 0.141-0.558 0.281-0.844 0.281l-0.277 0.141c-0.844 0.418-1.684 0.699-2.528 1.121-42.526 19.79-80.281 58.104-106.103 107.928-12.491 24.002-20.63 47.859-24.143 70.599-0.141 0.699-0.141 1.403-0.281 2.102v0.422l-0.136 1.126c-0.141 0.84-0.141 1.679-0.281 2.383-0.281 2.247-0.422 4.634-0.563 6.877-0.277 4.212-0.563 8.561-0.563 13.336a387.542 387.542 0 0 0 0 18.106v8.138z m290.286-115.98c0.014-0.118 0.023-0.241 0.032-0.363l-0.073-0.009c0.009 0.127 0.027 0.25 0.041 0.372zM349.756 655.019l0.141-0.281-0.041-0.045-0.413 0.068c0.095 0.09 0.2 0.181 0.313 0.258z m-4.634 0.98c0.563-0.141 1.126-0.422 1.684-0.704-0.136 0-0.277-0.136-0.277-0.136l-0.045-0.032c-0.481 0.045-0.971 0.091-1.466 0.127l0.104 0.745z" p-id="5195" fill="#ffffff"></path></svg>