<?xml version="1.0" standalone="no"?><!DOCTYPE svg PUBLIC "-//W3C//DTD SVG 1.1//EN" "http://www.w3.org/Graphics/SVG/1.1/DTD/svg11.dtd"><svg t="1548377975878" class="icon" style="" viewBox="0 0 1024 1024" version="1.1" xmlns="http://www.w3.org/2000/svg" p-id="9405" xmlns:xlink="http://www.w3.org/1999/xlink" width="200" height="200"><defs><style type="text/css"></style></defs><path d="M650.971429 288.914286H179.2l193.828571-186.514286c14.628571-10.971429 14.628571-32.914286 0-47.542857s-32.914286-14.628571-43.885714 0L76.8 292.571429c-3.657143 3.657143-7.314286 7.314286-7.314286 10.971428-3.657143 10.971429-3.657143 25.6 7.314286 36.571429h3.657143l237.714286 248.685714c10.971429 14.628571 32.914286 14.628571 47.542857 0 14.628571-10.971429 14.628571-32.914286 0-47.542857L175.542857 347.428571h479.085714c142.628571 0 256 117.028571 256 256 0 142.628571-117.028571 256-256 256H234.057143c-14.628571 0-29.257143 14.628571-29.257143 29.257143s14.628571 29.257143 29.257143 29.257143H658.285714c175.542857 0 318.171429-142.628571 318.171429-318.171428-3.657143-168.228571-146.285714-310.857143-325.485714-310.857143" p-id="9406"></path></svg>