<?xml version="1.0" standalone="no"?><!DOCTYPE svg PUBLIC "-//W3C//DTD SVG 1.1//EN" "http://www.w3.org/Graphics/SVG/1.1/DTD/svg11.dtd"><svg t="1548899846730" class="icon" style="" viewBox="0 0 1024 1024" version="1.1" xmlns="http://www.w3.org/2000/svg" p-id="20766" xmlns:xlink="http://www.w3.org/1999/xlink" width="200" height="200"><defs><style type="text/css"></style></defs><path d="M771.12538 88.687101c0.077066 18.652336 19.652987 21.771093 30.825123 25.396799 27.205438 8.858956 54.371138 22.18773 77.37408 38.723165 12.546074 8.972147 20.671701 16.120001 31.324846 26.692468 86.260732 85.635777 59.355129 182.99519 66.102 198.796091 9.72113 22.846402 37.782721 16.2356 43.612028 0.683959 2.309566-6.321805 2.961013-27.688303 2.924888-36.271508-0.157744-38.845988-8.286984-78.086939-19.681887-106.332765-9.539303-23.639939-19.67105-41.76606-34.521873-61.156542-26.444413-34.629043-50.195134-51.959219-84.690516-74.651489-14.140373-9.267164-70.858406-36.473806-90.855782-36.393128-13.246891 0.051779-22.461073 10.885547-22.412907 24.51295z" p-id="20767"></path><path d="M734.050701 188.17305c0.044554 13.497355 10.86628 19.719216 22.163648 22.865669 10.747069 2.958605 21.684394 7.826997 31.704154 13.186683 17.574619 9.382763 38.247524 25.619567 49.535258 40.425838 46.72356 60.934978 17.213373 103.689648 34.642289 123.204158 13.869439 15.651586 40.811167 5.293458 40.734101-14.703917l-0.125232-30.00389c-0.18544-47.990329-24.225158-94.467037-48.732088-118.427281-18.776364-18.512654-22.232284-22.917447-46.819892-37.4865-17.828695-10.488176-83.293698-46.1263-83.102238 0.93924zM996.934244 627.162822C959.902915 552.573948 880.864695 495.141853 797.145931 495.472995l-18.828143 0.073453c-0.056595-44.729482-9.766888-80.958845-26.639485-114.268136-9.766888-19.291741-22.551385-42.191126-37.275772-58.459238l-32.887838-32.691561c-12.18242-11.37082-43.598782-31.551227-59.391253-37.998264-54.422917-22.249142-68.303193-25.743595-131.593495-25.491927-16.988196 0.06382-41.13388 4.391547-55.409118 8.502527-26.403471 7.646374-45.383337 15.941787-68.698155 28.926172-47.614633 26.385409-83.74646 70.958351-107.658538 119.159407-7.666845 15.36861-11.974101 27.654587-17.354259 46.274411-3.997789 13.815252-8.538652 44.215308-8.488077 56.973313l0.040941 11.228731c-79.847411 0.317896-144.474324 36.83746-189.183334 97.950653-95.83616 131.00948-22.919856 330.396811 143.044993 362.754821 40.14527 7.818568 83.174487 2.309566 128.565049 2.131351l423.604304-1.676181c13.437148-0.052983 20.987189 1.511213 31.78122 1.837538 24.474418 0.643018 43.173716-0.415433 63.332448-4.543271 103.017731-21.089542 185.562445-116.89319 185.167483-217.773549-0.175806-43.318214-3.482412-73.318492-22.340658-111.220423z m-397.377843 50.999508l0.102353 28.021854-71.191956 0.285384 0.168581 41.017077 71.195569-0.288997 0.111986 28.042324-71.201589 0.275751 0.237218 60.36421-36.619509 0.140886-0.211931-53.937643c-0.022879-4.944254-1.511213-6.416933-6.515674-6.395259l-66.8269 0.262506-0.108374-28.036304 73.305246-0.282976-0.155336-41.017077-73.311267 0.293814-0.11319-28.02667 62.523256-0.255281c-6.260393-11.76217-12.081271-20.913736-18.83898-32.962495-6.389238-11.410558-12.503929-21.125667-19.319437-32.550674-13.355265-22.388824-25.783332-43.300152-37.803191-65.775675l38.812272-0.15654 41.220579 75.377594c3.059754 5.777528 5.687216 9.15277 8.739745 15.002547 3.980931 7.609045 13.290241 24.161338 15.153066 32.274924l4.379506-0.015654c3.677484-16.323503 56.991376-113.891236 64.152476-123.168034l36.694166-0.143294-37.921198 65.525211c-7.415177 13.514213-34.571244 55.492205-37.060229 66.369322l60.402742-0.240831z" p-id="20768"></path></svg>