<?xml version="1.0" standalone="no"?><!DOCTYPE svg PUBLIC "-//W3C//DTD SVG 1.1//EN" "http://www.w3.org/Graphics/SVG/1.1/DTD/svg11.dtd"><svg t="1557117094009" class="icon" style="" viewBox="0 0 1024 1024" version="1.1" xmlns="http://www.w3.org/2000/svg" p-id="3182" xmlns:xlink="http://www.w3.org/1999/xlink" width="300" height="300"><defs><style type="text/css"></style></defs><path d="M512 32.2C229.2 32.2 0 232 0 478.5c0 151.7 86.8 285.6 219.4 366.3v45.5l0.8 101.6 76.7-55.4c-0.8-0.3-1.7-0.6-2.5-0.9l43.9-37.2c54.3 17 112.7 26.4 173.7 26.4 282.8 0 512-199.8 512-446.3S794.8 32.2 512 32.2zM301.2 525.7c-11.8 11.8-28.4 18.7-45.1 18.7s-33.3-6.9-45.1-18.7c-11.8-11.8-18.6-28.5-18.6-45.1 0-16.7 6.9-33.4 18.6-45.1 11.8-11.8 28.4-18.7 45.1-18.7s33.3 6.9 45.1 18.7c11.8 11.8 18.6 28.5 18.6 45.1 0.3 16.6-6.6 33.3-18.6 45.1z m255.2 0c-11.8 11.8-28.4 18.7-45.1 18.7-16.7 0-33.3-6.9-45.1-18.7-11.8-11.8-18.6-28.5-18.6-45.1 0-16.7 6.9-33.4 18.6-45.1 11.8-11.8 28.4-18.7 45.1-18.7 16.7 0 33.3 6.9 45.1 18.7 11.8 11.8 18.6 28.5 18.6 45.1 0.1 16.6-6.8 33.3-18.6 45.1z m256.7 0c-11.9 11.8-28.9 18.7-45.8 18.7s-33.8-6.9-45.8-18.7c-11.9-11.8-18.9-28.5-18.9-45.1 0-16.7 7-33.4 18.9-45.1 11.9-11.8 28.9-18.7 45.8-18.7s33.8 6.9 45.8 18.7c12 11.8 18.9 28.5 18.9 45.1s-6.9 33.3-18.9 45.1z m0 0" p-id="3183"></path></svg>