<?xml version="1.0" standalone="no"?><!DOCTYPE svg PUBLIC "-//W3C//DTD SVG 1.1//EN" "http://www.w3.org/Graphics/SVG/1.1/DTD/svg11.dtd"><svg t="1563979488567" class="icon" viewBox="0 0 1024 1024" version="1.1" xmlns="http://www.w3.org/2000/svg" p-id="3810" xmlns:xlink="http://www.w3.org/1999/xlink" width="200" height="200"><defs><style type="text/css"></style></defs><path d="M338.933902 615.285667a311.56387 311.56387 0 0 1-54.321654-4.938332 307.523416 307.523416 0 1 1 305.727659-479.018226 307.523416 307.523416 0 0 1-251.406005 483.956558z m0-548.154877a240.631461 240.631461 0 1 0 197.533289 102.807099 240.631461 240.631461 0 0 0-198.880106-102.807099z" fill="#8a8a8a" p-id="3811"></path><path d="M445.691666 534.65617l62.178093-43.457323 342.136635 489.343829-62.178092 43.457324z" fill="#8a8a8a" p-id="3812"></path><path d="M602.999995 760.023696l178.857414-124.9847 43.457324 62.178092-178.857415 124.9847zM747.109508 957.73656l202.381833-141.415877 43.457324 62.178092-202.381834 141.415877z" fill="#8a8a8a" p-id="3813"></path><path d="M270.181383 210.13663m-51.87802 36.271432a63.30044 63.30044 0 1 0 103.75604-72.542865 63.30044 63.30044 0 1 0-103.75604 72.542865Z" fill="#8a8a8a" p-id="3814"></path></svg>