<?xml version="1.0" standalone="no"?><!DOCTYPE svg PUBLIC "-//W3C//DTD SVG 1.1//EN" "http://www.w3.org/Graphics/SVG/1.1/DTD/svg11.dtd"><svg t="1551776256292" class="icon" style="" viewBox="0 0 1243 1024" version="1.1" xmlns="http://www.w3.org/2000/svg" p-id="2188" xmlns:xlink="http://www.w3.org/1999/xlink" width="242.7734375" height="200"><defs><style type="text/css"></style></defs><path d="M598.4 771.2c7.199 7.199 14.4 7.199 21.599 7.199s21.599 0 21.599-7.199l280.799-280.801c7.201-7.199 7.201-14.4 7.201-21.601s-7.201-21.599-7.201-21.599c-14.4-14.4-36.001-14.4-50.399 0l-223.199 216V108.8c0-21.601-14.4-36.001-36.001-36.001s-36.001 14.4-36.001 36.001v554.399l-223.199-216c-14.4-14.4-36.001-14.4-50.401 0-7.199 7.199-7.199 14.4-7.199 21.599 0 7.201 7.199 21.601 7.199 21.601l295.199 280.799z" fill="" p-id="2189"></path><path d="M1131.2 713.6c-21.601 0-36.001 14.4-36.001 36.001v108.001c0 14.4-7.201 21.599-21.601 21.599h-907.2c-14.4 0-21.599-7.199-21.599-21.599V749.601c0-21.599-14.4-36.001-36.001-36.001S72.797 728 72.797 749.601v108.001c0 50.399 43.2 93.599 93.599 93.599h907.2c50.399 0 93.601-43.2 93.601-93.599V749.601c0-21.599-14.4-36.001-36.001-36.001z" fill="" p-id="2190"></path></svg>