<?xml version="1.0" standalone="no"?><!DOCTYPE svg PUBLIC "-//W3C//DTD SVG 1.1//EN" "http://www.w3.org/Graphics/SVG/1.1/DTD/svg11.dtd"><svg t="1553332635087" class="icon" style="" viewBox="0 0 1024 1024" version="1.1" xmlns="http://www.w3.org/2000/svg" p-id="5004" xmlns:xlink="http://www.w3.org/1999/xlink" width="200" height="200"><defs><style type="text/css"></style></defs><path d="M852.48 517.3248c0 10.4448-3.9936 20.8896-11.9808 28.8768L540.5696 846.1312c-15.9744 15.9744-41.8816 15.9744-57.856 0L182.8864 546.2016c-15.9744-15.9744-15.9744-41.8816 0-57.856 15.9744-15.9744 41.8816-15.9744 57.856 0l270.9504 270.9504L782.6432 488.448c15.9744-15.9744 41.8816-15.9744 57.856 0 7.9872 7.8848 11.9808 18.432 11.9808 28.8768z m0-309.5552c0 10.4448-3.9936 20.8896-11.9808 28.9792L540.5696 536.576c-15.9744 15.9744-41.8816 15.9744-57.856 0L182.8864 236.7488c-15.9744-15.9744-15.9744-41.8816 0-57.856 15.9744-15.9744 41.8816-15.9744 57.856 0l270.9504 270.9504 270.9504-270.9504c15.9744-15.9744 41.8816-15.9744 57.856 0 7.9872 7.9872 11.9808 18.432 11.9808 28.8768z m0 0" p-id="5005"></path></svg>