<?xml version="1.0" standalone="no"?><!DOCTYPE svg PUBLIC "-//W3C//DTD SVG 1.1//EN" "http://www.w3.org/Graphics/SVG/1.1/DTD/svg11.dtd"><svg t="1553127835293" class="icon" style="" viewBox="0 0 1336 1024" version="1.1" xmlns="http://www.w3.org/2000/svg" p-id="2346" xmlns:xlink="http://www.w3.org/1999/xlink" width="260.9375" height="200"><defs><style type="text/css"></style></defs><path d="M490.537438 263.49899c81.713131-58.440404 182.561616-70.593939 271.644445-41.761616l37.882828-14.222222c-103.046465-44.606061-226.521212-35.684848-324.783838 34.391919-47.321212 33.874747-83.264646 77.963636-106.925253 126.965656l37.882828-13.963636c20.945455-35.038384 49.131313-66.068687 84.29899-91.410101z m153.082829-130.585859l27.280808 1.551515-9.69697-24.824242 11.377778-25.212121-27.668687 2.456565L624.484913 69.818182l-7.369697 26.50505-23.789899 14.610101 22.884849 13.575758 5.430303 26.246465 21.979798-17.842425zM309.139459 300.735354l-26.634344 0.387878 11.765657 24.824243-8.662627 26.634343 26.505051-4.525252L333.575822 364.218182l4.525253-27.79798 21.979798-16.678788-23.40202-12.541414-7.757576-26.505051-19.781818 20.040405z m145.454545-149.59192l-25.341414-7.757575 3.749495 27.280808-16.290909 22.755555 26.50505 3.749495 15.515152 21.979798 12.670707-24.953535 25.858586-9.438384-18.488889-18.876768 0.387879-27.668687-24.565657 12.929293z m338.230303-37.10707l-28.056566 0.387878 12.670707 23.402021-8.274747 25.341414 27.668687-4.525253 22.884848 15.385859 4.39596-26.246465 22.49697-15.90303-24.953536-11.765657-8.921212-25.212121-19.911111 19.135354z m359.692929-10.472728l-1118.125252 418.909091c-27.410101 10.343434-41.244444 40.856566-31.030303 68.266667l111.838384 298.020202c10.343434 27.410101 40.856566 41.244444 68.266666 31.030303l1118.125253-418.909091c27.410101-10.343434 41.244444-40.856566 31.030303-68.266667l-111.838384-297.890909c-9.955556-27.280808-40.856566-41.50303-68.266667-31.159596z m48.226263 53.010101l102.270707 273.325253c7.628283 20.557576-2.715152 43.70101-23.272727 51.2L186.699055 890.440404c-20.557576 7.628283-43.70101-2.585859-51.2-23.272727l-102.270708-273.325253c-7.628283-20.557576 2.585859-43.70101 23.272728-51.2L1149.672792 133.171717c20.29899-7.628283 43.183838 2.844444 51.070707 23.40202zM390.335418 123.345455C570.440469-5.30101 808.727337 9.050505 971.765721 143.127273l28.573738-10.731313C828.25057-18.230303 569.276832-36.848485 375.208145 101.753535 257.422287 185.923232 186.828347 311.337374 168.727337 444.121212l28.315152-10.731313C216.9536 312.630303 283.15158 199.757576 390.335418 123.345455zM929.616226 668.70303c-20.945455 34.779798-49.131313 66.19798-84.29899 91.410101-81.713131 58.440404-182.561616 70.593939-271.644444 41.761616l-37.882828 14.222223c103.046465 44.606061 226.521212 35.684848 324.525252-34.391919 47.321212-33.874747 83.393939-77.963636 106.925253-126.965657L929.616226 668.70303zM729.987943 879.062626l-27.280808-1.680808 9.69697 24.824243-11.119192 24.953535 27.410101-2.327273 20.428283 17.19596 7.240404-26.246465 23.660606-14.610101-22.884848-13.575757-5.430303-26.246465-21.721213 17.713131z m180.105051-28.185858l25.341414 7.757575-3.749495-27.022222 16.032323-22.755555-26.50505-4.008081-15.256566-21.591919L893.414206 808.080808l-25.6 9.309091 18.488889 18.876768-0.387879 27.668687 24.177778-13.058586z m-369.907071 59.474747l27.79798 1.551515-11.119192-24.436363 10.214142-24.565657-27.668687 2.327273-21.59192-16.808081-6.076767 25.858586-23.40202 14.351515 23.789899 13.446465 6.981818 25.729293 21.074747-17.454546z m405.204041-9.69697C765.414206 1029.30101 527.127337 1014.949495 364.088954 880.614141l-28.573738 10.731314c171.959596 150.49697 431.062626 169.244444 625.131313 30.642424C1078.432388 837.818182 1149.026327 712.40404 1167.127337 579.620202l-28.315151 10.731313c-19.911111 120.759596-85.979798 233.632323-193.422222 310.30303zM1045.074812 709.818182l26.634344-0.387879-11.765657-24.565657 8.274747-26.50505-26.246464 4.525252-21.591919-16.290909-4.39596 27.410101L994.262691 690.424242l23.40202 12.541415 7.886869 26.50505 19.523232-19.652525z m0 0" p-id="2347" fill="#1faf08"></path><path d="M486.917236 692.105051c30.513131-11.507071 31.547475-22.884848 18.747475-68.913132 5.947475 1.551515 15.256566 1.422222 21.204041 0.517172 13.834343 51.975758 10.60202 70.076768-33.357576 86.626263l-104.856566 39.434343c-42.925253 16.161616-59.345455 13.446465-71.49899-19.006061L264.921277 591.90303l18.488889-6.981818 17.454545 46.545455 147.135354-55.337374-27.927273-74.472727-180.751515 68.00808-6.852525-18.10101 199.498989-74.989899 46.804041 124.379798-18.747475 6.981819-5.171717-13.705051-147.264647 55.078788 28.185859 75.119192c6.464646 17.325253 14.610101 19.006061 44.347475 7.757576l106.795959-40.080808zM784.808145 476.315152l-61.931313 23.272727 44.218182 117.527273-18.747475 6.981818-44.218181-117.527273-80.032324 30.125252c12.8 44.864646 14.480808 92.832323-24.436363 143.903031-4.525253-2.715152-13.446465-6.593939-19.264647-7.886869 35.814141-46.80404 35.814141-89.470707 24.953536-129.034343l-65.163637 24.565656-6.593939-17.583838 66.327273-24.953535c-1.292929-4.266667-2.844444-8.40404-4.39596-12.541415l-25.470707-67.620202-56.113131 21.074748-6.59394-17.583839 225.357576-84.686868 6.593939 17.583838-53.139394 19.911111 30.125253 80.032323 61.931313-23.272727 6.593939 17.713132z m-87.272727 12.670707l-30.125252-80.032324-78.99798 29.737374 25.470707 67.620202c1.551515 4.137374 3.10303 8.274747 4.39596 12.541414l79.256565-29.866666zM855.919257 327.369697l-77.834344 29.220202-5.688889-15.127273 236.347475-88.824242 5.688889 15.127273-77.834344 29.220202 8.533334 22.496969 64.646464-24.30707 23.402021 62.189899-206.610101 77.70505-23.402021-62.189899 61.414142-23.014141-8.662626-22.49697z m-17.842425 87.014141l44.347475-16.678787-12.670707-33.616162-44.347475 16.678788 12.670707 33.616161z m233.890909-9.309091l5.688889 15.127273-113.131313 42.537374 18.747475 49.777778c3.749495 9.955556 3.232323 15.385859-3.361616 21.074747-6.981818 5.688889-19.264646 10.731313-39.563637 18.359596-2.844444-4.913131-8.016162-10.472727-12.412121-14.480808 16.420202-5.559596 29.349495-10.472727 33.616162-12.282828 3.878788-1.422222 4.266667-2.844444 2.973737-6.206061l-18.488889-49.260606-112.614141 42.278788-5.688889-15.127273 244.234343-91.79798z m-218.375757 58.828283l-5.559596-14.868687 177.389899-66.715151 5.559596 14.868687-177.389899 66.715151z m62.189899 32.452526c-8.921212 26.246465-28.185859 55.466667-46.416162 76.153535-4.137374-1.939394-13.705051-5.559596-18.618182-6.852525 19.652525-19.652525 37.882828-45.381818 46.028283-68.783839l19.006061-0.517171z m3.490909-192.775758l-46.157576 17.325253 8.533333 22.496969 46.157576-17.325252-8.533333-22.49697z m-19.781818 87.789899l46.157575-17.325253-12.670707-33.616161-46.157575 17.325252 12.670707 33.616162z m50.941414-57.406061l12.670707 33.616162 46.545454-17.454545-12.670707-33.616162-46.545454 17.454545z m61.931313 120.50101c27.151515 3.620202 63.224242 11.119192 83.135354 18.101011l-9.955556 16.290909c-18.747475-7.369697-54.820202-15.515152-82.747475-19.781819l9.567677-14.610101z" p-id="2348" fill="#1faf08"></path></svg>