<?xml version="1.0" standalone="no"?><!DOCTYPE svg PUBLIC "-//W3C//DTD SVG 1.1//EN" "http://www.w3.org/Graphics/SVG/1.1/DTD/svg11.dtd"><svg t="1551485924813" class="icon" style="" viewBox="0 0 1024 1024" version="1.1" xmlns="http://www.w3.org/2000/svg" p-id="44104" xmlns:xlink="http://www.w3.org/1999/xlink" width="200" height="200"><defs><style type="text/css"></style></defs><path d="M142.222222 0v1024l372.906667-204.8L881.777778 1024V0z m288.711111 424.106667l-59.164444 133.12a15.36 15.36 0 0 1-28.444445 2.275555 15.075556 15.075556 0 0 1-1.991111-15.075555l59.164445-133.12a15.644444 15.644444 0 0 1 8.817778-8.248889 15.36 15.36 0 0 1 12.231111 0 13.937778 13.937778 0 0 1 9.386666 21.048889z m2.56-56.888889a15.075556 15.075556 0 0 1-14.506666 9.102222 15.36 15.36 0 0 1-12.515556-6.542222l-61.724444-79.644445a14.222222 14.222222 0 0 1 2.56-22.471111 15.928889 15.928889 0 0 1 11.946666-3.413333 16.213333 16.213333 0 0 1 10.524445 6.542222l62.008889 79.644445a17.635556 17.635556 0 0 1 1.706666 16.782222zM682.666667 458.808889a47.502222 47.502222 0 0 1-47.786667 47.786667h-50.631111v72.533333a15.928889 15.928889 0 0 1-15.928889 15.928889 15.36 15.36 0 0 1-11.093333-4.835556 15.928889 15.928889 0 0 1-4.835556-11.093333v-88.462222a13.937778 13.937778 0 0 1 15.928889-15.928889h67.413333a14.506667 14.506667 0 0 0 11.093334-4.835556 15.36 15.36 0 0 0 4.835555-11.093333V341.333333a14.506667 14.506667 0 0 0-4.835555-11.093333 13.653333 13.653333 0 0 0-11.093334-4.835556H500.622222a14.791111 14.791111 0 0 0-11.093333 4.835556 14.506667 14.506667 0 0 0-5.973333 11.093333v117.475556a15.36 15.36 0 0 0 4.835555 11.093333 15.928889 15.928889 0 0 0 11.093333 4.835556h24.462223a13.937778 13.937778 0 0 1 15.928889 15.928889 15.36 15.36 0 0 1-4.835556 11.093333 14.506667 14.506667 0 0 1-11.093333 4.835556h-23.324445a47.502222 47.502222 0 0 1-47.786666-47.786667V341.333333a46.364444 46.364444 0 0 1 13.937777-33.848889 47.217778 47.217778 0 0 1 33.848889-13.937777h51.768889V256a14.506667 14.506667 0 0 1 4.835556-11.093333 15.36 15.36 0 0 1 11.662222-3.697778 15.36 15.36 0 0 1 11.377778 4.835555 14.222222 14.222222 0 0 1 4.551111 11.093334v36.408889h51.484444A47.502222 47.502222 0 0 1 682.666667 341.333333z m-131.128889-9.955556v-98.133333a14.506667 14.506667 0 0 1 4.835555-11.093333 15.36 15.36 0 0 1 11.093334-4.835556 15.36 15.36 0 0 1 11.377777 4.835556 14.222222 14.222222 0 0 1 4.551112 11.093333v98.133333a15.075556 15.075556 0 0 1-4.551112 11.093334 15.36 15.36 0 0 1-11.377777 4.835555 16.497778 16.497778 0 0 1-15.928889-15.928889z" p-id="44105" fill="#d81e06"></path></svg>