<?xml version="1.0" standalone="no"?><!DOCTYPE svg PUBLIC "-//W3C//DTD SVG 1.1//EN" "http://www.w3.org/Graphics/SVG/1.1/DTD/svg11.dtd"><svg t="1551485527067" class="icon" style="" viewBox="0 0 1024 1024" version="1.1" xmlns="http://www.w3.org/2000/svg" p-id="30855" data-spm-anchor-id="a313x.7781069.0.i15" xmlns:xlink="http://www.w3.org/1999/xlink" width="200" height="200"><defs><style type="text/css"></style></defs><path d="M94.72 0v778.24l427.52 245.76 407.04-245.76V0h-834.56zM501.76 508.928l3.072 3.072-26.112 40.448-4.608-5.632c-21.504-26.112-43.008-48.64-65.024-68.608v203.776H363.52V478.208c-20.992 20.48-44.032 40.96-69.12 60.928l-6.144 4.608-13.824-46.592 2.56-2.048C346.112 439.808 393.728 385.024 418.816 332.8H288.768v-43.52H368.64c-8.192-22.016-17.408-42.496-27.648-61.952l-3.072-5.632 45.568-12.288 2.048 4.096c11.776 24.576 22.016 49.152 29.184 72.704l1.024 3.584h51.712v35.84l-0.512 1.024C454.144 360.96 435.2 394.24 408.576 428.032v4.096c7.168 5.12 14.848 10.24 22.016 15.36 14.848-10.24 28.672-25.088 41.984-43.52l3.584-5.12 29.184 28.672-2.56 3.584c-12.8 16.896-26.112 30.72-40.448 41.472 12.8 10.752 25.6 23.04 39.424 36.352z m220.672 16.896l-4.096-4.096c-44.544-39.936-81.408-70.144-111.616-92.16v251.904h-46.08V211.968h46.08v167.424c44.032 28.672 89.6 62.464 139.776 103.424l3.584 3.072-27.648 39.936z" fill="#1faf08" p-id="30856" data-spm-anchor-id="a313x.7781069.0.i16" class="selected"></path></svg>