<?xml version="1.0" standalone="no"?><!DOCTYPE svg PUBLIC "-//W3C//DTD SVG 1.1//EN" "http://www.w3.org/Graphics/SVG/1.1/DTD/svg11.dtd"><svg t="1553250708917" class="icon" style="" viewBox="0 0 1024 1024" version="1.1" xmlns="http://www.w3.org/2000/svg" p-id="4040" xmlns:xlink="http://www.w3.org/1999/xlink" width="200" height="200"><defs><style type="text/css"></style></defs><path d="M857.976845 357.026382h-100.914915v-111.924438C757.06193 109.958044 647.149616 0 511.994284 0S266.926638 109.958044 266.926638 245.101944v111.924438H166.023155A77.112394 77.112394 0 0 0 89.139412 433.910125v513.206132a77.112394 77.112394 0 0 0 76.883743 76.883743H857.976845a76.860878 76.860878 0 0 0 76.883743-76.883743v-513.206132a76.860878 76.860878 0 0 0-76.883743-76.883743z m-512.817426-111.924438c0-92.008976 74.860186-166.914892 166.834865-166.914893s166.834865 74.860186 166.834864 166.914893v111.924438H345.159419zM550.441872 755.690027v63.050385a51.183423 51.183423 0 0 1-51.126261 51.514967h-0.765979a51.183423 51.183423 0 0 1-51.12626-51.514967V755.690027a128.398709 128.398709 0 1 1 103.029932 0z" fill="#DD1D1D" p-id="4041"></path></svg>