<?xml version="1.0" standalone="no"?><!DOCTYPE svg PUBLIC "-//W3C//DTD SVG 1.1//EN" "http://www.w3.org/Graphics/SVG/1.1/DTD/svg11.dtd"><svg t="1553073766801" class="icon" style="" viewBox="0 0 1024 1024" version="1.1" xmlns="http://www.w3.org/2000/svg" p-id="2056" xmlns:xlink="http://www.w3.org/1999/xlink" width="200" height="200"><defs><style type="text/css"></style></defs><path d="M428.8 652.8C320 650.666667 213.333333 642.133333 106.666667 627.2 46.933333 618.666667 64 597.333333 59.733333 544L46.933333 384c-6.4-93.866667-6.4-187.733333 0-281.6 2.133333-51.2 277.333333-27.733333 317.866667-27.733333h285.866667c104.533333 0 315.733333-44.8 326.4 106.666666 6.4 87.466667 4.266667 177.066667 6.4 266.666667 0 53.333333 2.133333 106.666667 2.133333 162.133333 0 46.933333-117.333333 34.133333-145.066667 36.266667-17.066667 0-17.066667 27.733333 0 27.733333 53.333333-2.133333 106.666667-6.4 157.866667-8.533333 6.4 0 12.8-6.4 12.8-12.8-2.133333-142.933333-2.133333-288-6.4-430.933333-2.133333-72.533333 2.133333-153.6-81.066667-168.533334-123.733333-23.466667-270.933333 0-394.666666 0-164.266667 0-326.4 0-490.666667 2.133334-8.533333 0-12.8 6.4-12.8 12.8C17.066667 162.133333 17.066667 256 21.333333 349.866667c4.266667 85.333333-2.133333 202.666667 23.466667 285.866666 10.666667 34.133333 70.4 25.6 98.133333 29.866667 96 12.8 192 19.2 288 21.333333 14.933333-6.4 14.933333-34.133333-2.133333-34.133333z" fill="#010101" p-id="2057"></path><path d="M305.066667 430.933333c-23.466667 2.133333-93.866667 19.2-98.133334-23.466666-2.133333-32-21.333333-115.2 44.8-113.066667 81.066667 2.133333 162.133333 2.133333 241.066667 4.266667s162.133333 2.133333 241.066667 4.266666c100.266667 2.133333 121.6 142.933333 14.933333 142.933334-17.066667 0-17.066667 25.6 0 27.733333 27.733333 0 57.6 4.266667 83.2-2.133333 4.266667-2.133333 8.533333-4.266667 8.533333-8.533334 8.533333-34.133333 23.466667-170.666667-25.6-181.333333-61.866667-14.933333-140.8-2.133333-204.8-4.266667-93.866667-2.133333-187.733333-2.133333-281.6-4.266666-125.866667-2.133333-157.866667-27.733333-153.6 102.4 2.133333 113.066667 19.2 93.866667 128 87.466666 19.2-6.4 19.2-32 2.133334-32z" fill="#010101" p-id="2058"></path><path d="M258.133333 386.133333c70.4 87.466667 123.733333 211.2 166.4 313.6 34.133333 85.333333 14.933333 185.6 53.333334 268.8 14.933333 29.866667 162.133333 8.533333 189.866666 8.533334 91.733333 0 213.333333 21.333333 300.8-2.133334 6.4-2.133333 10.666667-6.4 10.666667-12.8-2.133333-74.666667-64-166.4-93.866667-234.666666-42.666667-100.266667-85.333333-198.4-128-298.666667-29.866667-70.4-25.6-81.066667-100.266666-81.066667H281.6c-17.066667 0-17.066667 27.733333 0 27.733334h375.466667c70.4 0 68.266667 42.666667 91.733333 98.133333 34.133333 76.8 66.133333 155.733333 100.266667 232.533333 10.666667 25.6 119.466667 245.333333 68.266666 245.333334H629.333333c-59.733333 0-128 19.2-140.8-76.8-4.266667-38.4-10.666667-74.666667-17.066666-110.933334-23.466667-132.266667-106.666667-292.266667-192-396.8-14.933333-12.8-34.133333 6.4-21.333334 19.2zM181.333333 198.4H277.333333c17.066667 0 17.066667-27.733333 0-27.733333H181.333333c-17.066667 2.133333-17.066667 27.733333 0 27.733333zM339.2 196.266667c40.533333-2.133333 83.2-2.133333 123.733333 0 17.066667 0 17.066667-25.6 0-25.6h-123.733333c-17.066667-2.133333-17.066667 25.6 0 25.6z" fill="#010101" p-id="2059"></path></svg>