<?xml version="1.0" standalone="no"?><!DOCTYPE svg PUBLIC "-//W3C//DTD SVG 1.1//EN" "http://www.w3.org/Graphics/SVG/1.1/DTD/svg11.dtd"><svg t="1544595529877" class="icon" style="" viewBox="0 0 1024 1024" version="1.1" xmlns="http://www.w3.org/2000/svg" p-id="5385" xmlns:xlink="http://www.w3.org/1999/xlink" width="200" height="200"><defs><style type="text/css"></style></defs><path d="M807.079 893.356zM312.474 185.171zM320.074 510.101z" p-id="5386"></path><path d="M6.017 977.169v-161.17H51.1v-35.966H6.017V625.759H51.1v-35.966H6.017V435.529H51.1v-35.975H6.017V245.29H51.1v-35.966H6.017V48.227l1014.957 0.096-0.117 161.001h-45.064v35.966h45.064v154.264h-45.064v35.975h45.064v154.264h-45.064v35.972h45.064v154.268h-45.064v35.966h45.064v160.99l-1014.84 0.18m48.66-111.714l0.077 62.148H972.94l-0.47-62.148h-43.094V730.582h45.089v-55.361h-45.089V540.34h45.089v-55.353h-45.089V350.11h45.089v-55.365h-45.089V159.87h43.088l-0.492-62.09H53.891l0.523 62.09H97.5v134.875H52.414v55.365h45.087v134.871H52.414v55.359h45.087v134.871H52.414v55.359h45.087v134.881H54.679v0.004h-0.002m0 0z" p-id="5387"></path><path d="M806.298 236.257v68.429H635.434v28.878h152.181v81.698c1.816 61.456-25.852 91.239-82.696 89.549H224.347V333.564h149.56v-28.878H208.408v-68.429h597.89m5.352 381.817v68.437H576.772v44.836c1.725 66.752-31.999 98.326-101.486 94.837h-74.724v-63.265h21.3c24.95 0 36.564-12.248 34.745-36.851v-39.562H194.955v-68.431H811.65m-42.713-92.135v68.435H240.408V525.94h528.529m-56.035 173.721c19.575 36.964 50.686 60.674 93.396 71.117v57.99c-106.734-12.25-175.311-55.282-205.482-129.105h112.086v-0.002m-411.092 0h112.086c-32.019 75.503-101.375 118.538-208.228 129.105v-57.99c44.525-10.441 76.542-34.145 96.142-71.115m176.216-302.832v44.723h53.295v-44.723h-53.295m-149.566 0v44.723h45.447v-44.723H328.46m355.041 0h-48.066v44.723h21.424c19.468 1.797 28.474-6.967 26.642-26.289v-18.434m-205.475-92.143v28.878h53.295v-28.878h-53.295m0 0z" p-id="5388"></path></svg>