<?xml version="1.0" standalone="no"?><!DOCTYPE svg PUBLIC "-//W3C//DTD SVG 1.1//EN" "http://www.w3.org/Graphics/SVG/1.1/DTD/svg11.dtd"><svg t="1551689969262" class="icon" style="" viewBox="0 0 1090 1024" version="1.1" xmlns="http://www.w3.org/2000/svg" p-id="2837" xmlns:xlink="http://www.w3.org/1999/xlink" width="212.890625" height="200"><defs><style type="text/css"></style></defs><path d="M831.311828 368.860215C694.778495 368.860215 583.569892 480.068817 583.569892 616.602151s111.208602 247.741935 247.741936 247.741935S1079.053763 753.135484 1079.053763 616.602151 967.845161 368.860215 831.311828 368.860215z m0 450.339785c-111.208602 0-202.597849-91.389247-202.59785-202.597849s91.389247-202.597849 202.59785-202.59785S1033.909677 505.393548 1033.909677 616.602151s-90.288172 202.597849-202.597849 202.597849zM138.735484 470.15914h249.944086v63.862365H138.735484z" fill="" p-id="2838"></path><path d="M976.653763 140.937634c0-71.569892-59.458065-129.926882-132.129032-129.926881H111.208602v74.873118h733.316129c29.729032 0 53.952688 25.324731 53.952688 55.053763V275.268817h78.176344V140.937634zM138.735484 308.301075h338.030107v63.862366H138.735484z" fill="" p-id="2839"></path><path d="M82.580645 236.731183c0-9.909677 8.808602-18.71828 18.71828-18.71828h571.458064c9.909677 0 18.71828 8.808602 18.71828 18.71828V275.268817H770.752688v-38.537634c0-51.750538-44.043011-93.591398-97.995699-93.591398H102.4C48.447312 143.139785 4.404301 184.980645 4.404301 236.731183V275.268817h78.176344v-38.537634zM82.580645 710.193548V275.268817H4.404301v450.339785c0 9.909677 4.404301 18.71828 11.010753 26.425807l165.16129 161.858064h109.006452L82.580645 710.193548z" fill="" p-id="2840"></path><path d="M347.939785 699.182796c0-14.313978-12.111828-26.425806-27.526882-26.425807H140.937634V726.709677h150.847312v187.182796h56.154839V699.182796z" fill="" p-id="2841"></path><path d="M347.939785 916.094624v-3.303226h-56.154839v2.20215l-2.20215-2.20215h-109.006452l68.266667 66.064516c7.707527 7.707527 17.617204 11.010753 27.526881 11.010753h396.387097c48.447312 0 88.086022-34.133333 95.793549-78.176344H682.666667c-3.303226 2.202151-6.606452 3.303226-9.909678 3.303225H347.939785zM907.286022 564.851613c0 29.729032-28.627957 14.313978-28.627957 14.313978l-34.133334-33.032258v177.273119c0 12.111828-3.303226 20.92043-15.415054 20.92043s-15.415054-8.808602-15.415053-20.92043V546.133333l-34.133334 33.032258c-6.606452 6.606452-28.627957 17.617204-28.627957-14.313978 8.808602-11.010753 61.660215-63.862366 61.660215-63.862366 4.404301-4.404301 9.909677-6.606452 16.516129-6.606451s12.111828 2.202151 16.516129 6.606451c0 0 50.649462 52.851613 61.660216 63.862366z m0 0" fill="" p-id="2842"></path><path d="M829.109677 747.630108c-8.808602 0-19.819355-4.404301-19.819354-24.223656V554.941935L781.763441 581.367742c-4.404301 5.505376-15.415054 11.010753-24.223656 7.707527-7.707527-3.303226-11.010753-11.010753-11.010753-24.223656v-1.101075l1.101076-1.101076c8.808602-11.010753 59.458065-62.76129 61.660215-64.96344 4.404301-5.505376 12.111828-7.707527 18.718279-7.707527 6.606452 0 13.212903 2.202151 17.617204 6.606451l1.101076 1.101076s51.750538 52.851613 61.660215 63.862365l-3.303226 2.202151h3.303226v9.909677l-1.101075-1.101075c-1.101075 5.505376-3.303226 8.808602-7.707527 11.010752-9.909677 5.505376-24.223656-1.101075-25.324732-2.20215l-1.101075-1.101075-25.324731-25.324732v168.464517c0 19.819355-9.909677 24.223656-18.71828 24.223656z m-12.111828-211.406452v186.08172c0 15.415054 5.505376 16.516129 12.111828 16.516129 5.505376 0 12.111828-2.202151 12.111828-16.516129V536.223656l40.739785 39.63871c3.303226 2.202151 12.111828 5.505376 17.617205 2.20215 3.303226-2.202151 4.404301-5.505376 4.404301-12.111828-11.010753-12.111828-51.750538-53.952688-59.458065-61.660215l-1.101075-1.101075c-6.606452-7.707527-19.819355-7.707527-27.526882 0-1.101075 1.101075-50.649462 49.548387-60.55914 62.76129 0 8.808602 2.202151 14.313978 5.505377 15.415054 5.505376 2.202151 12.111828-2.202151 15.415054-5.505376l40.739784-39.63871z" fill="#231815" p-id="2843"></path></svg>