<?xml version="1.0" standalone="no"?><!DOCTYPE svg PUBLIC "-//W3C//DTD SVG 1.1//EN" "http://www.w3.org/Graphics/SVG/1.1/DTD/svg11.dtd"><svg t="1550390715061" class="icon" style="" viewBox="0 0 1024 1024" version="1.1" xmlns="http://www.w3.org/2000/svg" p-id="5609" xmlns:xlink="http://www.w3.org/1999/xlink" width="200" height="200"><defs><style type="text/css"></style></defs><path d="M895.93 736.813l-63.941 0 0 191.823-639.41 0L192.579 736.813l-63.941 0c-35.311 0-63.941-28.627-63.941-63.941L64.697 161.345c0-35.311 28.63-63.941 63.941-63.941L895.93 97.404c35.311 0 63.939 28.63 63.939 63.941l0 511.527C959.869 708.187 931.24 736.813 895.93 736.813zM224.549 513.021l0 31.971 0 31.97 0 63.942 0 255.765 575.469 0L800.018 640.903l0-63.942 0-31.97 0-31.971 0 0L224.549 513.02 224.549 513.021zM831.988 481.051l0 63.94c17.672 0 31.969-14.299 31.969-31.971l0-31.97c0-17.672-14.297-31.971-31.969-31.971l-639.41 0c-17.672 0-31.971 14.299-31.971 31.971l0 31.97c0 17.672 14.299 31.971 31.971 31.971l0-63.94L831.988 481.051zM927.9 161.345c0-17.67-14.3-31.97-31.971-31.97L128.637 129.375c-17.671 0-31.97 14.3-31.97 31.97l0 511.527c0 17.672 14.299 31.972 31.97 31.972l63.941 0L192.578 576.961c-35.312 0-63.941-28.629-63.941-63.94l0-31.97c0-35.313 28.629-63.943 63.941-63.943l639.41 0c35.313 0 63.941 28.63 63.941 63.943l0 31.97c0 35.312-28.629 63.94-63.941 63.94l0 127.883 63.941 0c17.671 0 31.971-14.3 31.971-31.972L927.9 161.345zM800.018 353.168 224.549 353.168c-35.31 0-63.941-28.63-63.941-63.94l0-31.971c0-35.311 28.631-63.941 63.941-63.941l575.469 0c35.31 0 63.939 28.63 63.939 63.941l0 31.971C863.957 324.538 835.327 353.168 800.018 353.168zM831.988 257.256c0-17.67-14.299-31.969-31.971-31.969L224.549 225.287c-17.671 0-31.97 14.299-31.97 31.969l0 31.971c0 17.671 14.299 31.97 31.97 31.97l575.469 0c17.672 0 31.971-14.298 31.971-31.97L831.989 257.256zM544.253 672.872 288.49 672.872l0-31.969 255.763 0L544.253 672.872zM736.077 768.785 288.49 768.785l0-31.972 447.587 0L736.077 768.785z" p-id="5610"></path></svg>