<?xml version="1.0" standalone="no"?><!DOCTYPE svg PUBLIC "-//W3C//DTD SVG 1.1//EN" "http://www.w3.org/Graphics/SVG/1.1/DTD/svg11.dtd"><svg t="1548668353121" class="icon" style="" viewBox="0 0 1024 1024" version="1.1" xmlns="http://www.w3.org/2000/svg" p-id="17436" xmlns:xlink="http://www.w3.org/1999/xlink" width="200" height="200"><defs><style type="text/css"></style></defs><path d="M933.6832 227.396267c-170.552889 0-312.32 130.366578-329.591467 296.3456L557.738667 523.741867c16.110933-164.841244 149.117156-326.633244 378.515911-328.795022-124.336356-59.392-154.100622-62.759822-265.966933-60.507022-214.8352 4.3008-401.430756 174.967467-408.098133 389.302044L219.727644 523.741867c17.749333-241.413689 235.952356-428.009244 481.917156-428.009244 112.298667 0 193.695289 36.340622 230.4 58.7776 0.227556 0-0.182044 0 0 0 36.704711 22.482489 21.617778 8.647111 50.722133 40.072533C963.561244 189.053156 1003.633778 227.396267 933.6832 227.396267zM262.166756 545.974044c0 12.583822-10.171733 22.755556-22.7328 22.755556L112.389689 568.7296l308.974933 308.315022 309.498311-308.315022-150.368711 0c-12.561067 0-22.7328-10.171733-22.7328-22.755556l0-22.232178 218.794667 0 0-0.523378 8.556089 0c0.113778 0 0.2048 0.068267 0.295822 0.068267 5.870933-0.068267 11.741867 2.207289 16.224711 6.849422 8.829156 9.147733 8.829156 24.052622 0 33.200356L437.566578 925.969067c-0.091022 0.091022-0.113778 0.2048-0.182044 0.295822-4.414578 4.596622-10.24 6.894933-16.042667 6.872178-5.802667 0.022756-11.628089-2.275556-16.065422-6.872178-0.136533-0.159289-0.182044-0.341333-0.318578-0.477867L41.7792 563.336533c-2.366578-2.434844-3.982222-5.3248-5.074489-8.3968-1.183289-2.753422-1.865956-5.757156-1.865956-8.965689 0-12.561067 10.171733-22.755556 22.7328-22.755556l54.385778 0 14.631822 0.523378 135.600356 0L262.189511 545.974044z" p-id="17437"></path><path d="M960.170667 198.223644m-22.573511 0a0.992 0.992 0 1 0 45.147022 0 0.992 0.992 0 1 0-45.147022 0Z" p-id="17438"></path></svg>