<?xml version="1.0" standalone="no"?><!DOCTYPE svg PUBLIC "-//W3C//DTD SVG 1.1//EN" "http://www.w3.org/Graphics/SVG/1.1/DTD/svg11.dtd"><svg t="1551511873413" class="icon" style="" viewBox="0 0 1024 1024" version="1.1" xmlns="http://www.w3.org/2000/svg" p-id="45642" xmlns:xlink="http://www.w3.org/1999/xlink" width="200" height="200"><defs><style type="text/css"></style></defs><path d="M150.8 1018.7c-2 0-4.1-0.1-6.2-0.3l-1.8-0.2-1.8 0.3c-1.1 0.2-2.1 0.3-3.1 0.3-7.1 0-14-4-19-10.7l-0.6-0.8-0.7-0.7c-2.9-3-6.2-7.7-6.2-13.7 0-1 0.1-2.1 0.3-3.1l0.3-1.5-0.1-1.9v-0.9l-0.1-180.1-88.5 0.2c-9.9 0-18.6-13.3-18.6-28.7 0-15.2 8.7-28.7 18.6-28.7l88.5-0.1-0.1-206.4-88.4 0.2c-9.9 0-18.6-13.3-18.6-28.7 0-15.2 8.7-28.7 18.6-28.7l88.4-0.2V250.7l-88.3 0.2c-9.9 0-18.6-13.4-18.6-28.7 0-15.2 8.7-28.7 18.6-28.7l88.3-0.2-0.1-153.4c0-0.8 0-1.6 0.1-2.7 0.1-0.8 0-1.7-0.1-2.5s-0.1-1.4-0.1-2.1c0-5.7 2.9-10.3 5.3-13l0.6-0.7 0.5-0.7c5-7.4 12.2-11.7 19.7-11.7 1.2 0 2.4 0.1 3.6 0.3 0.8 0.2 1.7 0.2 2.5 0.2h1.2c1.6-0.1 3.1-0.2 4.5-0.2l829.4-0.4c1.9 0 3.9 0.1 5.8 0.3l1.7 0.2 1.7-0.2c0.9-0.1 1.9-0.2 2.7-0.2 7.3 0 14.3 4.1 19.3 11.2l0.5 0.7 0.5 0.6c2.6 2.9 5.6 7.5 5.6 13.3 0 0.5 0 1.1-0.1 1.8l-0.1 1.2 0.1 1.3c0.1 1.2 0.1 2.3 0.1 3.3l0.4 945.3c0 18-11.4 32-26 32-0.7 0-1.4 0-2.3-0.1l-1.9-0.2-1.9 0.3c-3.3 0.6-6.5 0.9-9.7 0.9l-824.4 0.6z m13.1-52l801.1-0.4-0.3-907.8-787.4 0.3c-3.7 0-7.1 1.5-9.8 4.1-2.7 2.6-4.1 6.1-4.1 9.8l0.1 120.8 88.4-0.2c9.9 0 18.5 13.3 18.5 28.7 0 15.2-8.7 28.7-18.6 28.7l-88.3 0.2 0.1 233.6 88.4-0.5c9.9 0 18.5 13.4 18.5 28.7 0 15.2-8.7 28.7-18.6 28.7l-88.2 0.2 0.1 206.4 88.1-0.1c9.9 0 18.6 13.3 18.6 28.6 0 15.2-8.7 28.7-18.6 28.7l-88.1 0.2 0.1 161.3z m0 0" p-id="45643"></path><path d="M590.1 767.2c-16.5 0-28.5-13-28.5-30.9v-77.7H446c-13.2 0-24-10.8-24-24v-0.7c0-13.2 10.8-24 24-24h115.6v-80.8H446c-13.2 0-24-10.8-24-24s10.8-24 24-24h89l-85.5-162.9c-6.5-11.3-7.3-24.5-2-33.8 4.1-7.1 11.4-11.1 20.4-11.1 11 0 21 5.9 26.2 15.5 15.5 28.4 28.7 52.3 39.1 71.4 31 56.4 45.2 82.1 55.4 105.5l0.8 1.8h5.4l0.7-2c4.9-13.4 18.7-41.4 39.7-80.9l50.5-91.8c4.8-9 14.2-14.5 24.5-14.5 10.2 0 19.2 5.2 24.2 14s4.9 19.3-0.2 28L643.8 481h85.6c13.2 0 24 10.8 24 24s-10.8 24-24 24H618.7v80.7H729c13.4 0 24.4 11 24.4 24.4s-11 24.4-24.4 24.4H618.6v77.7c0 18.1-12 31-28.5 31z m0 0" p-id="45644"></path></svg>