<?xml version="1.0" standalone="no"?><!DOCTYPE svg PUBLIC "-//W3C//DTD SVG 1.1//EN" "http://www.w3.org/Graphics/SVG/1.1/DTD/svg11.dtd"><svg t="1551510253194" class="icon" style="" viewBox="0 0 1024 1024" version="1.1" xmlns="http://www.w3.org/2000/svg" p-id="45042" xmlns:xlink="http://www.w3.org/1999/xlink" width="200" height="200"><defs><style type="text/css"></style></defs><path d="M955.533141 508.573971a70.76674 70.76674 0 0 0-46.928823-21.598924l-1.788739-0.275269h-90.574878v-329.658092c0-58.572-29.749558-88.252996-88.458681-88.252997H264.987698c-29.492708 0-51.108005 7.170307-66.154699 22.011317-15.116279 15.046694-22.51069 36.680411-22.51069 66.24168v329.659115h-88.786139c-9.028631 0-15.802918 1.908466-18.554588 2.802836-30.360472 8.816806-51.27685 36.588313-51.365877 68.202334 0 17.110703 6.294356 33.722032 17.780968 46.722115l0.824785 0.910742 367.646288 322.05902c28.184923 21.754466 58.486042 32.279171 92.620467 32.279171 36.335556 0 68.821435-11.556197 93.909833-33.431414l368.110869-322.831616a71.126944 71.126944 0 0 0 16.835434-45.502333 70.89977 70.89977 0 0 0-19.811208-49.337685zM565.429375 886.898459c-18.313088 16.010649-41.529859 24.14491-68.941162 24.14491-16.130376 0-40.842197-2.529613-68.958558-24.005741L73.933361 578.512856a32.627095 32.627095 0 0 1-7.600095-20.807908c0-14.772448 9.921977-27.841092 24.229844-31.81459 3.51608-0.978281 5.658883-1.251503 7.806803-1.219781h126.773312v-356.898502c0-18.899442 3.679809-31.676443 11.213389-39.190581 7.531534-7.463995 20.463054-11.091616 39.464827-11.091616h441.24861c18.950607 0 31.79617 3.62762 39.310307 11.091616 7.532557 7.445576 11.143805 20.239973 11.143805 39.190581v356.812545h125.415384c19.860327 0.944512 33.830503 15.58393 33.722032 33.326013a32.725332 32.725332 0 0 1-7.187702 20.121269L565.429375 886.898459z m-49.164746-322.899155v-67.136049h134.820591c9.371438 0 16.956184-10.006911 16.956184-19.792789 0-9.579169-7.584746-19.793812-16.956184-19.793812H520.906345L637.001457 320.529177a17.420765 17.420765 0 0 0-2.201132-24.62484c-7.257288-6.036483-18.313088-5.623068-24.62484 1.839904L496.264109 431.824983 382.354779 297.743218c-6.294356-7.461949-17.438161-7.876388-24.625863-1.788739-7.395434 6.294356-8.479115 17.180288-2.116197 24.62484l116.076692 136.747477H341.735663c-9.784854 0-17.179264 10.232039-17.179264 19.810185 0 9.784854 7.394411 19.793812 17.179264 19.793812h135.010927v67.116607H341.667102c-9.785877 0-17.178241 10.214642-17.178241 19.793812 0 9.785877 7.393387 19.776416 17.178241 19.776415h135.010926v91.536786c0 9.803273 10.232039 17.180288 19.793812 17.180288 9.784854 0 19.793812-7.377014 19.793812-17.180288V603.569532h135.027299c9.371438 0 16.954137-10.026354 16.954137-19.793812 0.01842-9.561773-7.582699-19.776416-16.937764-19.776416H516.264629z" p-id="45043"></path></svg>