<?xml version="1.0" standalone="no"?><!DOCTYPE svg PUBLIC "-//W3C//DTD SVG 1.1//EN" "http://www.w3.org/Graphics/SVG/1.1/DTD/svg11.dtd"><svg t="1558148080302" class="icon" style="" viewBox="0 0 1024 1024" version="1.1" xmlns="http://www.w3.org/2000/svg" p-id="4382" xmlns:xlink="http://www.w3.org/1999/xlink" width="300" height="300"><defs><style type="text/css"></style></defs><path d="M127.90000001 799L896.00000001 799c17.7 0 32 14.3 31.99999999 32s-14.3 32-32 32l-768 0c-17.7 0-32-14.3-32-32s14.3-32 31.90000001-32zM127.9 161L896 161c17.7 0 32 14.3 32 32s-14.3 32-31.99999999 32l-768.00000002 0c-17.7 0-32-14.3-31.99999999-32s14.3-32 31.9-32zM481.9 481L896 481c17.7 0 32 14.3 31.99999999 32s-14.3 32-31.99999999 31.99999999l-414.2 1e-8c-17.7 0-32-14.3-32-32s14.4-32 32.1-32zM320.69999999 339.5l0.70000001 341.9c0 7.10000001-8.6 10.7-13.6 5.7l-155.2-153.4c-12.6-12.5-12.7-32.9-0.1-45.4L307.1 333.90000001c5-5.1 13.6-1.5 13.59999999 5.59999999z" p-id="4383" fill="#8a8a8a"></path></svg>