<?xml version="1.0" standalone="no"?><!DOCTYPE svg PUBLIC "-//W3C//DTD SVG 1.1//EN" "http://www.w3.org/Graphics/SVG/1.1/DTD/svg11.dtd"><svg t="1553332654262" class="icon" style="" viewBox="0 0 1024 1024" version="1.1" xmlns="http://www.w3.org/2000/svg" p-id="5729" xmlns:xlink="http://www.w3.org/1999/xlink" width="200" height="200"><defs><style type="text/css"></style></defs><path d="M480.629 143.457l-369.963 376.63c-15.578 15.927-15.578 41.683 0 57.615a39.605 39.605 0 0 0 56.707 0l344.146-350.481 344.28 350.486c15.646 15.931 40.934 15.931 56.577 0 15.647-15.937 15.647-41.693 0-57.62l-369.83-376.635c-8.54-8.766-19.876-12.278-31.026-11.554-11.072-0.73-22.353 2.786-30.888 11.554l-0.003 0.005z m30.889 283.57c-11.078-0.806-22.353 2.782-30.888 11.414l-369.963 376.64c-15.572 15.926-15.572 41.682 0 57.75 15.642 15.924 41.065 15.792 56.711 0l344.14-350.621 344.28 350.621c15.646 15.792 40.934 15.924 56.577 0 15.647-16.068 15.647-41.824 0-57.75l-369.829-376.64c-8.535-8.632-19.875-12.214-31.028-11.414z" p-id="5730"></path></svg>