<?xml version="1.0" standalone="no"?><!DOCTYPE svg PUBLIC "-//W3C//DTD SVG 1.1//EN" "http://www.w3.org/Graphics/SVG/1.1/DTD/svg11.dtd"><svg t="1554272152549" class="icon" style="" viewBox="0 0 1024 1024" version="1.1" xmlns="http://www.w3.org/2000/svg" p-id="4389" xmlns:xlink="http://www.w3.org/1999/xlink" width="200" height="200"><defs><style type="text/css"></style></defs><path d="M852.48 119.16v642.41h-681V119.16h681m0-72h-681a72 72 0 0 0-72 72v642.41a72 72 0 0 0 72 72h681a72 72 0 0 0 72-72V119.16a72 72 0 0 0-72-72z" p-id="4390" fill="#ffffff"></path><path d="M348.12 211.27h93.6q94.78 0 138 14.1t74.7 43.8q31.5 29.7 48.3 72.3t16.8 98.4a231.29 231.29 0 0 1-24.9 105.3q-24.92 49.5-70.8 77.4t-134.1 27.9h-141.6z m49.8 390h45.6q76.19 0 111-7.8t60.6-30a144.54 144.54 0 0 0 39.3-54.3q13.5-32.1 13.5-74.1T652 357.37q-15.91-35.7-45.3-58.2t-69-30q-39.6-7.5-113.4-7.5h-26.4zM852.48 904.73v0.11h-681V755h-72v149.84a72 72 0 0 0 72 72h681a72 72 0 0 0 72-72v-0.11z" p-id="4391" fill="#ffffff"></path></svg>