<?xml version="1.0" standalone="no"?><!DOCTYPE svg PUBLIC "-//W3C//DTD SVG 1.1//EN" "http://www.w3.org/Graphics/SVG/1.1/DTD/svg11.dtd"><svg t="1554193535822" class="icon" style="" viewBox="0 0 1024 1024" version="1.1" xmlns="http://www.w3.org/2000/svg" p-id="90891" xmlns:xlink="http://www.w3.org/1999/xlink" width="200" height="200"><defs><style type="text/css"></style></defs><path d="M921.1 133.6v-0.6c0-0.6 0-1.1-0.1-1.7v-0.3l-0.3-2.1v-0.3c-0.1-0.7-0.3-1.4-0.4-2.1-0.2-0.8-0.4-1.5-0.7-2.2-0.5-1.5-1.1-2.9-1.8-4.3l-0.1-0.1c-0.7-1.3-1.4-2.6-2.3-3.8l-0.3-0.4c-0.4-0.6-0.8-1.1-1.3-1.6l-0.1-0.1c-0.4-0.5-0.8-1-1.3-1.4l-0.4-0.4-1.4-1.4-0.1-0.1-1.5-1.2-0.3-0.3c-1.1-0.9-2.3-1.7-3.6-2.4l-0.2-0.1c-1.3-0.7-2.6-1.4-4-1.9h0.1c-1.4-0.5-2.8-1-4.3-1.3l-0.3-0.1c-1.4-0.3-2.8-0.5-4.3-0.7h-0.5c-0.7-0.1-1.4-0.1-2.1-0.1h-189c-17.4 0-31.5 14.1-31.5 31.5s14.1 31.5 31.5 31.5h113L606 373 439.2 206.3c-12.3-12.3-32.3-12.3-44.6 0L111.1 489.8c-12.3 12.3-12.3 32.3 0 44.6 12.3 12.3 32.3 12.3 44.6 0L417 273.1l166.8 166.8c5.9 5.9 13.9 9.2 22.3 9.2s16.4-3.3 22.3-9.2l229.8-229.8v113c0 17.4 14.1 31.5 31.5 31.5s31.5-14.1 31.5-31.5V133.6zM196.4 669.7c-8.4 0-16.4 3.3-22.3 9.2-5.9 5.9-9.2 13.9-9.2 22.3v189c0 17.4 14.1 31.5 31.5 31.5s31.5-14.1 31.5-31.5v-189c0-8.4-3.3-16.4-9.2-22.3-5.9-5.9-13.9-9.2-22.3-9.2zM417 512.1c-8.4 0-16.4 3.3-22.3 9.2-5.9 5.9-9.2 13.9-9.2 22.3v346.6c0 17.4 14.1 31.5 31.5 31.5s31.5-14.1 31.5-31.5V543.6c0-8.4-3.3-16.4-9.2-22.3-6-5.9-14-9.2-22.3-9.2z m220.5 126c-8.4 0-16.4 3.3-22.3 9.2-5.9 5.9-9.2 13.9-9.2 22.3v220.6c0 17.4 14.1 31.5 31.5 31.5s31.5-14.1 31.5-31.5V669.7c0-17.4-14.1-31.6-31.5-31.6z m220.6-157.5c-17.4 0-31.5 14.1-31.5 31.5v378.1c0 17.4 14.1 31.5 31.5 31.5s31.5-14.1 31.5-31.5V512.1c0-8.4-3.3-16.4-9.2-22.3-6-5.9-14-9.2-22.3-9.2z m0 0" fill="#ffffff" p-id="90892"></path></svg>