<?xml version="1.0" standalone="no"?><!DOCTYPE svg PUBLIC "-//W3C//DTD SVG 1.1//EN" "http://www.w3.org/Graphics/SVG/1.1/DTD/svg11.dtd"><svg t="1556330137879" class="icon" style="" viewBox="0 0 1024 1024" version="1.1" xmlns="http://www.w3.org/2000/svg" p-id="3908" xmlns:xlink="http://www.w3.org/1999/xlink" width="300" height="300"><defs><style type="text/css"></style></defs><path d="M906.68898774 511.86481667c0-105.40592194-41.04706764-204.50380325-115.58793069-279.04389381-31.78044319-31.77580833-67.67818451-64.14410591-114.79691506-85.65988542C631.59476472 126.74294663 579.40163803 117.24226189 512.0617981 117.24226189c-105.38815498 0-204.47522164 41.04706764-279.00758743 115.57866097C158.52184486 307.36642075 117.4755497 406.45889473 117.4755497 511.86481667c0 105.39278984 41.04629516 204.47135925 115.57866097 278.98518562 74.53236579 74.50378418 173.61943245 115.53308486 279.00758743 115.53308487 105.40128708 0 204.5022583-41.02852822 279.03539657-115.53308487 74.53622818-74.51382637 115.59179306-173.58389854 115.59179307-278.98518562zM512.0617981 848.5199852c-89.93940353 0-174.49310303-35.01711846-238.0933857-98.59345436-63.60028267-63.57788086-98.62976075-148.1269455-98.62976074-238.05707932 0-185.68937302 151.05154038-336.76486015 336.72314644-336.76486014 89.94790077 0 174.51086998 35.02561569 238.12505722 98.63594054 63.60491753 63.61341476 98.63594055 148.18101883 98.63594055 238.1289196 0 89.93399619-35.03102302 174.47919846-98.63594055 238.05707932-63.60955238 63.57633591-148.17252158 98.59345436-238.12505722 98.59345436z m0 0" p-id="3909"></path><path d="M356.92154121 306.0308094l-30.42629242 79.97291565c-3.77200127 7.55249978-9.55553055 12.00119018-17.13970184 13.43722344h-13.240242v66.44917488h28.54376792v270.39370536h66.65851593V408.9230938c0-6.42777443 1.8562603-14.0451622 5.68156243-22.91859627l32.34203339-79.97677803h-72.41964341v0.0030899z m0 0" p-id="3910"></path><path d="M392.14954567 737.1157856h-68.32320214V466.72208022h-28.54376792v-68.12235831h14.07219887c7.2141552-1.37191773 12.78757095-5.74258804 16.39966964-12.96601296l30.59546471-80.43871879H430.58100891l-32.80011177 81.12467766c-3.73492241 8.65482331-5.63135147 16.25753403-5.63135147 22.60342598v328.1926918z m-66.66315079-1.66391373h64.99846459V408.9230938c0-6.57454491 1.93814277-14.39663887 5.75572014-23.24380874l31.87082291-78.8165188h-70.61359407l-30.22081375 79.43758965c-3.88941765 7.79505729-9.85679627 12.45849609-17.76695251 13.95323753l-12.56355286 0.01853943v64.77521896h28.53913308v270.40452004z m0 0" p-id="3911"></path><path d="M613.79614067 304.16605186h-72.18635559v62.90582658H410.24557304v58.99168968h133.27609063v85.73790549H431.21212197v216.83870317h241.66686058c29.25135612-2.37304688 45.7475853-19.00600432 49.56902504-49.48250771V511.60912705H615.92199516v-85.68305969h112.11874009v-58.85418892H613.79614067v-62.90582658z m39.98645783 262.77168274v91.35303498c-2.38617897 11.40252113-8.06078911 17.73450851-16.97130204 19.02377129H501.59629059V566.9377346h152.18630791z m0 0" p-id="3912"></path><path d="M672.91219903 729.47136116H430.37939262v-218.50261688h112.31031419V426.89552498H409.41825103v-60.65560342h131.35957719v-62.90582656h73.85104179v62.90582656h114.24845696v60.51887513H616.75395203v84.01451111h106.52678489v168.38436127c-3.88169289 31.02496147-20.81591606 47.91824341-50.33763885 50.30982971l-0.03089904 0.00386238z m-240.86734773-1.66391372h240.80323219c28.59784126-2.32901573 45.01141548-18.73100281 48.77414704-48.75638008l-0.00463486-166.60998345H615.0900383V425.08484078h112.12260247v-57.18100548H612.96418381v-62.9050541h-70.517807v62.9050541H411.08061981v57.32777595h133.2768631V512.63343048H432.0448513v215.17401696z m69.55143929-49.65554238h-0.83195687V566.10577774H654.61455537l-0.02240182 92.3549366c-2.45106697 11.71305656-8.39372634 18.33781242-17.66575814 19.68192101l-135.33010481 0.00926971z m0.83195687-1.66932106h134.383049c8.48101616-1.23518944 13.79796983-7.22342491 16.13934517-18.27833176v-90.4337883H502.42824746v108.71212006z m0 0" p-id="3913"></path></svg>