<?xml version="1.0" standalone="no"?><!DOCTYPE svg PUBLIC "-//W3C//DTD SVG 1.1//EN" "http://www.w3.org/Graphics/SVG/1.1/DTD/svg11.dtd"><svg t="1552012317215" class="icon" style="" viewBox="0 0 1024 1024" version="1.1" xmlns="http://www.w3.org/2000/svg" p-id="7145" xmlns:xlink="http://www.w3.org/1999/xlink" width="200" height="200"><defs><style type="text/css"></style></defs><path d="M512 4.096C231.424 4.096 4.096 231.424 4.096 512s227.328 508.416 508.416 508.416 508.416-227.328 508.416-508.416S792.576 4.096 512 4.096z m0 941.568c-239.616 0-433.664-194.048-433.664-433.664S272.384 78.336 512 78.336s433.664 194.048 433.664 433.664-194.048 433.664-433.664 433.664z" fill="#13227a" p-id="7146"></path><path d="M512 512.512m-61.44 0a61.44 61.44 0 1 0 122.88 0 61.44 61.44 0 1 0-122.88 0Z" fill="#13227a" p-id="7147"></path><path d="M307.2 512.512m-61.44 0a61.44 61.44 0 1 0 122.88 0 61.44 61.44 0 1 0-122.88 0Z" fill="#13227a" p-id="7148"></path><path d="M716.8 512.512m-61.44 0a61.44 61.44 0 1 0 122.88 0 61.44 61.44 0 1 0-122.88 0Z" fill="#13227a" p-id="7149"></path></svg>