<?xml version="1.0" standalone="no"?><!DOCTYPE svg PUBLIC "-//W3C//DTD SVG 1.1//EN" "http://www.w3.org/Graphics/SVG/1.1/DTD/svg11.dtd"><svg t="1556941914899" class="icon" style="" viewBox="0 0 1024 1024" version="1.1" xmlns="http://www.w3.org/2000/svg" p-id="2664" xmlns:xlink="http://www.w3.org/1999/xlink" width="300" height="300"><defs><style type="text/css"></style></defs><path d="M286.720282 196.415754c38.399952 0 69.631913-30.911961 69.631913-69.055913v-58.303927C356.352195 30.911961 325.184234 0 286.720282 0c-38.399952 0-69.631913 30.911961-69.631913 69.055914v58.303927A69.311913 69.311913 0 0 0 286.720282 196.415754z m468.543414 0c38.399952 0 69.631913-30.911961 69.631913-69.055913v-58.303927C824.895609 30.911961 793.663648 0 755.263696 0c-38.399952 0-69.631913 30.911961-69.631913 69.055914v58.303927c0 38.143952 31.231961 69.055914 69.631913 69.055913z m0 0" fill="#bfbfbf" p-id="2665"></path><path d="M923.775485 95.87188h-62.079922v30.207962c0 57.919928-47.551941 119.039851-106.175867 119.039852s-106.175867-61.119924-106.175868-119.039852v-30.207962H393.024149v30.207962c0 57.919928-47.487941 119.039851-106.175868 119.039852-58.623927 0-106.175867-56.31993-106.175867-114.239858v-33.407958l-80.447899-1.599998C61.248563 95.87188 29.440603 127.039841 29.440603 165.759793v788.159015C29.440603 992.638759 61.248563 1023.99872 100.224515 1023.99872h823.55097a70.399912 70.399912 0 0 0 70.783912-70.015912V161.023799c0-38.719952-31.67996-65.151919-70.783912-65.151919z m9.407989 867.006916H92.992524V300.095625H933.119474v662.783171z m0 0" fill="#bfbfbf" p-id="2666"></path><path d="M380.864164 705.855118c-8.703989 74.431907-37.695953 141.759823-87.103891 201.919747a494.527382 494.527382 0 0 0-39.93595-34.687956 310.527612 310.527612 0 0 0 75.199906-144.63982c8.895989-41.279948 13.311983-98.367877 13.311983-171.263785V356.927554h386.495517v451.327436c0 57.087929-27.199966 85.631893-81.599898 85.631893-22.783972 0-52.095935-0.384-87.93589-1.151999-1.919998-13.887983-4.799994-30.079962-8.703989-48.575939 35.455956 2.303997 63.423921 3.455996 83.903895 3.455995 31.231961 0 46.847941-15.231981 46.847941-45.695942v-96.06388H380.864164z m4.607994-42.239948h295.93563V552.511309H389.824153c0 38.591952-1.471998 75.583906-4.351995 111.103861z m4.351995-263.29567v109.951862h291.647635V400.3195H389.824153z m0 0" fill="#bfbfbf" p-id="2667"></path></svg>