<?xml version="1.0" standalone="no"?><!DOCTYPE svg PUBLIC "-//W3C//DTD SVG 1.1//EN" "http://www.w3.org/Graphics/SVG/1.1/DTD/svg11.dtd"><svg t="1554193801987" class="icon" style="" viewBox="0 0 1024 1024" version="1.1" xmlns="http://www.w3.org/2000/svg" p-id="37919" xmlns:xlink="http://www.w3.org/1999/xlink" width="200" height="200"><defs><style type="text/css"></style></defs><path d="M512 601.4c99.4 0 180-80.6 180-180s-80.6-180-180-180-180 80.6-180 180 80.6 180 180 180z m-91.9-272c24.6-24.6 57.2-38.1 91.9-38.1s67.4 13.5 91.9 38.1c24.6 24.6 38.1 57.2 38.1 91.9s-13.5 67.4-38.1 91.9c-24.6 24.6-57.2 38.1-91.9 38.1s-67.4-13.5-91.9-38.1C395.5 488.6 382 456 382 421.3s13.5-67.3 38.1-91.9z m471.9 112c0-209.9-170.1-380-380-380s-380 170.1-380 380c0 145.2 81.5 271.4 201.2 335.4l-24 135.9H262v50h500v-50h-47.3l-24-135.9C810.5 712.8 892 586.6 892 441.4zM207.9 569.8c-17.2-40.7-25.9-83.9-25.9-128.4 0-44.6 8.7-87.8 25.9-128.4 16.6-39.3 40.4-74.6 70.7-104.9s65.6-54.1 104.9-70.7c40.7-17.2 83.9-25.9 128.4-25.9s87.8 8.7 128.4 25.9c39.3 16.6 74.6 40.4 104.9 70.7s54.1 65.6 70.7 104.9c17.2 40.7 25.9 83.9 25.9 128.4 0 44.6-8.7 87.8-25.9 128.4-16.6 39.3-40.4 74.6-70.7 104.9-30.3 30.3-65.6 54.1-104.9 70.7-40.7 17.2-83.9 25.9-128.4 25.9s-87.8-8.7-128.4-25.9c-39.3-16.6-74.6-40.4-104.9-70.7-30.3-30.3-54.1-65.6-70.7-104.9zM664 912.6H360l20.2-114.7c41 15.2 85.4 23.5 131.7 23.5 46.3 0 90.7-8.3 131.7-23.5L664 912.6zM487 636.4h50v50h-50v-50z" fill="#ffffff" p-id="37920"></path></svg>