<?xml version="1.0" standalone="no"?><!DOCTYPE svg PUBLIC "-//W3C//DTD SVG 1.1//EN" "http://www.w3.org/Graphics/SVG/1.1/DTD/svg11.dtd"><svg t="1554048566266" class="icon" style="" viewBox="0 0 1024 1024" version="1.1" xmlns="http://www.w3.org/2000/svg" p-id="2186" xmlns:xlink="http://www.w3.org/1999/xlink" width="200" height="200"><defs><style type="text/css"></style></defs><path d="M726.471111 658.773333l-0.568889 5.12-2.275555 0.568889 2.275555 6.257778-1.706666 1.137778-2.275556-6.257778-5.688889 4.551111-0.568889-2.275555-2.275555 0.568888-3.982223-10.808888c2.844444-1.137778 6.257778-1.706667 9.102223-1.137778l-0.568889-2.275556 2.275555-0.568889-4.551111-0.568889v-1.706666l-6.826666 2.275555c0 2.844444 0.568889 5.688889 1.137777 8.533334l-3.982222 1.706666-1.706667-3.982222h-6.826666l-1.137778-1.706667-56.32 21.048889 2.275556 6.257778 4.551111-1.706667c4.551111 6.826667 9.671111 6.826667 14.791111 13.653334l3.982222-1.706667 2.275556 6.257778 4.551111-1.706667 5.688889 4.551111 59.733333-22.755555a48.810667 48.810667 0 0 1-7.395556-11.377778l3.982223-1.706667-7.964445-10.24z m-302.08 143.928889l1.706667 0.568889 0.568889-1.706667c-1.137778 0-1.706667 0.568889-2.275556 1.137778z m-27.875555-3.413333l-3.982223 1.706667 1.137778 9.102222-2.275555 0.568889-5.688889-14.791111c-4.551111-2.275556-5.688889-9.102222-7.964445-15.928889l-120.035555 44.942222c-15.928889 6.257778-34.133333 5.688889-50.062223-1.137778-15.928889-6.826667-27.875556-19.911111-34.133333-36.408889L90.453333 563.2c-3.982222-10.808889-5.12-22.186667-3.413333-33.564444-6.257778-14.222222-14.222222-27.306667-23.324444-39.822223l-0.568889-1.137777c-15.928889 26.737778-18.773333 59.733333-7.964445 88.746666l84.764445 224.142222c13.653333 36.408889 47.217778 61.44 85.902222 65.422223 1.706667 0 2.844444-2.275556 1.137778-6.826667 7.395556-3.413333 19.911111 5.12 23.324444-5.688889 7.395556-1.706667-1.137778 6.257778 3.982222 10.808889-6.257778 3.413333-21.048889-7.964444-22.755555 2.275556 13.653333 0.568889 27.306667-1.706667 39.822222-6.826667l150.186667-56.888889-4.551111-12.515556 2.275555-0.568888-2.275555-6.257778 3.982222-1.706667-1.706667-3.982222 26.168889-12.515556v6.826667l6.257778-2.275556c-0.568889-6.257778-0.568889-12.515556 0-18.773333l-64.853334 25.031111 9.671112 22.186667z m-187.733334-354.986667a23.324444 23.324444 0 0 0-30.151111 1.706667c-5.688889 5.12-10.24 10.24-14.791111 16.497778l-2.275556-5.12 2.275556-0.568889c0.568889-3.413333 0 0 3.413333-3.982222l-1.706666-3.982223 3.982222-1.706666-2.275556-5.688889 3.982223-1.706667-1.706667-6.826667c3.982222-2.275556 6.257778-6.826667 4.551111-11.377777l-29.013333 11.377777c1.706667 0 2.275556 5.12 2.844444 6.257778l-10.808889 3.982222 5.12 19.342223-4.551111 1.706666 1.706667 3.982223-10.24 3.413333 2.275555 6.257778 83.057778-31.288889c-1.706667-1.137778-3.413333-2.275556-5.688889-2.275556z m0 0" fill="#E51712" p-id="2187"></path><path d="M141.084444 434.631111l2.275556-0.568889 0.568889 1.706667-2.275556 0.568889-0.568889-1.706667z m750.364445-147.342222l-9.671111-23.893333a101.831111 101.831111 0 0 0-131.413334-59.733334l-22.186666 8.533334c-2.275556 1.137778-4.551111 1.706667-7.395556 2.844444l-13.653333 5.12a11.946667 11.946667 0 0 1-7.395556 2.844444l7.964445 21.048889-10.808889 5.12c-1.706667-10.24-7.964444-11.946667-12.515556-16.497777-3.413333 2.844444-5.12 6.826667-5.12 11.377777-6.826667 1.706667-9.102222-5.688889-14.791111-6.257777-3.413333 2.275556 0.568889 7.395556 1.137778 11.377777-5.688889 3.413333-5.688889-6.257778-11.377778-4.551111 1.706667-1.706667 3.413333-3.413333 4.551111-5.12l-23.893333 8.533334c2.275556 0.568889 4.551111 1.706667 5.688889 3.982222-15.928889 2.275556-17.066667 11.946667-27.875556 16.497778-3.413333-0.568889-5.12-5.12-6.826666-9.671112l-143.36 53.475556 2.844444 11.377778-1.706667-0.568889-1.706666-3.982222-7.964445 3.413333c-1.706667-1.706667-3.413333-3.413333-4.551111-5.688889l-63.715555 25.031111-2.275556 12.515556-3.982222 1.706666 2.275555 6.257778-5.688888 4.551111-3.413334-10.808889c2.275556-2.844444 2.844444-6.826667 1.706667-10.24L212.764444 407.893333l3.982223 5.688889 11.377777-1.706666c2.275556 3.413333 3.982222 3.413333 3.982223 3.413333l6.826666 18.204444 2.275556-0.568889 1.137778 3.982223 249.173333-94.435556c-1.706667-2.844444-3.413333-5.688889-5.12-7.964444l10.24-5.12c1.137778 2.844444 2.844444 6.257778 3.413333 9.102222l21.617778-8.533333v-1.706667l2.275556 0.568889 240.071111-91.022222c15.928889-6.257778 34.133333-5.688889 50.062222 1.137777 15.928889 6.826667 27.875556 19.911111 34.133333 36.408889l83.626667 225.848889c6.257778 15.928889 5.688889 34.133333-1.137778 50.062222-6.826667 15.928889-19.911111 27.875556-36.408889 34.133334l-164.977777 63.146666 1.137777 3.982223 2.275556-0.568889 4.551111 0.568889 2.275556 3.982222c7.964444-0.568889 5.12 0.568889 10.808888 2.844444l-0.568888-5.688889 5.688888-4.551111c3.982222 7.964444 5.12 7.395556 13.653334 4.551111l-0.568889-2.275555 2.275555-0.568889 0.568889 2.275555 8.533334-3.413333 6.826666 11.946667 2.275556-0.568889c0.568889-3.413333 0 0 3.413333-3.982222l-1.706666-3.982223 7.395555-5.12-1.706667-4.551111 7.395556-5.12-1.706667-3.982222 5.688889-4.551111 1.706667 3.982222-0.568889 4.551111c-5.688889 3.982222-6.257778 5.12-5.12 11.377778l-3.982222 1.706667 1.706666 3.982222a11.946667 11.946667 0 0 0-4.551111 6.257778l112.64-42.666667 9.102223-3.982222c-7.964444-1.137778-18.204444 0.568889-24.462223 0l-3.982222-10.808889c7.964444-5.12 14.222222-4.551111 18.204445-0.568889 7.964444-3.413333 7.964444-10.24 9.671111-15.928889-15.36-2.275556 5.12-5.688889 0.568889-15.36 4.551111 0.568889 10.24 1.706667 12.515555 7.395556l-7.964444 3.413333 5.12 13.084445c5.12-13.084444 15.36-12.515556 26.737777-10.24 21.617778-27.875556 26.737778-64.853333 14.791112-97.848889l-73.955556-195.697778h-1.137778c-2.844444-1.706667-3.413333-3.413333-3.413333-5.12z m-411.875556 38.684444c-6.257778 1.706667-8.533333-4.551111-10.808889-11.377777l10.808889-3.982223c6.257778 8.533333-0.568889 10.808889 0 15.36z m470.471111 203.662223c-1.706667-9.671111 17.066667-18.204444 21.617778-8.533334l-21.617778 8.533334z m-38.684444-178.631112c-4.551111 0.568889-5.688889-7.395556-12.515556-2.275555-2.275556-4.551111 1.137778-6.826667-1.137777-11.946667s-16.497778 1.137778-13.653334 5.12c-3.982222 0.568889-4.551111-5.688889-6.826666-9.671111l21.617777-6.826667c0.568889 15.36 13.653333 20.48 12.515556 25.6z m-350.435556 376.035556l-1.706666-3.982222-8.533334 3.413333 1.706667 3.982222c-5.12 3.413333-4.551111 2.275556-3.982222 8.533334l-7.395556 5.12-0.568889-2.844445-2.275555 0.568889-7.964445-20.48-15.928888 6.257778 13.084444 30.72v3.982222l19.911111-7.964444-1.706667-3.982223 7.395556-5.12c-0.568889-7.964444 1.137778-7.964444 10.24-10.808888 1.706667 3.413333 2.275556 7.395556 1.706667 11.377777l-1.706667 0.568889-0.568889 1.706667 6.257778-2.275556a26.453333 26.453333 0 0 0-5.12-19.342222l-2.844445 0.568889z m0 0" fill="#E51712" p-id="2188"></path><path d="M432.924444 642.844444c-2.275556 6.826667-3.982222 14.222222-5.688888 21.617778-47.217778-3.982222-88.177778-17.066667-121.742223-39.822222l38.115556 93.866667-17.635556 6.826666-38.115555-93.866666c-10.808889 39.253333-30.151111 77.937778-59.164445 116.053333-4.551111-2.844444-10.808889-6.257778-18.204444-10.24 31.857778-37.546667 54.044444-76.231111 65.422222-116.053333l-92.728889 37.546666-6.826666-16.497777 99.555555-40.391112-17.066667-42.097777-86.471111 35.271111-7.395555-17.066667 86.471111-35.271111-15.36-38.115556 17.635555-6.826666 15.36 38.684444 87.608889-35.84 6.826667 17.066667-87.608889 35.271111 17.066667 42.097778 99.555555-40.391111 6.826667 16.497777-93.297778 38.115556c36.977778 22.186667 79.644444 33.564444 126.862222 33.564444zM485.262222 659.342222l-17.066666 6.826667-83.626667-205.937778 191.715555-77.368889 72.817778 180.337778c6.826667 16.497778 1.137778 28.444444-16.497778 35.84-10.808889 4.551111-23.324444 9.102222-37.546666 14.222222-2.844444-5.12-6.257778-10.24-10.24-16.497778 15.36-4.551111 27.875556-9.102222 37.546666-13.084444 8.533333-3.413333 10.808889-9.102222 7.395556-17.635556L565.475556 406.186667 408.462222 469.902222l76.8 189.44zM432.355556 492.088889l131.982222-53.475556 6.257778 16.497778-131.982223 52.906667-6.257777-15.928889z m35.271111 34.702222l94.435555-38.115555 28.444445 70.542222-77.937778 31.288889 4.551111 11.946666-16.497778 6.826667-32.995555-82.488889z m84.764444-15.36l-61.44 24.462222 15.36 38.684445 61.44-25.031111-15.36-38.115556zM630.897778 442.595556l38.115555-15.36-25.6-63.146667 18.204445-7.395556 25.6 63.146667 48.355555-19.342222-34.133333-83.626667 18.204444-7.395555 13.084445 32.995555 77.368889-31.288889 6.826666 16.497778-77.937777 30.72 14.222222 34.702222 95.004444-38.115555 6.826667 16.497777-217.315556 87.608889-6.826666-16.497777z m69.973333 7.395555l19.342222 6.257778c-11.377778 28.444444-23.324444 54.044444-35.271111 76.231111-5.12-2.844444-10.808889-5.688889-17.635555-8.533333 13.084444-21.617778 23.893333-46.648889 33.564444-73.955556z m-19.911111 116.053333c80.782222-44.942222 132.551111-97.848889 154.168889-158.72l19.911111 7.964445c-23.893333 63.715556-77.368889 118.328889-160.426667 164.408889l-13.653333-13.653334z m61.44-142.791111l18.204444-7.395555 26.737778 66.56-18.204444 7.395555-26.737778-66.56z" fill="#E51712" p-id="2189"></path></svg>