<?xml version="1.0" standalone="no"?><!DOCTYPE svg PUBLIC "-//W3C//DTD SVG 1.1//EN" "http://www.w3.org/Graphics/SVG/1.1/DTD/svg11.dtd"><svg t="1561510025401" class="icon" viewBox="0 0 1024 1024" version="1.1" xmlns="http://www.w3.org/2000/svg" p-id="2182" xmlns:xlink="http://www.w3.org/1999/xlink" width="200" height="200"><defs><style type="text/css"></style></defs><path d="M979.604168 117.549827C979.604168 74.267789 944.519655 39.183276 901.237617 39.183276L117.549827 39.183276C74.267789 39.183276 39.183276 74.267789 39.183276 117.549827L39.183276 901.237617C39.183276 944.519655 74.267789 979.604168 117.549827 979.604168L547.541169 979.604168C547.80848 992.858318 548.721791 1005.911984 550.281102 1018.787444L117.549827 1018.787444C52.637908 1018.787444 0 966.171811 0 901.237617L0 117.549827C0 52.615632 52.637908 0 117.549827 0L901.237617 0C966.171811 0 1018.787444 52.615632 1018.787444 117.549827L1018.787444 594.498727C1005.956536 591.625139 992.902869 589.375275 979.604168 587.793687L979.604168 117.549827ZM688.703431 283.326938 254.546499 283.326938C238.90883 283.326938 226.233853 270.651961 226.233853 255.014292L226.233853 254.546499C226.233853 238.90883 238.90883 226.233853 254.546499 226.233853L688.703431 226.233853C704.341099 226.233853 716.9938 238.90883 716.9938 254.546499L716.9938 255.014292C716.9938 270.651961 704.341099 283.326938 688.703431 283.326938ZM688.81481 528.361635 254.435119 528.361635C238.864278 528.361635 226.233853 515.73121 226.233853 500.160369 226.233853 484.589528 238.864278 471.959103 254.435119 471.959103L688.81481 471.959103C704.385651 471.959103 716.9938 484.589528 716.9938 500.160369 716.9938 515.73121 704.385651 528.361635 688.81481 528.361635ZM722.250908 695.564402 849.000674 822.314168 975.728165 695.564402C986.777002 684.515565 1004.709087 684.515565 1015.757924 695.564402 1026.806761 706.635515 1026.806761 724.545324 1015.757924 735.594161L889.008158 862.321652 1002.414671 975.728165C1013.463508 986.777002 1013.463508 1004.709087 1002.414671 1015.757924 991.365833 1026.806761 973.433749 1026.806761 962.384912 1015.757924L849.000674 902.351411 735.594161 1015.757924C724.545324 1026.806761 706.635515 1026.806761 695.586678 1015.757924 684.515565 1004.709087 684.515565 986.777002 695.586678 975.728165L808.970915 862.321652 682.243425 735.594161C671.194588 724.545324 671.194588 706.635515 682.243425 695.564402 693.292262 684.515565 711.202071 684.515565 722.250908 695.564402Z" p-id="2183" fill="#bfbfbf"></path></svg>