<?xml version="1.0" standalone="no"?><!DOCTYPE svg PUBLIC "-//W3C//DTD SVG 1.1//EN" "http://www.w3.org/Graphics/SVG/1.1/DTD/svg11.dtd"><svg t="1545879531762" class="icon" style="" viewBox="0 0 1024 1024" version="1.1" xmlns="http://www.w3.org/2000/svg" p-id="3235" xmlns:xlink="http://www.w3.org/1999/xlink" width="200" height="200"><defs><style type="text/css"></style></defs><path d="M982.768705 968.909964 944.769757 1006.650982C929.820737 1021.572452 905.514345 1021.572452 890.504607 1006.650982L737.317985 854.444091C700.450514 875.83121 657.553106 888.143527 611.702186 888.143527 476.353826 888.143527 359.281918 773.490192 355.387549 639.562623L161.691473 639.562623 161.691473 575.894118 361.856916 575.894118C367.257943 553.13706 376.175876 531.99751 387.356649 512.225646L161.691473 512.225646 161.691473 448.557144 437.602267 448.557144C437.099705 449.054659 436.848367 449.800986 436.408925 450.2985 480.750904 410.008443 539.222597 384.889799 604.039605 384.889799 741.837765 384.889799 861.172402 503.459743 861.172402 640.309011 861.172402 687.439629 847.982522 731.46008 824.995711 769.014773L977.36531 920.350364C992.377414 935.273019 997.778443 954.048722 982.768705 968.909964L982.768705 968.909964ZM604.040828 461.117085C508.700523 461.117085 431.384302 537.966803 431.384302 632.7233 431.384302 727.480929 516.363136 811.916407 611.703442 811.916407 707.109144 811.916407 784.423084 735.065449 784.423084 640.309065 784.423084 545.551322 699.444251 461.117085 604.040828 461.117085L604.040828 461.117085ZM161.691455 193.883187 611.892763 193.883187 611.892763 257.551689 161.691473 257.551689 161.691473 193.883142 161.691455 193.883187ZM611.891658 336.017763C573.579507 346.837424 537.652901 362.754035 505.873142 384.888611L161.691473 384.888611 161.691473 321.220109 611.892779 321.220109 611.892779 336.017813 611.891658 336.017763ZM676.207244 324.390532 676.207244 130.21464 97.375832 130.21464 97.375832 766.899658 369.64464 766.899658C383.274076 814.339207 406.51211 857.303272 437.602231 894.235476L97.375832 894.235476C61.826688 894.235476 33.061387 865.697738 33.061387 830.569262L33.061387 66.546139C33.061387 31.354048 61.826802 2.877664 97.375832 2.877664L676.206085 2.877664C711.690854 2.877664 740.519386 31.354161 740.519386 66.546139L740.519386 324.390495C729.779313 323.457953 719.353581 321.2201 708.361022 321.2201 697.308791 321.220136 686.94618 323.459006 676.207244 324.390532L676.207244 324.390532Z" p-id="3236"></path></svg>