<?xml version="1.0" standalone="no"?><!DOCTYPE svg PUBLIC "-//W3C//DTD SVG 1.1//EN" "http://www.w3.org/Graphics/SVG/1.1/DTD/svg11.dtd"><svg t="1545879461998" class="icon" style="" viewBox="0 0 1025 1024" version="1.1" xmlns="http://www.w3.org/2000/svg" p-id="3115" xmlns:xlink="http://www.w3.org/1999/xlink" width="200.1953125" height="200"><defs><style type="text/css"></style></defs><path d="M1019.627856 521.1c-97.8-239.9-295-393.1-507.6-393.1-212.6 0-410.4 153.2-507.6 393.1-5.6 13.8-6.2 30.9 0 45.1 97.2 240.6 295 393.8 507.6 393.8 212.6 0 409.8-153.3 507.6-393.1l0-0.7C1025.227856 553 1025.727856 536 1019.627856 521.1zM955.627856 553.1l0 1c-43.7 102.3-107.8 188.2-186 248.7-78.7 61-167.7 93.2-257.6 93.2-90 0-179.2-32.3-257.8-93.3-80.8-62.6-146.4-152.2-189.8-259.1C107.827856 437 173.427856 347.7 254.127856 285.2c78.7-61 167.9-93.2 257.9-93.2 89.9 0 179 32.2 257.6 93.2 80.6 62.4 146.2 151.8 190 258.4L955.627856 553.1z" p-id="3116"></path><path d="M738.027856 318.1c-29.4-29.5-63.6-52.6-101.7-68.8-39.5-16.8-81.3-25.3-124.4-25.3-43.1 0-85 8.5-124.5 25.3-38.1 16.2-72.3 39.4-101.7 68.8-29.4 29.5-52.5 63.7-68.6 101.8C200.527856 459.5 192.027856 501.3 192.027856 544.3c0 176.3 143.6 319.6 320 319.6 43 0 84.9-8.5 124.3-25.2 38.1-16.1 72.3-39.2 101.7-68.6 29.4-29.4 52.5-63.5 68.7-101.6 16.8-39.4 25.3-81.3 25.3-124.3 0-43-8.5-84.9-25.3-124.4C790.627856 381.8 767.527856 347.6 738.027856 318.1zM512.027856 800c-141.2 0-256-114.7-256-255.6 0-141.4 114.8-256.4 256-256.4s256 115 256 256.4C768.027856 685.3 653.227856 800 512.027856 800z" p-id="3117"></path><path d="M608.027856 544c0-53-43.1-96.1-96-96.1s-96 43.1-96 96.1c0 52.9 43.1 95.9 96 95.9S608.027856 596.9 608.027856 544zM480.027856 544c0-17.7 14.4-32.1 32-32.1 17.6 0 32 14.4 32 32.1 0 17.6-14.4 31.9-32 31.9C494.427856 576 480.027856 561.7 480.027856 544z" p-id="3118"></path><path d="M672.027856 544.2c0 88.1-71.8 159.8-160 159.8-17.7 0-32 14.3-32 32s14.3 32 32 32c123.5 0 224-100.4 224-223.8 0-17.7-14.3-32-32-32S672.027856 526.5 672.027856 544.2z" p-id="3119"></path><path d="M502.327856 349.5c-3.8-17.3-20.8-28.2-38.1-24.4-63.7 14-118.2 55.1-149.4 112.9-8.4 15.5-2.6 35 12.9 43.4 4.8 2.6 10 3.9 15.2 3.9 11.4 0 22.4-6.1 28.2-16.8 22.4-41.4 61.3-70.8 106.8-80.8C495.227856 383.9 506.127856 366.8 502.327856 349.5z" p-id="3120"></path></svg>