<?xml version="1.0" standalone="no"?><!DOCTYPE svg PUBLIC "-//W3C//DTD SVG 1.1//EN" "http://www.w3.org/Graphics/SVG/1.1/DTD/svg11.dtd"><svg t="1548240548593" class="icon" style="" viewBox="0 0 1024 1024" version="1.1" xmlns="http://www.w3.org/2000/svg" p-id="2671" xmlns:xlink="http://www.w3.org/1999/xlink" width="200" height="200"><defs><style type="text/css"></style></defs><path d="M275.260188 200.626959h328.225705c24.877743 0 45.742947-20.865204 45.742947-45.742946V45.742947c0-24.877743-20.865204-45.742947-45.742947-45.742947H275.260188c-24.877743 0-45.742947 20.865204-45.742947 45.742947v109.141066c0 24.877743 20.062696 45.742947 45.742947 45.742946zM574.595611 74.633229v52.163009H303.347962V74.633229h271.247649z" fill="#666666" p-id="2672"></path><path d="M536.877743 872.326019v-9.630094H171.736677c-12.840125 0-24.075235-10.432602-24.075235-24.075235v-666.081505c0-12.840125 10.432602-24.075235 24.075235-24.075235h32.902821V56.175549h-32.902821C107.53605 56.175549 56.175549 108.338558 56.175549 172.539185v666.081505c0 64.200627 52.163009 116.363636 116.363636 116.363636h377.981191l-2.407523-10.432602c-8.025078-26.482759-11.23511-49.755486-11.23511-72.225705zM729.479624 172.539185v423.724138l10.432602-3.210031c24.075235-8.025078 48.952978-12.840125 73.830721-14.445142l8.025078-0.802507V163.711599h-0.802508C817.755486 103.523511 767.197492 56.175549 706.206897 56.175549h-32.902822v92.288401H706.206897c12.840125 0 23.272727 10.432602 23.272727 24.075235z" fill="#666666" p-id="2673"></path><path d="M248.777429 410.884013h237.54232c21.667712 0 40.125392-17.655172 40.125392-40.125392 0-21.667712-17.655172-40.125392-40.125392-40.125392H248.777429c-22.470219 0-40.125392 17.655172-40.125391 40.125392s17.655172 40.125392 40.125391 40.125392zM248.777429 532.062696l339.460816 1.605016c21.667712 0 40.125392-17.655172 40.125391-40.125392-0.802508-21.667712-18.45768-40.125392-40.125391-40.125392L248.777429 451.811912c-21.667712 0-40.125392 17.655172-40.125391 40.125392 0 10.432602 4.012539 20.865204 12.037617 28.087774 7.222571 8.025078 17.655172 12.037618 28.087774 12.037618zM247.974922 686.144201l325.015674 1.605015 2.407523-3.210031c11.23511-16.050157 25.680251-31.297806 44.137931-47.347962l5.617555-4.815047-4.012539-6.420063c-7.222571-11.23511-20.062696-18.45768-32.902821-18.45768L248.777429 605.893417c-21.667712 0-40.125392 17.655172-40.125391 40.125392 0 10.432602 4.012539 20.865204 11.235109 28.087774 7.222571 7.222571 17.655172 12.037618 28.087775 12.037618zM769.605016 627.561129c-109.141066 0-198.219436 89.07837-198.219436 198.219435s89.07837 198.219436 198.219436 198.219436c52.965517 0 103.523511-20.865204 141.241379-58.583072 36.915361-37.717868 57.780564-86.670846 56.978056-138.833856 0-109.943574-89.07837-199.021944-198.219435-199.021943z m0 332.238244c-74.633229 0-134.821317-60.188088-134.821317-134.821317S695.774295 690.15674 769.605016 690.15674c36.112853 0 70.62069 14.445141 96.30094 40.125392 24.877743 25.680251 38.520376 58.583072 38.520376 94.695924 0 73.830721-60.188088 134.821317-134.821316 134.821317z" fill="#666666" p-id="2674"></path><path d="M829.793103 868.31348c7.222571-8.025078 15.247649-16.852665 21.667712-25.680251 4.012539-5.617555 4.012539-6.420063 5.617555-7.222571l2.407523-3.210031-23.272727-14.445141-1.605016 3.210031c-4.012539 8.025078-7.222571 12.840125-12.037617 18.45768-10.432602 12.840125-25.680251 25.680251-41.730408 35.310345-12.840125 8.025078-22.470219 12.037618-36.91536 16.050157l-3.210031 0.802508v-53.768025c1.605016 2.407524 2.407524 5.617555 4.815047 10.432602l2.407523 4.815047s-0.802508 0-0.802508 0.802508l-4.815047 1.605015 3.210032 4.012539c4.815047 4.815047 7.222571 8.025078 11.235109 16.050157l1.605016 2.407524 3.210031-1.605016c29.69279-13.642633 53.768025-33.705329 73.830721-64.200627l1.605016-2.407523c1.605016-2.407524 2.407524-4.012539 4.012539-5.617555l3.210032-3.210032-20.865204-11.235109h15.247649c8.025078 0 14.445141 0 19.260188 0.802507l4.012539 0.802508v-27.285266l-4.012539 0.802508c-5.617555 0.802508-11.23511 0.802508-19.260188 0.802507h-19.260188c-2.407524-8.827586-4.012539-12.037618-8.025079-20.062695l-1.605015-2.407524-26.482759 7.222571 2.407523 4.012539c2.407524 4.815047 4.012539 8.025078 5.617555 12.037617h-16.852664c-9.630094 0-14.445141 0-19.260188-0.802508l-4.01254-0.802507v12.037617h-0.802507c-3.210031 0.802508-4.815047 0.802508-8.827587 0.802508h-0.802507v-11.23511c0-8.827586 0.802508-14.445141 0.802507-18.45768l0.802508-4.012539H714.231975l0.802508 4.012539c0.802508 4.815047 0.802508 8.827586 0.802508 17.655172v11.23511h-6.420063c-4.815047 0-8.025078 0-11.23511-0.802508l-4.012539-0.802507v27.285266l4.012539-0.802508c3.210031-0.802508 6.420063-0.802508 11.23511-0.802508h4.012539c-4.815047 18.45768-13.642633 36.915361-23.272727 48.952978l-1.605016 1.605016 1.605016 2.407524c4.815047 8.025078 6.420063 11.23511 9.630094 20.062695l2.407523 6.420063 4.01254-6.420063c4.012539-6.420063 7.222571-12.840125 10.432601-20.062695v36.91536c0 8.827586 0 15.247649-0.802507 20.865204l-0.802508 4.012539h28.087774l-0.802508-4.012539c-0.802508-4.012539-0.802508-8.827586-0.802508-15.247649l1.605016 1.605016c4.012539 4.012539 7.222571 8.827586 10.432602 16.050156l1.605016 3.210032 3.210031-0.802508c22.470219-8.827586 36.112853-16.050157 52.965517-29.69279 10.432602 7.222571 20.062696 14.445141 33.705329 27.285266l2.407524 2.407524 17.655172-21.667712-2.407523-2.407523c-15.247649-12.037618-16.050157-12.840125-32.902822-24.075235z m-11.235109-77.843261c-3.210031 7.222571-4.012539 8.827586-12.840126 20.062696-7.222571 0-7.222571 0-12.840125 0.802508h-1.605016c4.815047-6.420063 9.630094-14.445141 14.445141-21.667711h13.642634l-0.802508 0.802507z m-53.768025 44.940439c6.420063-0.802508 10.432602-0.802508 12.840125-0.802508h3.210031c-2.407524 1.605016-4.815047 4.012539-7.22257 5.617555-8.827586 6.420063-15.247649 9.630094-25.680251 13.642634l16.852665-18.457681z m-9.630094-34.507837v-11.235109h0.802507c4.815047-0.802508 9.630094-0.802508 19.260189-0.802508h2.407523c-3.210031 5.617555-8.025078 12.840125-12.037618 17.655172-4.012539 4.012539-4.012539 4.012539-7.22257 5.617555l-3.210031 0.802508 1.605015 7.22257c-4.815047-6.420063-8.827586-12.037618-15.247649-19.260188v-1.605015h0.802508c3.210031 0 6.420063 0 8.827586 0.802507l4.01254 0.802508z" fill="#666666" p-id="2675"></path></svg>