<?xml version="1.0" standalone="no"?><!DOCTYPE svg PUBLIC "-//W3C//DTD SVG 1.1//EN" "http://www.w3.org/Graphics/SVG/1.1/DTD/svg11.dtd"><svg t="1548121269574" class="icon" style="" viewBox="0 0 1024 1024" version="1.1" xmlns="http://www.w3.org/2000/svg" p-id="3096" xmlns:xlink="http://www.w3.org/1999/xlink" width="200" height="200"><defs><style type="text/css"></style></defs><path d="M484.352 938.666667a28.444444 28.444444 0 1 1 0 56.888889h-351.573333A104.277333 104.277333 0 0 1 28.444444 891.278222V132.721778C28.444444 75.150222 75.093333 28.444444 132.721778 28.444444h644.778666c57.571556 0 104.277333 46.648889 104.277334 104.277334v382.520889a28.444444 28.444444 0 1 1-56.888889 0V132.721778a47.388444 47.388444 0 0 0-47.388445-47.388445H132.721778a47.388444 47.388444 0 0 0-47.388445 47.388445v758.556444c0 26.168889 21.219556 47.388444 47.388445 47.388445h351.630222z" fill="#666666" p-id="3097"></path><path d="M597.333333 512h170.666667a28.444444 28.444444 0 1 1 0 56.888889h-170.666667a28.444444 28.444444 0 0 1 0-56.888889z m-113.777777 113.777778h284.444444a28.444444 28.444444 0 1 1 0 56.888889h-284.444444a28.444444 28.444444 0 1 1 0-56.888889zM341.333333 455.111111V398.222222H256a28.444444 28.444444 0 0 1 0-56.888889H341.333333v-5.347555L227.896889 222.435556a28.444444 28.444444 0 1 1 40.220444-40.220445L368.64 282.851556l100.522667-100.579556a28.444444 28.444444 0 1 1 40.277333 40.220444L398.222222 333.767111V341.333333h85.333334a28.444444 28.444444 0 0 1 0 56.888889H398.222222v56.888889h85.333334a28.444444 28.444444 0 0 1 0 56.888889H398.222222v142.222222a28.444444 28.444444 0 1 1-56.888889 0V512H256a28.444444 28.444444 0 0 1 0-56.888889H341.333333zM740.238222 930.645333l221.240889-221.297777a28.444444 28.444444 0 1 1 40.220445 40.277333l-241.379556 241.322667a28.330667 28.330667 0 0 1-40.220444 0L559.217778 830.065778a28.444444 28.444444 0 0 1 40.220444-40.220445l140.8 140.8z" fill="#666666" p-id="3098"></path></svg>