<?xml version="1.0" standalone="no"?><!DOCTYPE svg PUBLIC "-//W3C//DTD SVG 1.1//EN" "http://www.w3.org/Graphics/SVG/1.1/DTD/svg11.dtd"><svg t="1563781389915" class="icon" viewBox="0 0 1024 1024" version="1.1" xmlns="http://www.w3.org/2000/svg" p-id="5816" xmlns:xlink="http://www.w3.org/1999/xlink" width="200" height="200"><defs><style type="text/css"></style></defs><path d="M736 736v-300.8l-224-140.8-224 140.8V736h96c19.2 0 32 12.8 32 32s-12.8 32-32 32H256c-19.2 0-32-12.8-32-32V416c0-9.6 6.4-22.4 16-25.6l256-160c9.6-6.4 22.4-6.4 35.2 0l256 160c6.4 3.2 12.8 16 12.8 25.6v352c0 19.2-12.8 32-32 32h-128c-19.2 0-32-12.8-32-32s12.8-32 32-32h96z m-275.2-70.4c-3.2-3.2-38.4-35.2-102.4-99.2a34.24 34.24 0 0 1 48-48l73.6 73.6 137.6-137.6a34.24 34.24 0 0 1 48 48l-160 160c-9.6 3.2-16 9.6-25.6 9.6-9.6 0-12.8-3.2-19.2-6.4z" p-id="5817"></path></svg>