<?xml version="1.0" standalone="no"?><!DOCTYPE svg PUBLIC "-//W3C//DTD SVG 1.1//EN" "http://www.w3.org/Graphics/SVG/1.1/DTD/svg11.dtd"><svg t="1554193439835" class="icon" style="" viewBox="0 0 1024 1024" version="1.1" xmlns="http://www.w3.org/2000/svg" p-id="90126" xmlns:xlink="http://www.w3.org/1999/xlink" width="200" height="200"><defs><style type="text/css"></style></defs><path d="M904.222 11.028h-774.942c-60.756 0-110.063 49.303-110.063 110.063v774.942c0 60.756 49.303 110.063 110.063 110.063h774.942c60.756 0 110.063-49.303 110.063-110.063v-774.942c0-60.756-49.303-110.063-110.063-110.063zM153.171 283.458h289.867v60.756h-289.867v-60.756zM153.171 407.959h289.867v60.756h-289.867v-60.756zM153.171 538.439h344.135v60.756h-344.135v-60.756zM584.978 734.17h-431.793v-60.756h432.3v60.756zM854.909 488.642v45.324h-111.060v62.751h111.060v45.819h-111.060v91.146h-57.273v-91.146h-115.040v-45.819h115.040v-62.751h-115.040v-45.324h98.109l-119.53-205.694h64.245c55.779 102.093 90.145 166.836 102.093 194.23h0.995c3.984-11.453 15.438-33.868 33.366-68.233l68.233-126.006h60.756l-121.027 205.694h96.122z" p-id="90127" fill="#ffffff"></path></svg>