<?xml version="1.0" standalone="no"?><!DOCTYPE svg PUBLIC "-//W3C//DTD SVG 1.1//EN" "http://www.w3.org/Graphics/SVG/1.1/DTD/svg11.dtd"><svg t="1558139474297" class="icon" style="" viewBox="0 0 1026 1024" version="1.1" xmlns="http://www.w3.org/2000/svg" p-id="6910" xmlns:xlink="http://www.w3.org/1999/xlink" width="200.390625" height="200"><defs><style type="text/css"></style></defs><path d="M1024.217389 677.155206a22.378321 22.378321 0 0 0-20.047778-12.429559H22.378321a22.378321 22.378321 0 0 0-17.822734 35.910811l153.12526 201.635066A22.375124 22.375124 0 0 0 175.500384 911.117355H851.047548a22.378321 22.378321 0 0 0 17.822734-8.845831l153.122063-201.635066a22.378321 22.378321 0 0 0 2.225044-23.481252zM839.941507 866.360713H186.609622l-119.138984-156.878424h891.603459L839.941507 866.360713zM489.330761 493.809622a22.378321 22.378321 0 0 0-22.378321 22.378321v107.188961a22.378321 22.378321 0 0 0 22.378321 22.378321h107.188961a22.378321 22.378321 0 0 0 22.378321-22.378321v-107.188961a22.378321 22.378321 0 0 0-22.378321-22.378321h-107.188961z m84.813836 107.188961h-62.432318v-62.432319h62.432318v62.432319zM651.126022 493.809622a22.378321 22.378321 0 0 0-22.378321 22.378321v107.188961a22.378321 22.378321 0 0 0 22.378321 22.378321h107.185763a22.378321 22.378321 0 0 0 22.378321-22.378321v-107.188961a22.378321 22.378321 0 0 0-22.378321-22.378321h-107.185763z m84.807442 107.188961h-62.429121v-62.432319h62.429121v62.432319zM812.918086 493.809622a22.378321 22.378321 0 0 0-22.378321 22.378321v107.188961a22.378321 22.378321 0 0 0 22.378321 22.378321h107.185763a22.378321 22.378321 0 0 0 22.378321-22.378321v-107.188961a22.378321 22.378321 0 0 0-22.378321-22.378321h-107.185763z m84.810639 107.188961h-62.429121v-62.432319h62.429121v62.432319z" fill="#ffffff" p-id="6911"></path><path d="M22.378321 648.616453h404.353882a22.378321 22.378321 0 0 0 22.378321-22.378321v-169.685218h506.494933v169.685218a22.378321 22.378321 0 1 0 44.756642 0v-192.063539a22.378321 22.378321 0 0 0-22.378321-22.378321H426.732203a22.378321 22.378321 0 0 0-22.378321 22.378321v169.685218h-94.532422V263.990659a22.378321 22.378321 0 0 0-22.378321-22.378321H158.764597a22.378321 22.378321 0 0 0-22.378321 22.378321v339.869152H22.378321a22.378321 22.378321 0 1 0 0 44.756642zM181.142918 286.36898h83.9219v317.490831H181.142918V286.36898zM242.814374 161.983878c31.240136 0 45.821211 11.892479 64.276931 26.949892 20.220411 16.499216 45.386432 37.029727 92.569524 37.029728 47.189485 0 72.358703-20.530511 92.58231-37.026531 18.458918-15.057413 33.039993-26.953089 64.286523-26.953089s45.830801 11.895676 64.289719 26.953089c20.223608 16.496019 45.392826 37.026531 92.579114 37.026531a22.378321 22.378321 0 1 0 0-44.756642c-31.24653 0-45.827605-11.892479-64.286522-26.953089-20.223608-16.496019-45.392826-37.026531-92.582311-37.026531-47.186288 0-72.355506 20.530511-92.579114 37.026531-18.458918 15.057413-33.043189 26.953089-64.289719 26.953089-31.240136 0-45.821211-11.892479-64.276932-26.949892-20.220411-16.499216-45.386432-37.029727-92.569523-37.029728a22.378321 22.378321 0 1 0 0 44.756642z" fill="#ffffff" p-id="6912"></path><path d="M640.911917 251.506753c-23.353376-17.004327-49.820536-36.278455-101.034923-36.278455a22.378321 22.378321 0 1 0 0 44.756642c36.649296 0 53.436234 12.224957 74.692442 27.701164 23.353376 17.004327 49.817339 36.278455 101.034922 36.278455s77.684743-19.274128 101.034923-36.278455c21.253011-15.476207 38.043146-27.701164 74.689244-27.701164a22.378321 22.378321 0 1 0 0-44.756642c-51.217583 0-77.681546 19.270931-101.034922 36.278455-21.256208 15.476207-38.043146 27.701164-74.692442 27.701164-36.642902 0-53.433037-12.22176-74.689244-27.701164z" fill="#ffffff" p-id="6913"></path></svg>