<?xml version="1.0" standalone="no"?><!DOCTYPE svg PUBLIC "-//W3C//DTD SVG 1.1//EN" "http://www.w3.org/Graphics/SVG/1.1/DTD/svg11.dtd"><svg t="1554272349419" class="icon" style="" viewBox="0 0 1024 1024" version="1.1" xmlns="http://www.w3.org/2000/svg" p-id="7006" xmlns:xlink="http://www.w3.org/1999/xlink" width="200" height="200"><defs><style type="text/css"></style></defs><path d="M999.763002 1023.992471c-40.809112 0-61.89131-25.885927-77.281314-44.799671-14.411188-17.724105-22.708539-26.940037-39.499004-26.940037s-25.087816 9.230991-39.499004 26.940037C828.093676 998.121602 807.011478 1023.992471 766.202366 1023.992471s-61.861192-25.916045-77.251197-44.81473c-14.396129-17.693988-22.678421-26.924978-39.453827-26.924978s-25.012522 9.230991-39.378534 26.924978C594.728803 998.091485 573.736958 1023.992471 532.897729 1023.992471s-61.861192-25.900986-77.22108-44.799671c-14.381071-17.693988-22.663363-26.924978-39.42371-26.924978s-25.042639 9.230991-39.42371 26.924978C361.409107 998.091485 340.326909 1023.992471 299.668385 1023.992471s-61.846133-25.916045-77.221079-44.81473c-14.381071-17.693988-22.663363-26.924978-39.408652-26.924978s-25.027581 9.230991-39.42371 26.924978C128.194822 998.091485 107.142742 1023.992471 66.348689 1023.992471a23.913236 23.913236 0 1 1 0-47.826472c16.745289 0 25.042639-9.230991 39.42371-26.924979 15.374946-18.898685 36.427026-44.814729 77.221079-44.814729s61.831075 25.916045 77.206021 44.814729c14.381071 17.693988 22.663363 26.924978 39.42371 26.924979s25.027581-9.230991 39.408651-26.924979c15.374946-18.898685 36.427026-44.814729 77.221079-44.814729s61.861192 25.916045 77.22108 44.814729c14.381071 17.693988 22.663363 26.924978 39.42371 26.924979s25.027581-9.230991 39.408651-26.924979c15.359887-18.898685 36.427026-44.814729 77.190962-44.814729s61.861192 25.916045 77.251197 44.814729c14.396129 17.693988 22.678421 26.924978 39.453827 26.924979s25.087816-9.230991 39.483945-26.924979c15.390004-18.928802 36.472202-44.814729 77.296373-44.814729s61.89131 25.885927 77.281314 44.799671c14.411188 17.709046 22.708539 26.940037 39.499004 26.940037a23.913236 23.913236 0 1 1 0 47.826472z m-88.575349-159.185653a82.310924 82.310924 0 0 0-28.204969-4.80373c-40.82417 0-61.89131 25.900986-77.296373 44.829788-14.396129 17.693988-22.69348 26.924978-39.483945 26.924979s-25.057698-9.230991-39.453827-26.924979c-15.390004-18.913743-36.457144-44.829788-77.251197-44.829788s-61.831075 25.916045-77.190962 44.829788c-14.381071 17.693988-22.588069 26.924978-39.408651 26.924979s-25.042639-9.230991-39.42371-26.924979c-15.374946-18.913743-36.427026-44.829788-77.22108-44.829788s-61.846133 25.916045-77.221079 44.829788c-14.381071 17.693988-22.663363 26.924978-39.408651 26.924979s-25.042639-9.230991-39.42371-26.924979c-15.374946-18.913743-36.427026-44.829788-77.206021-44.829788a84.494438 84.494438 0 0 0-9.276167 0.737877c-22.151367-21.082198-35.508445-35.899971-38.881597-39.785119A457.483695 457.483695 0 0 1 10.782038 520.670054a23.777708 23.777708 0 0 1 6.806539-17.422931 24.395115 24.395115 0 0 1 17.42293-7.273358h277.84831a24.395115 24.395115 0 0 1 15.344829 5.406078l110.862243 89.508989H652.042264v-134.293601a22.22666 22.22666 0 0 1 0.722819-3.553856 34.107985 34.107985 0 0 1-0.722819-6.987243V277.321255a34.725392 34.725392 0 0 1 34.921155-34.454335h21.368314v-49.919633h-21.428548a21.082198 21.082198 0 1 1 0-42.164396h21.368313V119.114418a21.368313 21.368313 0 0 1 42.751686 0v31.623297h21.368313a21.082198 21.082198 0 1 1 0 42.164396h-21.368313v49.919633h64.119999a34.725392 34.725392 0 0 1 34.921155 34.454335v155.405916h29.198844a24.229469 24.229469 0 0 1 22.497717 15.058713l58.02122 143.148124h15.661062a24.395115 24.395115 0 0 1 17.362695 7.228182 23.74759 23.74759 0 0 1 6.851715 17.31752c-0.150587 5.662076-4.517614 139.443681-68.923729 224.600701-6.776421 8.944875-13.22155 17.016345-19.546209 24.771583z m-648.428173-229.223727h-50.762921a21.744781 21.744781 0 1 0 0 43.504622h50.762921a21.744781 21.744781 0 1 0 0-43.504622zM801.590341 290.633157h-101.149374v142.003662h101.149374V290.633157zM862.864244 480.508467H700.440967v110.365306h207.132595z m-408.979581-67.764208a23.702414 23.702414 0 0 1 1.05411-33.80681 80.262939 80.262939 0 0 0 26.051573-59.421681 82.642216 82.642216 0 0 0-165.269373 0 81.166462 81.166462 0 0 0 27.617679 60.897435 23.702414 23.702414 0 0 1 1.972691 33.776693 24.470408 24.470408 0 0 1-34.228454 1.942574 128.721877 128.721877 0 0 1 62.960478-223.697179V140.919434l-82.82292-83.16927L41.336167 301.068845a24.470408 24.470408 0 0 1-34.273631-0.225881 23.687355 23.687355 0 0 1 0.225881-33.821869L274.4601 6.881832A25.675105 25.675105 0 0 1 291.65715 0 24.425232 24.425232 0 0 1 308.703612 7.13783l106.916861 107.233094a23.74759 23.74759 0 0 1 6.957126 16.760347v61.30402a128.721877 128.721877 0 0 1 65.565635 221.363078 24.500526 24.500526 0 0 1-34.258571-1.069168z" p-id="7007" fill="#ffffff"></path></svg>