<?xml version="1.0" standalone="no"?><!DOCTYPE svg PUBLIC "-//W3C//DTD SVG 1.1//EN" "http://www.w3.org/Graphics/SVG/1.1/DTD/svg11.dtd"><svg t="1548898970973" class="icon" style="" viewBox="0 0 1024 1024" version="1.1" xmlns="http://www.w3.org/2000/svg" p-id="8879" xmlns:xlink="http://www.w3.org/1999/xlink" width="200" height="200"><defs><style type="text/css"></style></defs><path d="M222.028318 64.993653c6.099404 4.599551 12.298799 9.699053 18.698174 15.598477 6.399375 5.799434 11.998828 12.59877 17.19832 20.198027 2.599746 4.0996 5.599453 8.69915 9.099111 13.698662s6.799336 10.199004 9.899034 15.198516c3.499658 5.599453 7.099307 11.398887 10.598965 17.498291H445.006542c3.499658-4.999512 6.799336-10.298994 9.899034-15.898447 2.599746-4.599551 5.299482-9.099111 8.399179-13.698662 2.999707-4.599551 5.799434-8.69915 8.39918-12.098819 4.999512-7.099307 10.199004-13.798652 15.198516-20.198027 4.999512-6.399375 12.498779-12.59877 21.997852-18.698174 4.0996-2.599746 7.399277-5.799434 10.298994-9.899034 2.699736-4.0996 4.599551-7.999219 5.299482-12.098818 0.799922-4.0996 0.299971-8.099209-1.499853-11.798848-1.799824-3.799629-5.199492-6.699346-10.298994-8.799141-4.599551-1.499854-8.49917-1.999805-11.798848-1.499853-3.299678 0.499951-6.499365 1.399863-9.899033 2.699736-3.299678 1.399863-6.699346 2.699736-10.298995 4.29958-3.499658 1.499854-7.899229 2.299775-12.89874 2.299776s-9.299092-0.899912-12.59877-2.699737c-3.299678-1.799824-6.399375-3.899619-9.099111-6.499365-2.699736-2.599746-5.799434-5.199492-8.799141-7.999219-2.999707-2.699736-7.099307-4.999512-12.198809-6.499365-10.199004-4.0996-18.198223-4.899522-24.297627-2.299775-6.099404 2.599746-12.198809 6.499365-18.198223 12.198808-4.999512 4.999512-9.099111 8.69915-12.098818 10.598965-1.499854 1.099893-2.699736 1.499854-3.799629 1.499854-2.999707-1.499854-5.799434-3.299678-8.39918-5.299483-2.599746-1.499854-4.999512-3.199688-7.299287-4.999511-2.299775-1.799824-4.39957-3.899619-6.499365-6.499366-4.0996-4.0996-10.199004-6.699346-18.198223-8.099209C318.018943 3.699639 310.519676 4.999512 304.020311 9.099111c-8.69915 5.599453-14.698565 10.298994-18.198223 14.098624-3.499658 3.799629-8.799141 6.499365-15.898448 8.099209-4.0996 1.099893-8.49917 0.799922-13.398691-0.799922-4.899522-1.499854-9.699053-2.999707-14.898545-4.599551-4.999512-1.499854-9.899033-2.599746-14.398594-2.999707-4.599551-0.499951-8.69915 0.499951-12.098819 2.999707-7.099307 5.599453-9.399082 12.298799-6.799336 20.198027 2.599746 8.099209 7.099307 14.398594 13.698663 18.898155z" p-id="8880"></path><path d="M272.923347 840.017967c-50.79504 0-91.991017 41.195977-91.991016 91.991016s41.195977 91.991017 91.991016 91.991017 91.991017-41.195977 91.991017-91.991017c-0.09999-50.89503-41.195977-91.991017-91.991017-91.991016z" p-id="8881"></path><path d="M962.056049 618.539596l-82.191973-146.385705c-16.79836-20.298018-28.197246-36.796407-55.19461-36.796406H695.882043V324.968265c0-20.298018-16.498389-36.796407-36.796407-36.796407H558.79543c6.899326 6.799336 13.898643 14.098623 20.897959 21.997852 12.89874 14.398594 24.297627 31.296944 33.89669 50.595059 9.699053 19.298115 16.398399 41.495948 20.198028 66.493507 3.799629 25.197539 3.199688 53.194805-1.799825 83.991797-4.599551 25.39752-13.698662 49.195196-26.997363 71.792989-13.398692 22.497803-31.296944 42.195879-53.594766 58.894249-22.297822 16.698369-48.695245 30.097061-79.392247 39.896104-30.697002 9.899033-65.593594 14.898545-104.589786 14.898545-40.096084 0-75.492628-5.799434-106.389611-17.198321-30.796992-11.398887-57.094424-26.297432-78.692315-44.495654s-38.696221-38.596231-51.294991-61.194024c-12.59877-22.497803-20.997949-44.895616-25.097549-67.293429-4.699541-24.897569-5.299482-48.695245-1.999804-71.493018 3.299678-22.797774 9.299092-44.195684 17.898252-64.193731 8.69915-20.098037 19.398106-38.39625 32.396836-55.09462 7.599258-9.799043 15.598477-18.998145 24.097647-27.697295H70.543111c-20.298018 0-36.796407 16.498389-36.796407 36.796407v551.746118c0 20.298018 16.498389 36.796407 36.796407 36.796407h73.392833c8.999121-63.393809 63.093838-112.389025 128.987403-112.389025 65.793575 0 119.988282 49.095206 128.987404 112.389025H658.985646c9.099111-63.393809 63.193829-112.389025 128.987404-112.389025 65.893565 0 119.988282 49.095206 128.987403 112.389025h36.596426c20.298018 0 36.796407-16.498389 36.796407-36.796407V692.832341c-0.19998-34.796602-28.297237-74.292745-28.297237-74.292745z m-229.3776 74.292745V508.950298h89.991212c5.899424 0 14.198613 8.69915 14.198614 8.69915l77.492432 143.985939c6.899326 10.099014 14.298604 22.097842 14.298604 31.296944h-195.980862z" p-id="8882"></path><path d="M787.873059 840.017967c-50.79504 0-91.991017 41.195977-91.991016 91.991016s41.195977 91.991017 91.991016 91.991017 91.991017-41.195977 91.991017-91.991017c0-50.89503-41.195977-91.991017-91.991017-91.991016z" p-id="8883"></path><path d="M542.097061 272.573382c-14.698565-12.198809-27.597305-23.697686-38.696221-34.596622-11.098916-10.898936-20.497998-20.697979-28.097256-29.297139-9.099111-9.599063-16.698369-18.498194-22.797774-26.597402H281.422517c-6.499365 8.69915-14.098623 17.798262-22.797773 27.297334-7.099307 8.69915-15.998438 18.098233-26.597403 28.497217-10.598965 10.298994-22.597793 21.39791-35.696514 33.096768-6.199395 5.399473-12.298799 11.098916-18.098233 17.09833h380.662826c-5.699443-5.499463-11.298897-10.698955-16.798359-15.498486zM463.404746 565.14481c-3.299678 2.299775-7.399277 3.499658-12.59877 3.499658h-53.294795v15.198516c0 4.599551-1.999805 8.999121-5.799434 13.398692-3.799629 4.29958-8.799141 6.199395-14.898545 5.799433-6.099404 0-11.098916-1.399863-15.198516-4.29958-4.0996-2.699736-6.399375-7.699248-6.799336-14.898545v-15.198516H303.020408c-4.999512 0-9.299092-1.399863-12.598769-4.099599-3.299678-2.699736-4.699541-6.199395-4.299581-10.298995 0-4.599551 1.699834-8.199199 4.999512-11.098916 3.299678-2.699736 7.299287-4.29958 11.798848-4.29958h51.794942v-55.39459h-51.794942c-4.999512 0-9.099111-1.499854-12.198809-4.599551-2.999707-2.999707-4.599551-6.499365-4.599551-10.598965s1.699834-7.899229 4.999512-11.398887 7.299287-5.299482 11.798848-5.299482H355.015331l0.799921-15.898448c-9.099111-9.099111-17.498291-16.89835-25.097549-24.597598-6.499365-6.799336-12.59877-13.098721-18.198222-18.798164l-11.398887-10.199004c-2.599746-2.899717-4.899522-6.799336-6.799336-11.998828-1.999805-5.199492-1.099893-10.298994 2.999707-15.598477 4.599551-4.899522 10.199004-6.199395 16.698369-3.899619 6.499365 2.099795 11.798848 4.999512 15.998438 8.39918 1.999805 2.399766 5.599453 6.099404 10.598965 10.898935l15.998437 15.198516 20.497999 19.598086c8.69915-7.699248 16.398399-14.698565 23.497705-20.997949 6.099404-5.299482 12.098818-10.498975 18.198223-15.598477 6.099404-4.999512 10.298994-8.49917 12.89874-10.498974 4.599551-3.799629 9.599063-5.799434 15.198516-5.799434s10.199004 2.099795 13.698662 6.499365c6.499365 7.299287 4.0996 15.598477-7.599258 25.39752-2.999707 2.399766-7.599258 6.699346-13.698662 12.79875-6.099404 6.099404-12.098818 11.998828-18.198223 17.798262-7.099307 7.299287-14.998535 14.298604-23.497705 22.497803V450.955961H447.006347c7.099307 0 12.298799 1.699834 15.598477 4.999512 3.299678 3.299678 4.999512 6.999316 4.999512 11.098916 0 4.599551-1.499854 8.49917-4.599551 11.798848-2.999707 3.299678-7.999219 4.699541-15.198516 4.19959l-49.495167 0.799922-0.799921 54.694658h48.595254c14.298604 0 21.29792 5.299482 21.29792 15.998438 0.699932 4.699541-0.599941 8.39918-3.999609 10.598965z" p-id="8884"></path></svg>