<?xml version="1.0" standalone="no"?><!DOCTYPE svg PUBLIC "-//W3C//DTD SVG 1.1//EN" "http://www.w3.org/Graphics/SVG/1.1/DTD/svg11.dtd"><svg t="1554273313727" class="icon" style="" viewBox="0 0 1024 1024" version="1.1" xmlns="http://www.w3.org/2000/svg" p-id="29314" xmlns:xlink="http://www.w3.org/1999/xlink" width="200" height="200"><defs><style type="text/css"></style></defs><path d="M263.04 275.2v-49.088l5.248-10.88v-10.944l5.12-5.44 5.248-21.824 5.12-5.504 15.616-27.264 5.12-5.44 5.248-5.44 10.368-10.944 5.184-5.44 5.184-5.504h5.184l10.368-10.88 5.184-5.44h5.184L361.6 89.6h5.184l5.184-5.44h5.184l5.184-5.44h10.368l5.184-5.44h10.368l10.368-5.504h57.024l15.552 5.504h10.368L512 78.72h10.368l5.184 5.44h5.184l5.184 5.44h5.184l5.184 5.504 10.368 5.44 5.184 5.44 15.552 10.88 5.184 5.504 5.184 5.44 5.184 5.504 10.368 16.32 5.184 5.504 5.184 10.88 5.184 5.44v5.504l5.184 5.44v10.88l5.184 5.504v10.88l5.184 10.88v71.04l-5.12 10.88v10.88l-5.248 5.504v10.88l-5.12 5.44v5.504l-5.248 5.44-5.12 10.88-5.248 5.504-10.368 16.384-5.12 5.44-5.248 5.44-5.12 5.44-15.616 10.944-5.12 5.44-10.432 5.44-5.12 5.504h-5.248l-5.12 5.44h-5.248l-5.12 5.44h-10.432l-5.12 5.504h-15.616l-15.552 5.44h-57.024l-10.368-5.44h-10.368l-5.184-5.504h-10.368l-5.184-5.44h-5.184l-5.184-5.44H361.6l-5.184-5.504h-5.184l-5.184-5.44-10.368-5.44-5.184-5.44-5.184-5.504-15.552-16.32-5.184-5.504-5.184-5.44-5.184-10.88-5.184-5.504-5.184-10.88-5.184-5.504-5.184-21.76-5.184-5.504v-16.384l-5.184-16.32zM397.952 7.872h-10.368l-5.12 5.504h-10.432l-5.184 5.44h-10.368l-5.184 5.44h-5.184l-5.184 5.44-36.288 16.384-5.184 5.504-15.552 10.88-5.184 5.44-5.184 5.504-5.184 5.44-5.184 5.44-5.184 5.44-15.552 21.824-5.184 5.504v5.44l-5.184 5.44-10.368 27.328-5.184 5.44v5.44L211.2 171.52v10.88l-5.184 10.944v10.944l-5.184 16.384v60.032l5.12 21.76v16.448l5.248 10.88v5.44l5.12 5.504v10.88l5.248 5.504v5.44l5.12 5.44v5.44l5.248 5.504v5.44l5.12 5.44 5.248 10.88 5.12 5.504 15.616 21.824 5.12 5.44 5.248 5.504 5.184 5.44 5.12 5.44 15.616 21.824-5.184 5.44h-10.368l-5.184 5.504h-5.184l-5.184 5.44H263.04l-5.184 5.44h-5.184l-5.184 5.44h-5.184l-5.184 5.504h-5.184l-5.184 5.44-10.368 5.44-5.184 5.504H206.08l-5.184 5.44-5.184 5.44-10.368 5.44-5.184 5.504-5.184 5.44-20.736 16.384-5.184 5.44-5.184 5.44-5.184 5.44-5.184 5.504-5.184 5.44-5.184 5.44-15.552 21.824-5.184 5.504-5.184 5.44-5.184 10.88-5.184 5.504-5.184 10.88-5.184 5.504v5.44l-5.184 5.44-20.736 49.152-5.184 5.44v5.44l-5.184 5.44v10.88l-5.184 5.504v10.88l-5.184 10.944v10.88l-5.184 16.448v27.264l-5.184 32.768v109.12l5.12 5.44v5.504l5.248 5.44 5.12 5.44 5.248 5.44H50.56l473.6-2.304-1.856-8.576-5.12-5.44-5.248-10.944-5.12-5.44v-5.504l-5.248-5.44v-5.44l-5.12-5.44-5.248-5.504h-5.12l-5.248-5.44h-259.2l-133.312-4.288-1.472-72.128 5.12-16.32v-16.384l5.248-16.384V793.6l5.12-5.44v-16.384l5.248-5.44v-10.88l5.12-5.504v-5.44l5.248-5.504v-10.88l5.12-5.44v-5.504l5.248-5.44v-5.44l5.12-5.44 5.248-10.944 5.12-5.44 5.248-10.88 5.12-5.504 5.248-5.44 5.12-10.88 5.248-5.504 5.12-5.44 5.248-5.504 10.368-10.88 5.12-5.44 5.248-5.504 5.12-5.44 15.616-10.88 5.12-5.504 5.248-5.44 10.368-5.44 5.12-5.504 20.8-10.88 5.12-5.44h5.248l5.12-5.504h5.248l5.12-5.44h10.432l5.184-5.44h5.184l5.184-5.44h5.184l5.184-5.504h10.368l5.184-5.44h10.368l10.368-5.44h10.368l20.736-5.504h31.104l25.92-5.44h36.288l15.552-5.44h10.368l10.368-5.44h10.368l5.184-5.504h10.368l5.184-5.44h5.184l5.184-5.44h5.184l5.184-5.44h5.184l5.184-5.504 10.368-5.44 5.184-5.44 46.72-49.152 5.12-5.44 5.184-10.88 5.184-5.504 15.552-38.208 5.184-5.44v-5.44l5.184-5.44v-10.88l5.184-5.504v-10.88l5.184-10.944V209.728l-5.12-10.88v-10.88l-5.248-5.504v-10.88l-5.12-5.504V160.64l-5.248-5.44v-5.504l-5.12-5.44-5.248-10.88-5.12-5.504-5.248-10.88-5.12-5.44-5.248-10.88-5.12-5.504-5.248-5.44-5.12-10.944-20.8-16.384L610.56 56.96 605.184 51.52 594.88 46.016l-5.12-5.44-25.984-10.88-5.12-5.504h-5.248l-5.12-5.44h-10.432l-5.12-5.44H522.24l-5.12-5.504h-10.432l-5.12-5.44h-98.56l-5.184 5.44z" p-id="29315" fill="#ffffff"></path><path d="M537.856 733.632l5.184-5.44 5.184-5.44 5.184-5.504h10.368l5.184-5.44 25.92-10.88 5.184-5.504 5.184-5.44 5.184-5.44 5.184-5.504v-5.44l5.184-5.44v-5.44l5.184-5.504v-10.88l5.184-10.88 5.184-54.592 5.184-5.504 10.368-5.44 5.184-5.44h5.184l9.344-4.352 6.208 4.352 15.552 5.44 5.184 5.44 10.368 5.504 5.184 5.44h5.184l5.184 5.44h51.84l5.184-5.44h10.368l5.184-5.44 5.184-5.504 10.368-5.44 5.248-5.44h25.92l5.12 5.44h5.248l5.12 5.44 8.576 7.68 1.856 14.144v49.152l5.12 5.44v5.44l5.248 5.504v5.44l5.12 5.44 5.248 10.88 5.12 5.504 5.248 5.44 15.552 10.88 5.12 5.504h5.248l10.368 5.44h10.368l5.12 5.504 5.248 5.44 5.12 5.44v43.648l-5.12 5.504-5.184 5.44-5.184 5.44h-5.184l-5.184 5.44h-10.368l-5.184 5.504h-5.184l-5.184 5.44-10.368 5.44-5.184 5.44-10.368 16.384-5.184 5.44v5.504l-5.184 5.44v10.88l-5.184 10.944v54.592l-5.184 5.44h-5.184l-5.184 5.44h-5.184l-5.184 5.504h-5.184l-6.528 4.928-9.024-4.928h-5.184l-5.248-5.504h-5.12l-5.248-5.44-36.288-16.384h-46.656l-5.12 5.504h-5.248l-5.12 5.44-10.432 5.44-5.12 5.44-36.352 5.504-5.12-5.504-10.432-5.44-5.12-5.44v-60.032l-5.248-10.88v-5.504l-5.12-5.44v-5.504l-5.248-5.44-5.12-5.44-10.432-10.88-5.12-5.504-5.248-5.44-15.552-10.88H563.84l-5.12-5.504-15.616-10.88-5.12-5.504v-43.648z m119.232-223.744l-15.552 5.44-5.12 5.504h-5.248l-5.12 5.44H620.8l-5.12 5.44h-5.248l-15.552 10.88-5.12 5.504-5.248 5.44-5.12 5.504v43.648c4.608 8.768 5.12 4.608 5.12 16.384 0 12.672-0.96 7.296-5.12 16.32v5.504l-5.248 5.44-10.368 10.88-5.12 5.504h-5.248l-5.12 5.44h-10.432l-15.552 5.44H512l-5.12 5.44-5.248 5.504-5.12 5.44v125.504l5.952 15.872 14.72 5.952 10.368 5.504h15.552l5.184 5.44 10.368 5.44h5.184l5.184 5.44 5.184 5.504v5.44c18.368 24.064 5.184 38.912 5.184 70.912v10.88l5.184 5.504 10.368 10.88 5.184 5.504h5.184l5.184 5.44 20.736 10.88 5.184 5.504h5.184l5.184 5.44h5.184l5.184 5.504h31.104l5.184-5.504 10.368-5.44 5.184-5.44 15.552-10.88 5.184-5.504h5.184l5.184-5.44 36.288 10.88 5.184 5.504 5.184 5.44 10.368 5.44 5.184 5.44h5.184l5.184 5.504 10.368 5.44h10.368l10.432-5.44 5.12-5.504h5.248l5.12-5.44 10.432-5.44 5.12-5.44 25.984-16.384 5.12-5.504 10.432-5.44 5.12-5.44v-32.768l-5.12-10.88v-21.824l5.12-5.504 20.8-27.264 5.12-5.44h5.248l5.12-5.44h15.616l20.736-5.504 5.12-10.88 5.248-5.504v-130.944l-5.184-5.44-5.184-5.504-5.184-5.44h-10.368l-15.552-5.44h-10.368l-5.184-5.44h-5.184l-5.184-5.504-5.184-5.44-5.184-5.44-5.184-5.44v-5.504l-5.184-5.44v-27.264l5.12-5.504v-38.144l-5.12-5.504-5.184-5.44-5.184-5.44h-5.184l-5.184-5.504-5.184-5.44h-5.184l-5.184-5.44h-5.184l-5.184-5.44h-5.184l-5.184-5.504h-5.184l-5.184-5.44h-5.248l-5.12-5.44h-25.984l-5.12 5.44-10.432 5.44-5.12 5.504-10.432 5.44-5.12 5.44-15.616 5.44-10.496 5.888-10.24-5.888h-5.12l-5.248-5.44h-5.12l-5.248-5.44-5.12-5.44-10.432-5.504-5.12-5.44h-5.248l-5.12-5.44h-25.984l-5.12 5.44z" p-id="29316" fill="#ffffff"></path><path d="M786.688 782.72l-5.12 5.504-5.248 5.44-15.552 5.44-15.232 6.4-10.688-6.4h-5.12l-5.248-5.44-10.368-10.88-5.12-5.504v-5.44l-5.248-5.44v-21.824l5.184-5.504v-5.44l5.184-5.44 5.184-5.44 5.184-5.504 41.472-5.44 5.184 5.44h5.184l5.184 5.504 5.248 5.44v5.44l5.12 5.44v5.504l5.568 10.688-5.568 11.136-5.12 16.384z m-67.392-120h-10.368l-5.12 5.44h-5.248l-5.12 5.44-10.432 5.44-5.12 5.504-5.248 5.44-5.12 5.44-10.432 27.328-5.12 5.44v54.592l5.12 5.44v10.88l5.184 5.504 5.184 10.88 5.184 5.44 5.184 5.504 5.184 5.44 5.184 5.44h5.184l5.184 5.504h5.184l5.184 5.44h5.184l10.368 5.44h51.84l5.184-5.44h10.368l5.184-5.44h5.184l5.248-5.504 25.92-27.264 5.12-5.44v-5.504l5.248-5.44v-10.88l5.12-10.944v-32.768l-5.12-10.88v-5.44l-5.184-5.504v-10.88l-5.184-5.44-5.184-5.504-5.184-10.88-10.368-5.504-5.184-5.44-15.616-5.44-5.12-5.44h-10.432l-10.368-5.504h-36.288l-10.368 5.504z" p-id="29317" fill="#ffffff"></path></svg>