<?xml version="1.0" standalone="no"?><!DOCTYPE svg PUBLIC "-//W3C//DTD SVG 1.1//EN" "http://www.w3.org/Graphics/SVG/1.1/DTD/svg11.dtd"><svg t="1558937054953" class="icon" style="" viewBox="0 0 1024 1024" version="1.1" xmlns="http://www.w3.org/2000/svg" p-id="18284" xmlns:xlink="http://www.w3.org/1999/xlink" width="200" height="200"><defs><style type="text/css"></style></defs><path d="M22.1276 782.9596c78.9443-98.0163 134.7676-198.7523 167.4404-302.2244L46.623744 480.7352l0-65.343488 155.199488 0L201.823232 280.624128l69.439488 0 0 134.767616 134.767616 0 0 65.343488L271.263744 480.735232l0 126.608384 40.8484-40.832c43.5517 38.1123 81.6804 73.5037 114.3521 106.1765l-49.0076 53.0883c-24.5125-27.2159-59.9204-63.9683-106.1919-110.2561l0 363.471872-69.439488 0L201.825256 599.184384c-32.6717 89.856-80.3205 175.616-142.9443 257.28C47.9836 831.9683 35.7284 807.4721 22.1276 782.9596zM222.5603 7.1045l73.5201 16.3359c-16.3523 32.6717-32.6881 62.6237-49.0076 89.856l289.951744 0 0 61.280256L320.575488 174.576656c8.1603 10.8964 21.7764 25.8724 40.8484 44.9116 19.0403 19.072 32.6564 34.048 40.832 44.928L345.088 305.2636c-32.6717-43.5517-59.904-76.2245-81.6804-98.0163l44.9116-32.6717-102.095872 0C168.1121 226.304 124.544 273.9517 75.5364 317.5035c-16.3359-19.0403-34.0316-36.736-53.0883-53.0883C106.8483 193.6323 173.5516 107.8723 222.5603 7.1045zM459.8723 329.3757l481.087488 0 0 649.887744-69.439488 0 0-61.263872L533.407744 917.999572l0 61.263872-73.535488 0L459.872256 329.375744zM647.296 7.1045l73.5201 16.3359c-10.8964 32.6717-24.5125 62.6237-40.8484 89.856l314.464256 0 0 61.280256L753.487872 174.576656c29.9356 27.2323 59.8876 59.904 89.8396 98.0163l-57.1679 44.9116c-21.7917-29.9356-50.3839-65.3281-85.7764-106.1765l49.0076-36.7524-102.095872 0c-24.5125 43.5681-54.4481 85.76-89.8396 126.592-16.3523-16.3205-35.4079-31.2955-57.1843-44.9116C562.8959 188.1917 611.9035 105.1361 647.296 7.1045zM533.4077 394.7203l0 110.768128 338.112512 0L871.520212 394.720256 533.407744 394.720256zM533.4077 566.7676l0 113.823744 338.112512 0L871.520212 566.767616 533.407744 566.767616zM533.4077 741.8716l0 118.943744 338.112512 0L871.520212 741.871616 533.407744 741.871616z" p-id="18285"></path></svg>