<?xml version="1.0" standalone="no"?><!DOCTYPE svg PUBLIC "-//W3C//DTD SVG 1.1//EN" "http://www.w3.org/Graphics/SVG/1.1/DTD/svg11.dtd"><svg t="1573517646035" class="icon" viewBox="0 0 1024 1024" version="1.1" xmlns="http://www.w3.org/2000/svg" p-id="4071" xmlns:xlink="http://www.w3.org/1999/xlink" width="200" height="200"><defs><style type="text/css"></style></defs><path d="M947.605 139.803c-15.766-15.763-39.836-14.107-57.1 0-133.71 109.263-541.798 419.618-541.798 419.618s-165.018-71.128-216.268-94.163c-20.338-9.14-41.328-15.766-57.101 0-15.763 15.763-15.763 41.326 0 57.087 0 0 242.992 244.252 244.157 245.415 8.052 8.052 18.652 11.867 29.212 11.693 10.554 0.175 21.154-3.64 29.211-11.693 1.159-1.163 427.18-428.238 569.686-570.87 15.759-15.772 15.768-41.324 0.001-57.087z m0 0" fill="#78ee0d" p-id="4072"></path></svg>