<?xml version="1.0" standalone="no"?><!DOCTYPE svg PUBLIC "-//W3C//DTD SVG 1.1//EN" "http://www.w3.org/Graphics/SVG/1.1/DTD/svg11.dtd"><svg t="1573517553532" class="icon" viewBox="0 0 1024 1024" version="1.1" xmlns="http://www.w3.org/2000/svg" p-id="2937" xmlns:xlink="http://www.w3.org/1999/xlink" width="200" height="200"><defs><style type="text/css"></style></defs><path d="M763.034 561.893c-108.565 0-196.58 88.004-196.58 196.58 0 108.56 88.015 196.586 196.58 196.586 108.571 0 196.586-88.026 196.586-196.586C959.62 649.896 871.605 561.893 763.034 561.893zM867.982 771.645c0 15.655-12.691 28.346-28.346 28.346l-75.269 0c-11.255 0-20.978-6.56-25.555-16.065-1.801-3.726-2.811-7.905-2.811-12.32L736.001 669.32c0-15.655 12.691-28.346 28.346-28.346l7.307 0c15.655 0 28.346 12.691 28.346 28.346l0 66.672 39.635 0c15.655 0 28.346 12.691 28.346 28.346L867.981 771.645z" p-id="2938" fill="#707070"></path><path d="M546.752 624.528c-15.024-21.076-15.593-44.367-11.925-65.153 5.242-29.584 19.512-35.597 41.665-53.719 19.35-15.883 31.415-67.832 31.415-67.832s32.185-6.984 37.841-56.817c4.427-38.405-16.017-51.759-16.017-51.759s6.817-123.539-53.183-198.462c-26.898-33.514-87.194-68.542-156.227-68.542-53.362 0-119.38 14.437-165.612 79.886-48.945 69.172-43.859 186.386-43.859 186.386s-25.363 27.663-12.606 67.659c12.79 40.002 34.458 41.649 34.458 41.649s12.288 52.033 31.482 67.955c19.233 15.872 38.846 28.774 41.18 56.505 3.138 37.026 3.635 59.503-46.243 91.208-63.254 40.169-178.045 30.259-191.17 118.107-11.417 76.212-1.619 128.072 10.245 137.39 21.304 16.699 229.681 50.369 333.406 50.766 44.367 0.145 112.351-6.091 177.051-15.247-2.423-2.244-5.214-3.83-7.57-6.186C495.83 853.076 484.625 722.195 546.752 624.528zM481.208 853.349c0 12.545-42.145 48.449-54.288 48.449-12.372 0-60.43-38.678-60.43-50.012 0-22.187 21.371-101.202 23.94-110.609-5.125-7.202-10.099-15.682-15.37-26.351-6.459-13.103 29.232-40.063 29.232-40.063l44.334 0c0 0 38.695 25.704 31.918 40.66-5.611 12.355-12.846 20.685-20.406 27.446C463.812 759.333 481.208 838.091 481.208 853.349z" p-id="2939" fill="#707070"></path></svg>