<?xml version="1.0" standalone="no"?><!DOCTYPE svg PUBLIC "-//W3C//DTD SVG 1.1//EN" "http://www.w3.org/Graphics/SVG/1.1/DTD/svg11.dtd"><svg t="1574045339323" class="icon" viewBox="0 0 1024 1024" version="1.1" xmlns="http://www.w3.org/2000/svg" p-id="2113" xmlns:xlink="http://www.w3.org/1999/xlink" width="200" height="200"><defs><style type="text/css"></style></defs><path d="M964.096 496.360727L705.652364 754.292364a45.661091 45.661091 0 0 1-64.628364-64.488728L899.490909 431.872a45.637818 45.637818 0 0 1 64.605091 64.488727zM581.818182 861.090909a46.545455 46.545455 0 1 1 46.545454-46.545454 46.545455 46.545455 0 0 1-46.545454 46.545454zM256 605.090909h232.727273a23.272727 23.272727 0 0 1 0 46.545455H256a23.272727 23.272727 0 0 1 0-46.545455z m372.363636-325.818182H256a23.272727 23.272727 0 0 1 0-46.545454h372.363636a23.272727 23.272727 0 0 1 0 46.545454z m0 186.181818H256a23.272727 23.272727 0 0 1 0-46.545454h372.363636a23.272727 23.272727 0 0 1 0 46.545454z m162.909091-46.545454a46.545455 46.545455 0 0 1-46.545454-46.545455V139.636364a46.545455 46.545455 0 0 0-46.545455-46.545455H186.181818a46.545455 46.545455 0 0 0-46.545454 46.545455v744.727272a46.545455 46.545455 0 0 0 46.545454 46.545455h512a46.545455 46.545455 0 0 0 46.545455-46.545455v-69.818181a46.545455 46.545455 0 0 1 93.090909 0v116.363636a93.090909 93.090909 0 0 1-93.090909 93.090909H139.636364a93.090909 93.090909 0 0 1-93.090909-93.090909V93.090909a93.090909 93.090909 0 0 1 93.090909-93.090909h605.090909a93.090909 93.090909 0 0 1 93.090909 93.090909v279.272727a46.545455 46.545455 0 0 1-46.545455 46.545455z" p-id="2114" fill="#26910e"></path></svg>