<?xml version="1.0" standalone="no"?><!DOCTYPE svg PUBLIC "-//W3C//DTD SVG 1.1//EN" "http://www.w3.org/Graphics/SVG/1.1/DTD/svg11.dtd"><svg t="1551409086871" class="icon" style="" viewBox="0 0 1024 1024" version="1.1" xmlns="http://www.w3.org/2000/svg" p-id="5821" xmlns:xlink="http://www.w3.org/1999/xlink" width="200" height="200"><defs><style type="text/css"></style></defs><path d="M354.0224 514.176c8.12032 5.2224 15.80544 10.4448 23.07072 15.6672 7.2448 5.2224 14.92992 10.4448 23.0656 15.6672 27.264-30.75072 49.74592-58.752 67.456-83.9936 17.69472-25.2416 31.18592-47.72352 40.4736-67.456a252.02688 252.02688 0 0 0 25.2416 22.1952c8.704 6.67648 17.11104 12.05248 25.2416 16.1024 6.37952 2.90816 9.27744 6.39488 8.704 10.4448-0.58368 4.06528-4.06528 6.67648-10.4448 7.8336-4.06528 1.17248-8.704 3.34336-13.9264 6.528-5.22752 3.19488-12.48256 9.1392-21.76 17.8432-9.28768 8.704-20.8896 20.60288-34.816 35.6864-13.93152 15.09376-31.63648 34.816-53.0944 59.1872a1808.67072 1808.67072 0 0 1 60.48768 47.0016 1384.46848 1384.46848 0 0 1 59.62752 51.3536l-45.2608 43.52c-24.37632-29.5936-48.896-55.7056-73.5488-78.336-24.66816-22.6304-51.5072-44.95872-80.51712-67.0208v204.544c0 26.11712 0.4352 50.35008 1.31072 72.6784 0.8704 22.32832 2.4576 46.5664 4.7872 72.6784h-62.6688c2.31424-27.28448 3.9168-51.7888 4.7872-73.5488 0.8704-21.76 1.3056-45.696 1.3056-71.808v-235.8784a1171.59936 1171.59936 0 0 1-70.5024 66.5856c-24.3712 21.19168-49.6128 41.0624-75.7248 59.6224-5.2224-11.60192-11.46368-21.3248-18.7136-29.1584-7.26016-7.8336-16.39936-14.64832-27.4176-20.4544 30.16704-14.49984 59.6224-32.33792 88.3456-53.5296a706.9184 706.9184 0 0 0 80.512-69.1968c24.94464-24.94464 47.57504-51.05664 67.8912-78.336 20.30592-27.26912 37.12512-53.9648 50.4832-80.0768h-152.32c-29.02016 0-52.224 0.4352-69.632 1.3056s-34.52928 2.75968-51.3536 5.6576v-57.4464c15.08352 2.90816 37.27872 4.93568 66.5856 6.0928 29.29664 1.17248 64.26112 1.7408 104.8832 1.7408 47.0016 0 84.56704-0.4352 112.72192-1.3056 28.1344-0.8704 50.04288-2.74944 65.7152-5.6576-8.704 29.5936-23.6544 61.3632-44.83072 95.3088-21.18656 33.9456-46.5664 68.3264-76.16 103.1424v34.816z m-2.6112-248.9344c-13.35296-20.8896-29.45536-41.63072-48.3072-62.2336a563.79904 563.79904 0 0 0-60.4928-57.0112l42.6496-38.2976c22.04672 19.73248 42.2144 39.31648 60.4928 58.752a1548.88192 1548.88192 0 0 1 55.2704 62.2336l-49.6128 36.5568z m315.0848 77.4656c36.56192 26.112 76.29312 55.85408 119.2448 89.216a4804.26496 4804.26496 0 0 1 127.0784 102.272l-43.52 46.1312c-32.50688-35.38944-65.42848-68.3264-98.7904-98.7904a1678.65856 1678.65856 0 0 0-104.0128-87.4752v353.3824c0 10.4448 0.13312 22.49728 0.4352 36.1216 0.28672 13.6448 0.8704 27.8528 1.7408 42.6496 0.8704 14.80192 1.87904 29.73184 3.05152 44.8256 1.15712 15.08352 2.30912 28.7232 3.4816 40.9088h-68.7616c1.15712-11.02848 2.176-23.79776 3.0464-38.29248 0.8704-14.5152 1.7408-29.46048 2.6112-44.8256 0.8704-15.37024 1.43872-30.16704 1.7408-44.3904 0.28672-14.21312 0.4352-26.55232 0.4352-36.99712v-476.9792c0-29.5936-0.58368-57.0112-1.7408-82.2528-1.17248-25.2416-3.19488-44.24192-6.08768-57.0112 13.9264 3.4816 25.9584 5.95968 36.1216 7.3984 10.14272 1.45408 20.15744 1.88928 30.0288 1.3056 10.4448-0.57344 16.23552 1.16736 17.40288 5.2224 1.16224 4.06528-2.6112 8.704-11.3152 13.9264-4.64896 2.90816-7.82848 9.43616-9.5744 19.584-1.7408 10.15808-2.6112 26.26048-2.6112 48.3072v115.7632z" fill="" p-id="5822"></path></svg>