<?xml version="1.0" standalone="no"?><!DOCTYPE svg PUBLIC "-//W3C//DTD SVG 1.1//EN" "http://www.w3.org/Graphics/SVG/1.1/DTD/svg11.dtd"><svg t="1554273167862" class="icon" style="" viewBox="0 0 1024 1024" version="1.1" xmlns="http://www.w3.org/2000/svg" p-id="28302" xmlns:xlink="http://www.w3.org/1999/xlink" width="200" height="200"><defs><style type="text/css"></style></defs><path d="M858.55136 1024H164.91936C108.15136 1024 63.99136 975.104 63.99136 912.32v-544.64C63.99136 304.896 108.15136 256 164.91936 256h693.632c56.768 0 100.928 48.896 100.928 111.68v537.6c6.272 62.848-44.16 118.72-100.928 118.72zM165.75136 320c-25.152 0-37.76 21.568-37.76 43.136v553.728c0 28.8 18.88 43.136 37.76 43.136h692.48c25.152 0 37.76-21.568 37.76-43.136V363.136c0-28.8-18.88-43.136-37.76-43.136H165.75136z" fill="#ffffff" p-id="28303"></path><path d="M479.99136 699.968a128 128 0 1 1 64 0v101.12c0 12.352-12.8 30.912-32 30.912s-32-12.416-32-30.976v-101.056zM511.99136 640a64 64 0 1 0 0-128 64 64 0 0 0 0 128zM320.24736 256V179.776C314.48736 81.728 400.43936 0 509.23936 0S703.99136 81.728 703.99136 179.776V256h-57.28V179.776C646.71136 108.928 583.73536 54.4 509.23936 54.4c-74.432 0-137.408 59.904-137.408 125.312V256h-51.584z" fill="#ffffff" p-id="28304"></path></svg>