<?xml version="1.0" standalone="no"?><!DOCTYPE svg PUBLIC "-//W3C//DTD SVG 1.1//EN" "http://www.w3.org/Graphics/SVG/1.1/DTD/svg11.dtd"><svg t="1553250567793" class="icon" style="" viewBox="0 0 1025 1024" version="1.1" xmlns="http://www.w3.org/2000/svg" p-id="3291" xmlns:xlink="http://www.w3.org/1999/xlink" width="200.1953125" height="200"><defs><style type="text/css"></style></defs><path d="M632 0C416 0 240 176 240 392c0 67.2 17.6 132.8 49.6 190.4L27.2 848c-33.6 32-36.8 83.2-4.8 118.4l4.8 4.8 25.6 25.6c16 16 38.4 25.6 60.8 27.2 22.4 0 44.8-9.6 60.8-27.2l81.6-78.4 40 41.6c20.8 20.8 56 20.8 76.8 0l6.4-6.4c20.8-20.8 20.8-56 0-76.8l-40-40 104-102.4C632 840 870.4 772.8 976 584s38.4-427.2-150.4-532.8C764.8 17.6 699.2 0 632 0z m0 718.4c-62.4 0-124.8-17.6-177.6-52.8L432 652.8 246.4 835.2 129.6 950.4c-4.8 4.8-9.6 8-16 8s-11.2-3.2-16-8L72 924.8c-9.6-6.4-11.2-19.2-3.2-28.8 1.6-1.6 1.6-3.2 3.2-3.2L371.2 592l-14.4-22.4c-97.6-152-54.4-353.6 97.6-451.2S808 64 905.6 214.4 960 568 808 665.6c-51.2 35.2-113.6 54.4-176 52.8z" p-id="3292"></path><path d="M641.6 206.4c-97.6 0-176 78.4-176 176s78.4 176 176 176 176-78.4 176-176c0-96-78.4-174.4-176-176z m0 288c-62.4 0-112-49.6-112-112s49.6-112 112-112 112 49.6 112 112-49.6 112-112 112z" p-id="3293"></path></svg>