<?xml version="1.0" standalone="no"?><!DOCTYPE svg PUBLIC "-//W3C//DTD SVG 1.1//EN" "http://www.w3.org/Graphics/SVG/1.1/DTD/svg11.dtd"><svg t="1553652932418" class="icon" style="" viewBox="0 0 1024 1024" version="1.1" xmlns="http://www.w3.org/2000/svg" p-id="1997" xmlns:xlink="http://www.w3.org/1999/xlink" width="200" height="200"><defs><style type="text/css"></style></defs><path d="M522.49033 656.348248c1.503287 26.536286 3.333376 48.758792 5.359546 66.667518-81.700389 51.046403-149.08687 95.491415-202.224804 133.269675L288.892577 804.193272c17.843365-15.294313 26.797728-38.562584 26.797728-69.674092L315.690304 431.181975 206.930746 431.181975 206.930746 376.017872l170.06753 0 0 372.226974C421.377928 721.185677 469.875279 690.531691 522.49033 656.348248zM285.036318 127.060446C340.723304 184.250718 381.050616 226.66956 406.083615 254.251612l-53.595455 45.163975C320.265526 257.062105 282.225825 213.139976 238.303696 167.649199L285.036318 127.060446zM452.031914 380.593094l222.878662 0L674.910576 117.125678l65.883194 0 0 263.467416 224.44731 0 0 55.164103-224.44731 0 0 431.966299-65.883194 0L674.910576 435.757197l-222.878662 0L452.031914 380.593094z" p-id="1998"></path></svg>