<?xml version="1.0" standalone="no"?><!DOCTYPE svg PUBLIC "-//W3C//DTD SVG 1.1//EN" "http://www.w3.org/Graphics/SVG/1.1/DTD/svg11.dtd"><svg t="1548571685014" class="icon" style="" viewBox="0 0 1024 1024" version="1.1" xmlns="http://www.w3.org/2000/svg" p-id="2248" xmlns:xlink="http://www.w3.org/1999/xlink" width="200" height="200"><defs><style type="text/css"></style></defs><path d="M827.369202 178.38258L718.479836 69.493214 649.886535 0.899912 648.986622 0H196.630798c-37.996289 0-68.593301 30.697002-68.593302 68.593301v886.813398c0 37.896299 30.597012 68.593301 68.593302 68.593301h630.838394c37.796309 0 68.593301-30.597012 68.593302-68.593301V246.975881l-68.693292-68.593301z m-1.799824 95.090714H623.389122V71.293038l202.180256 202.180256z m1.799824 681.833414H196.630798V68.593301h358.265013v273.473294h272.573381v613.240113z" p-id="2249"></path><path d="M271.723465 513.649839h205.679914c18.998145 0 34.296651-15.298506 34.29665-34.296651s-15.298506-34.296651-34.29665-34.296651H271.723465c-18.998145 0-34.296651 15.298506-34.296651 34.296651s15.398496 34.296651 34.296651 34.296651zM271.423494 652.836246h115.388731c18.998145 0 34.296651-15.298506 34.296651-34.29665 0-18.998145-15.298506-34.296651-34.296651-34.296651H271.423494c-18.998145 0-34.296651 15.298506-34.296651 34.296651 0 18.998145 15.398496 34.296651 34.296651 34.29665zM752.576506 723.329362H271.423494c-18.998145 0-34.296651 15.298506-34.296651 34.296651 0 18.998145 15.298506 34.296651 34.296651 34.296651h481.053022c18.998145 0 34.296651-15.298506 34.296651-34.296651 0.09999-18.998145-15.298506-34.296651-34.196661-34.296651zM728.278879 388.962015L695.982033 421.358852l48.495264 48.495264 32.296846-32.296846c13.398692-13.398692 13.398692-35.096573 0-48.495264-13.398692-13.398692-35.096573-13.398692-48.495264-0.099991zM461.704912 717.029978l48.495264-12.998731L720.27966 493.951763l-48.495264-48.495265-161.884191 161.884191-48.195293 48.195294-12.998731 48.495264c-2.199785 7.899229 4.999512 15.198516 12.998731 12.998731z" p-id="2250"></path></svg>