<?xml version="1.0" standalone="no"?><!DOCTYPE svg PUBLIC "-//W3C//DTD SVG 1.1//EN" "http://www.w3.org/Graphics/SVG/1.1/DTD/svg11.dtd"><svg t="1554193562372" class="icon" style="" viewBox="0 0 1025 1024" version="1.1" xmlns="http://www.w3.org/2000/svg" p-id="92296" xmlns:xlink="http://www.w3.org/1999/xlink" width="200.1953125" height="200"><defs><style type="text/css"></style></defs><path d="M299.799002 983.862988H197.203885c-39.52267 0-71.673235-32.150566-71.673236-71.673235V650.889614c0-39.52267 32.150566-71.673235 71.673236-71.673235h102.595117c39.52267 0 71.673235 32.150566 71.673235 71.673235v261.300139c0 39.52267-32.150566 71.673235-71.673235 71.673235zM197.203885 640.650581c-5.529078 0-10.239034 4.709955-10.239034 10.239033v261.300139c0 5.529078 4.709955 10.239034 10.239034 10.239033h102.595117c5.529078 0 10.239034-4.709955 10.239033-10.239033V650.889614c0-5.529078-4.709955-10.239034-10.239033-10.239033H197.203885zM591.816241 983.862988h-102.595117c-39.52267 0-71.673235-32.150566-71.673236-71.673235V522.901694c0-39.52267 32.150566-71.673235 71.673236-71.673236h102.595117c39.52267 0 71.673235 32.150566 71.673236 71.673236v389.288059c0.204781 39.52267-31.945785 71.673235-71.673236 71.673235z m-102.390336-471.200328c-5.529078 0-10.239034 4.709955-10.239034 10.239034v389.288059c0 5.529078 4.709955 10.239034 10.239034 10.239033h102.595117c5.529078 0 10.239034-4.709955 10.239033-10.239033V522.901694c0-5.529078-4.709955-10.239034-10.239033-10.239034h-102.595117zM884.038261 983.862988h-102.390336c-39.52267 0-71.673235-32.150566-71.673236-71.673235V251.157741c0-39.52267 32.150566-71.673235 71.673236-71.673236h102.390336c39.52267 0 71.673235 32.150566 71.673236 71.673236v661.032012c0 39.52267-32.150566 71.673235-71.673236 71.673235z m-102.595117-742.944281c-5.529078 0-10.239034 4.709955-10.239034 10.239034v661.032012c0 5.529078 4.709955 10.239034 10.239034 10.239033h102.390336c5.529078 0 10.239034-4.709955 10.239034-10.239033V251.157741c0-5.529078-4.709955-10.239034-10.239034-10.239034h-102.390336z" p-id="92297" fill="#ffffff"></path><path d="M994.210263 983.043865H30.717198c-16.996796 0-30.717101-13.720305-30.717101-30.7171s13.720305-30.717101 30.717101-30.717101H994.210263c16.996796 0 30.717101 13.720305 30.717101 30.717101s-13.720305 30.717101-30.717101 30.7171zM461.166172 202.829502H71.673332c-16.996796 0-30.717101-12.696402-30.717101-29.693197S54.676536 143.443107 71.673332 143.443107h389.49284c16.996796 0 30.717101 12.696402 30.717101 29.693198S478.162968 202.829502 461.166172 202.829502zM461.166172 370.749654H71.673332c-16.996796 0-30.717101-14.744208-30.717101-31.741005s13.720305-31.741004 30.717101-31.741004h389.49284c16.996796 0 30.717101 14.744208 30.717101 31.741004s-13.720305 31.741004-30.717101 31.741005z" p-id="92298" fill="#ffffff"></path><path d="M266.214971 522.901694c-16.996796 0-31.741004-13.720305-31.741004-30.717101V184.604022c0-16.996796 14.744208-30.717101 31.741004-30.717101s31.741004 13.720305 31.741005 30.717101v307.37579c0 16.996796-14.744208 30.921882-31.741005 30.921882z" p-id="92299" fill="#ffffff"></path><path d="M266.419752 203.443844c-7.576885 0-14.948989-2.662149-20.887629-8.191227L93.584864 53.339611c-12.491621-11.672498-13.105963-31.126662-1.433465-43.413503 11.467718-12.491621 30.921882-13.105963 43.208722-1.638245l151.94726 141.708225c12.491621 11.672498 13.105963 31.126662 1.433464 43.413503-5.733859 6.757762-14.129866 10.034253-22.321093 10.034253z" p-id="92300" fill="#ffffff"></path><path d="M258.023744 203.443844c-8.191227 0-16.382454-3.276491-22.525874-9.829472-11.672498-12.491621-10.853376-31.945785 1.433465-43.413503L389.083375 8.287863c12.491621-11.672498 31.945785-10.853376 43.413503 1.433465s10.853376 31.945785-1.433465 43.413502l-151.947259 141.708226c-6.14342 5.733859-13.720305 8.600788-21.09241 8.600788z" p-id="92301" fill="#ffffff"></path></svg>