<?xml version="1.0" standalone="no"?><!DOCTYPE svg PUBLIC "-//W3C//DTD SVG 1.1//EN" "http://www.w3.org/Graphics/SVG/1.1/DTD/svg11.dtd"><svg t="1551245826188" class="icon" style="" viewBox="0 0 1025 1024" version="1.1" xmlns="http://www.w3.org/2000/svg" p-id="2064" xmlns:xlink="http://www.w3.org/1999/xlink" width="200.1953125" height="200"><defs><style type="text/css"></style></defs><path d="M628.943 90.155c0 28.443-23.058 51.501-51.501 51.501h-187.343c-0.006 0-0.012 0-0.019 0-28.453 0-51.519-23.066-51.519-51.519 0 0 0 0 0 0v-6.617c0.010-28.449 23.070-51.508 51.518-51.519h187.327c0.006 0 0.012 0 0.019 0 28.453 0 51.519 23.066 51.519 51.519 0 0 0 0 0 0v6.617zM287.937 349.763h395.247c19.72 0 35.713-16.589 35.713-37.055 0-20.503-15.993-37.092-35.713-37.092h-395.266c-19.702 0-35.732 16.589-35.732 37.092 0 20.447 16.029 37.055 35.732 37.055zM422.27 733.025c0-4.976 0.13-9.916 0.373-14.837h-134.707c-19.702 0-35.732 16.589-35.732 37.073 0 20.466 16.029 37.073 35.732 37.073h140.298c-3.793-17.825-5.964-38.304-5.964-59.29 0-0.007 0-0.014 0-0.021zM538.952 497.312h-251.034c-19.702 0-35.732 16.589-35.732 37.055 0 20.484 16.029 37.092 35.732 37.092h182.274c31.771-48.351 75.946-86.196 128.051-109.488zM740.481 486.166c-139.702 0-252.917 113.234-252.917 252.917s113.215 252.898 252.917 252.898 252.898-113.234 252.898-252.898c0-139.664-113.234-252.917-252.898-252.917zM906.744 729.726c0 5.167-4.19 9.357-9.357 9.357 0 0 0 0 0 0h-135.88v56.197h135.88c5.163 0 9.338 4.193 9.338 9.357v31.034c0 0.006 0 0.012 0 0.019 0 5.161-4.178 9.346-9.337 9.357h-135.882v57.968c0 3.374-4.455 6.151-9.972 6.151h-32.992c-5.517 0-9.953-2.777-9.953-6.151v-57.968h-125.014c0 0 0 0 0 0-5.168 0-9.357-4.19-9.357-9.357 0-0.007 0-0.013 0-0.020v-31.033c0-5.163 4.176-9.357 9.357-9.357h125.014v-56.197h-125.014c0 0 0 0 0 0-5.168 0-9.357-4.19-9.357-9.357 0 0 0 0 0 0v-30.998c0-5.2 4.176-9.395 9.357-9.395h86.617l-48.406-74.446c-5.629-8.667-1.007-21.678 10.308-29.040l3.206-2.088c11.332-7.362 25.107-6.3 30.755 2.367l67.102 103.206h0.932l69.897-107.549c5.666-8.667 19.422-9.711 30.755-2.348l3.188 2.069c11.37 7.381 15.955 20.373 10.327 29.059l-51.202 78.77h100.336c5.163 0 9.338 4.193 9.338 9.395v31.016zM173.323 902.27c-0.006 0-0.012 0-0.019 0-36.178 0-65.512-29.307-65.555-65.476v-628.149c0.022-36.168 29.347-65.48 65.517-65.48 0.020 0 0.039 0 0.059 0h37.518v-0.913c1.454 0.187 2.852 0.447 4.325 0.447 20.442-0.004 37.012-16.575 37.012-37.018 0-20.442-16.57-37.014-37.012-37.018-1.473 0-2.871 0.242-4.325 0.428v-0.466h-28.984c-82.74 0-149.86 66.728-149.86 149.021v610.102c0 82.312 67.139 149.040 149.879 149.040h341.752c-42.296-39.382-73.902-89.707-90.338-146.475l-259.952 71.955zM790.826 68.626h-30.438v0.466c-1.492-0.187-2.945-0.466-4.474-0.466-20.094 0.465-36.205 16.865-36.205 37.027 0 20.163 16.112 36.562 36.162 37.027 1.571 0.001 3.025-0.261 4.517-0.446v0.913h38.993c0 0 0 0 0 0 36.181 0 65.514 29.32 65.536 65.497v235.79c27.157 11.221 52.674 26.095 75.788 44.212v-270.979c0-82.312-67.102-149.040-149.879-149.040z" fill="#1296db" p-id="2065"></path></svg>