<?xml version="1.0" standalone="no"?><!DOCTYPE svg PUBLIC "-//W3C//DTD SVG 1.1//EN" "http://www.w3.org/Graphics/SVG/1.1/DTD/svg11.dtd"><svg t="1565234553435" class="icon" viewBox="0 0 1448 1024" version="1.1" xmlns="http://www.w3.org/2000/svg" p-id="1687" width="565.625" height="400" xmlns:xlink="http://www.w3.org/1999/xlink"><defs><style type="text/css"></style></defs><path d="M778.707878 188.183437h-0.344028 0.516042zM478.887284 337.147657v298.78851V337.147657z" p-id="1688"></path><path d="M1078.356459 635.936167V337.491685l-299.476567-149.136234h-0.516042L479.403326 337.147657h-0.516042v298.78851l299.64858 149.308248 299.820595-149.308248z m-37.327062-242.539896v223.962372l-243.571981 121.269948V477.339157L1041.029397 356.069209v37.327062z m-262.321519-169.089871l225.338485 112.497228-85.835041 43.175542-226.542584-112.1532 87.03914-43.51957zM652.449521 288.983706l229.466824 110.08903-103.208467 49.712078-225.338484-111.293129 99.080127-48.507979z m107.508819 449.644885l-243.57198-121.269948V375.162775h12.040988l-12.040988-0.344028V356.069209l243.57198 121.269948v261.289434z" p-id="1689"></path><path d="M516.38636 374.818747l11.868973 0.344028h-11.868973v242.195868l243.57198 121.269948V477.339157L516.38636 356.069209z" p-id="1690"></path></svg>