<?xml version="1.0" standalone="no"?><!DOCTYPE svg PUBLIC "-//W3C//DTD SVG 1.1//EN" "http://www.w3.org/Graphics/SVG/1.1/DTD/svg11.dtd"><svg t="1548899692817" class="icon" style="" viewBox="0 0 1024 1024" version="1.1" xmlns="http://www.w3.org/2000/svg" p-id="17414" xmlns:xlink="http://www.w3.org/1999/xlink" width="200" height="200"><defs><style type="text/css"></style></defs><path d="M573.37 77.88v43.74h257v794.64H196.73V480.92h-43.74V960h721.13V77.88H573.37z" p-id="17415"></path><path d="M308.51 737.04h416.15v43.74H308.51zM308.51 536.56h416.15v43.74H308.51zM546.03 336.07h178.64v43.74H546.03zM290.49 463.21h43.75V353.68h128.75v-43.74H334.24v-56.78h128.75v-43.74H348.76L450.97 92.83 418.07 64 312.36 184.59 206.66 64l-32.9 28.83 102.21 116.59H161.74v43.74h128.75v56.78H161.74v43.74h128.75v109.53z" p-id="17416"></path></svg>