<?xml version="1.0" standalone="no"?><!DOCTYPE svg PUBLIC "-//W3C//DTD SVG 1.1//EN" "http://www.w3.org/Graphics/SVG/1.1/DTD/svg11.dtd"><svg t="1554174610712" class="icon" style="" viewBox="0 0 1024 1024" version="1.1" xmlns="http://www.w3.org/2000/svg" p-id="5978" xmlns:xlink="http://www.w3.org/1999/xlink" width="200" height="200"><defs><style type="text/css"></style></defs><path d="M535.790933 54.340267c11.127467 0 22.254933 0 33.416533 0 21.572267 11.3664 29.457067 29.559467 29.252267 53.4528-0.580267 74.683733-0.238933 149.4016-0.238933 223.982933 15.7696 0 30.242133 0 45.329067 0 0-51.541333-0.273067-101.6832 0-151.790933 0.2048-24.917333 15.121067-42.359467 36.317867-43.793067 23.722667-1.604267 41.472 15.735467 41.608533 41.608533 0.273067 51.2 0.068267 102.434133 0.068267 155.784533 47.2064 0 92.535467 0 138.3424 0 0 135.031467 0 267.912533 0 403.012267-25.668267 0-50.2784 0.546133-74.752-0.2048-12.5952-0.4096-17.476267 2.594133-20.138667 16.520533-18.466133 99.328-74.376533 169.2672-170.5984 201.728-96.119467 32.3584-183.3984 11.8784-258.1504-56.456533-41.984-38.331733-66.730667-86.869333-76.253867-143.121067-1.3312-7.68 0.989867-18.7392-12.8-18.397867-27.682133 0.682667-55.534933 1.194667-83.2512 1.774933 0-135.099733 0-270.165333 0-405.1968 30.651733 0 61.405867 0 92.945067 0 0-7.543467 0-12.424533 0-17.3056 0-36.522667-0.477867-73.079467 0.136533-109.568 0.341333-23.6544 17.476267-43.2128 36.932267-44.1344 19.217067-0.853333 36.6592 15.530667 40.209067 39.0144C335.530667 210.295467 334.984533 219.716267 334.984533 228.9664c0.068267 34.4064 0 68.846933 0 102.912 16.452267 0 30.4128 0 45.2608 0 0-8.055467 0-14.813867 0-21.538133 0-58.811733-0.136533-117.623467 0.068267-176.4352 0-28.910933 14.882133-46.455467 38.741333-46.6944 24.746667-0.238933 39.1168 16.349867 39.185067 45.738667 0.136533 41.472 0.068267 82.978133 0.068267 124.450133 0 24.576 0 49.186133 0 74.683733 16.7936 0 31.880533 0 45.806933 0 0-71.611733 0.853333-142.199467-0.4096-212.6848C503.1936 91.0336 509.815467 68.539733 535.790933 54.340267zM813.943467 381.474133c-201.864533 0-402.056533 0-602.2144 0 0 103.150933 0 204.4928 0 306.8928 154.385067 0 307.6096 0 462.5408 0 0.341333-7.5776 0.785067-14.165333 0.853333-20.753067 0.068267-47.650133-0.068267-95.3344 0.068267-143.018667 0.068267-31.880533 18.875733-52.667733 47.069867-52.4288 27.272533 0.238933 45.738667 20.923733 45.8752 51.8144 0.2048 48.3328 0 96.6656 0.068267 144.930133 0 6.485333 0.9216 13.0048 1.399467 19.2512 16.0768 0 29.934933 0 44.3392 0C813.943467 585.386667 813.943467 484.010667 813.943467 381.474133z" p-id="5979" fill="#1296db"></path><path d="M537.736533 597.0944c-6.656 19.968 10.274133 48.503467-24.200533 51.746133-11.8784 1.092267-22.528-3.618133-23.927467-17.7152-0.853333-10.410667-0.136533-20.957867-0.136533-34.030933-16.5888 0-31.880533 0.068267-47.069867 0-11.264-0.068267-22.459733-2.321067-22.869333-16.042667-0.477867-14.677333 11.537067-15.36 22.459733-15.530667 12.322133-0.2048 24.814933 0.443733 37.0688-0.580267 3.413333-0.273067 6.3488-5.085867 9.454933-7.816533-3.140267-2.1504-6.144-5.905067-9.3184-6.109867-13.653333-0.785067-27.682133 1.194667-40.721067-1.399467-7.133867-1.467733-12.731733-10.001067-19.080533-15.394133 6.4512-5.12 12.322133-13.073067 19.592533-14.813867 11.0592-2.525867 23.074133-0.648533 39.185067-0.648533-15.325867-23.825067-28.398933-44.373333-41.608533-64.887467-7.816533-12.014933-14.984533-24.200533 0.6144-35.464533 12.322133-8.874667 25.941333-4.266667 37.2736 12.253867 14.267733 20.855467 28.194133 41.847467 43.861333 65.092267 15.6672-23.483733 29.866667-44.919467 44.202667-66.2528 10.274133-15.189333 23.8592-19.797333 35.805867-11.4688 14.609067 10.24 9.0112 22.4256 1.809067 34.065067-13.073067 20.8896-26.3168 41.642667-42.1888 66.628267 15.4624 0 27.784533-1.877333 39.185067 0.682667 7.2704 1.6384 13.141333 9.728 19.592533 14.9504-6.4512 5.290667-12.3904 14.199467-19.524267 15.1552-16.349867 2.3552-33.348267 0.477867-50.005333 1.399467-3.7888 0.273067-7.4752 5.085867-11.127467 7.850667 3.652267 2.1504 7.202133 6.0416 10.990933 6.212267 16.0768 0.7168 32.187733 0.273067 48.264533 0.4096 10.683733 0.136533 21.060267 2.6624 21.060267 15.530667 0 12.8-10.581333 15.6672-20.992 15.872C576.341333 597.367467 557.2608 597.0944 537.736533 597.0944z" p-id="5980" fill="#1296db"></path></svg>