<?xml version="1.0" standalone="no"?><!DOCTYPE svg PUBLIC "-//W3C//DTD SVG 1.1//EN" "http://www.w3.org/Graphics/SVG/1.1/DTD/svg11.dtd"><svg t="1548899491529" class="icon" style="" viewBox="0 0 1024 1024" version="1.1" xmlns="http://www.w3.org/2000/svg" p-id="14702" xmlns:xlink="http://www.w3.org/1999/xlink" width="200" height="200"><defs><style type="text/css"></style></defs><path d="M768.8 369.3H601l194-194c13.7-13.7 13.7-35.8 0-49.5-13.7-13.7-35.8-13.7-49.5 0L511.3 360 278.5 127.2c-13.7-13.7-35.8-13.7-49.5 0-13.7 13.7-13.7 35.8 0 49.5l192.6 192.6H253.8c-19.3 0-35 15.7-35 35s15.7 35 35 35h222.5v156.1h-203c-19.3 0-35 15.7-35 35s15.7 35 35 35h203v208c0 19.3 15.7 35 35 35s35-15.7 35-35v-208h203c19.3 0 35-15.7 35-35s-15.7-35-35-35h-203V439.3h222.5c19.3 0 35-15.7 35-35s-15.6-35-35-35z" fill="" p-id="14703"></path></svg>