<?xml version="1.0" standalone="no"?><!DOCTYPE svg PUBLIC "-//W3C//DTD SVG 1.1//EN" "http://www.w3.org/Graphics/SVG/1.1/DTD/svg11.dtd"><svg t="1554272881915" class="icon" style="" viewBox="0 0 1024 1024" version="1.1" xmlns="http://www.w3.org/2000/svg" p-id="22179" xmlns:xlink="http://www.w3.org/1999/xlink" width="200" height="200"><defs><style type="text/css"></style></defs><path d="M576 736a160 160 0 1 0 320 0 160 160 0 0 0-320 0z m-64 0a224 224 0 1 1 448 0 224 224 0 0 1-448 0z" p-id="22180" fill="#ffffff"></path><path d="M668.8 776a16 16 0 1 1 32 0c0 13.248 10.752 24 24 24h16a24 24 0 0 0 24-24c0-12.928-6.592-17.152-35.84-24.448-42.752-10.688-60.16-21.824-60.16-55.552 0-30.912 25.088-56 56-56h16c30.912 0 56 25.088 56 56a16 16 0 1 1-32 0 24 24 0 0 0-24-24h-16a24 24 0 0 0-24 24c0 12.928 6.592 17.152 35.84 24.448 42.752 10.688 60.16 21.824 60.16 55.552a56 56 0 0 1-56 56h-16a56 56 0 0 1-56-56z" p-id="22181" fill="#ffffff"></path><path d="M716.8 640a16 16 0 0 1 32 0v192a16 16 0 1 1-32 0v-192zM256 352a32 32 0 0 1 0-64h512a32 32 0 1 1 0 64H256zM256 544a32 32 0 0 1 0-64h196.096a32 32 0 0 1 0 64H256zM256 736a32 32 0 1 1 0-64h132.096a32 32 0 1 1 0 64H256z" p-id="22182" fill="#ffffff"></path><path d="M449.792 896a32 32 0 1 1 0 64H224A160 160 0 0 1 64 800v-576A160 160 0 0 1 224 64h576A160 160 0 0 1 960 224v224.448a32 32 0 1 1-64 0V224A96 96 0 0 0 800 128h-576A96 96 0 0 0 128 224v576A96 96 0 0 0 224 896h225.792z" p-id="22183" fill="#ffffff"></path></svg>