<?xml version="1.0" standalone="no"?><!DOCTYPE svg PUBLIC "-//W3C//DTD SVG 1.1//EN" "http://www.w3.org/Graphics/SVG/1.1/DTD/svg11.dtd"><svg t="1563332773868" class="icon" viewBox="0 0 1024 1024" version="1.1" xmlns="http://www.w3.org/2000/svg" p-id="2274" xmlns:xlink="http://www.w3.org/1999/xlink" width="200" height="200"><defs><style type="text/css"></style></defs><path d="M63.488 256l0-100.352 260.096 0 36.864-67.584 31.744-64.512 123.904 16.384q-6.144 15.36-17.92 36.352t-26.112 47.616l-20.48 31.744 507.904 0 0 100.352-563.2 0q-32.768 54.272-68.096 105.472t-68.096 102.4l231.424 0 0-163.84 108.544 0 0 163.84 304.128 0 0 96.256-304.128 0 0 144.384 388.096 0 0 95.232-388.096 0 0 184.32-108.544 0 0-184.32-455.68 0 0-95.232 455.68 0 0-144.384-355.328 0 0-96.256q35.84-51.2 69.12-102.4t62.976-105.472l-204.8 0z" p-id="2275" fill="#F56C6C"></path></svg>