<?xml version="1.0" standalone="no"?><!DOCTYPE svg PUBLIC "-//W3C//DTD SVG 1.1//EN" "http://www.w3.org/Graphics/SVG/1.1/DTD/svg11.dtd"><svg t="1554003617739" class="icon" style="" viewBox="0 0 1024 1024" version="1.1" xmlns="http://www.w3.org/2000/svg" p-id="3171" xmlns:xlink="http://www.w3.org/1999/xlink" width="200" height="200"><defs><style type="text/css"></style></defs><path d="M390.784 132v89.824l66.112 2.912c261.28 11.52 465.92 221.856 465.92 478.816a470.72 470.72 0 0 1-12.512 108.096c-78.912-164.448-250.528-280.928-449.024-284.768l-70.496-1.344V638.592l-257.92-252.704 257.92-253.888M438.976 0c-8.032 0-17.792 4.96-28.32 15.328L84.32 336.608a68.096 68.096 0 0 0 0 97.056L410.688 754.88c10.528 10.368 20.288 15.328 28.32 15.328 12.672 0 20.96-12.384 20.96-35.488v-138.656c230.368 4.448 427.424 189.888 427.424 417.888 0 3.392-0.448 6.688-0.512 10.048C952.768 933.728 992 823.296 992 703.584c0-295.104-236.128-534.848-532.064-547.904V35.52c0-23.136-8.288-35.52-20.96-35.52z" p-id="3172"></path></svg>