<?xml version="1.0" standalone="no"?><!DOCTYPE svg PUBLIC "-//W3C//DTD SVG 1.1//EN" "http://www.w3.org/Graphics/SVG/1.1/DTD/svg11.dtd"><svg t="1554194015352" class="icon" style="" viewBox="0 0 1024 1024" version="1.1" xmlns="http://www.w3.org/2000/svg" p-id="106265" xmlns:xlink="http://www.w3.org/1999/xlink" width="200" height="200"><defs><style type="text/css"></style></defs><path d="M512 1020C232 1020 4 792 4 512S232 4 512 4 1020 232 1020 512 792 1020 512 1020z m0-984C249.6 36 36 249.6 36 512s213.6 476 476 476 476-213.6 476-476S774.4 36 512 36z" p-id="106266" fill="#ffffff"></path><path d="M512 1012c-155.2 0-280.8-224-280.8-500S356.8 12 512 12c155.2 0 280.8 224 280.8 500S667.2 1012 512 1012z m0-984C365.6 28 247.2 244.8 247.2 512s118.4 484 264.8 484S776.8 779.2 776.8 512 658.4 28 512 28z" p-id="106267" fill="#ffffff"></path><path d="M512 1009.6c-4.8 0-8-3.2-8-8V20c0-4.8 3.2-8 8-8s8 3.2 8 8v981.6c0 4-3.2 8-8 8z" p-id="106268" fill="#ffffff"></path><path d="M925.6 788H98.4c-4.8 0-8-3.2-8-8s3.2-8 8-8h827.2c4.8 0 8 3.2 8 8s-3.2 8-8 8zM1002.4 520H21.6c-4.8 0-8-3.2-8-8s3.2-8 8-8h981.6c4.8 0 8 3.2 8 8-0.8 4.8-4 8-8.8 8zM925.6 252H98.4c-4.8 0-8-3.2-8-8s3.2-8 8-8h827.2c4.8 0 8 3.2 8 8 0 4-3.2 8-8 8z" p-id="106269" fill="#ffffff"></path></svg>