<?xml version="1.0" standalone="no"?><!DOCTYPE svg PUBLIC "-//W3C//DTD SVG 1.1//EN" "http://www.w3.org/Graphics/SVG/1.1/DTD/svg11.dtd"><svg t="1554194046825" class="icon" style="" viewBox="0 0 1024 1024" version="1.1" xmlns="http://www.w3.org/2000/svg" p-id="108462" xmlns:xlink="http://www.w3.org/1999/xlink" width="200" height="200"><defs><style type="text/css"></style></defs><path d="M269.82282 315.568189c0.042979 1.305739 0.086981 2.616594 0.149403 3.922332 0.037862 0.776689 0.085958 1.548262 0.12996 2.318812 0.069585 1.179872 0.13917 2.360767 0.225127 3.535523 0.056282 0.818645 0.125867 1.63729 0.191358 2.443655 0.092098 1.133823 0.192382 2.266623 0.302899 3.39533 0.076748 0.823761 0.159636 1.654686 0.245593 2.478448 0.121773 1.115404 0.248663 2.218528 0.381694 3.326768 0.098237 0.826831 0.196475 1.651616 0.305968 2.475378 0.146333 1.121544 0.308015 2.241041 0.468674 3.358491 0.116657 0.793062 0.225127 1.588171 0.347925 2.378164 0.189312 1.225921 0.397043 2.449795 0.60682 3.666506 0.115634 0.670266 0.218988 1.345648 0.337691 2.015913 0.326435 1.810229 0.675382 3.612271 1.038656 5.403057 0.171915 0.844228 0.358157 1.679245 0.537236 2.51631 0.214894 1.007957 0.429789 2.016937 0.654916 3.012613 0.214894 0.938372 0.440022 1.864464 0.665149 2.801812 0.216941 0.890276 0.430812 1.780553 0.651846 2.669806 0.246617 0.972141 0.50142 1.944282 0.759293 2.911306 0.223081 0.831948 0.442068 1.661849 0.674359 2.486635 0.278339 1.00284 0.563842 2.003634 0.850367 2.995217 0.229221 0.777713 0.460488 1.548262 0.691755 2.324951 0.312108 1.037632 0.629333 2.064009 0.948605 3.090385 0.225127 0.700965 0.454348 1.400906 0.685615 2.101871a239.760642 239.760642 0 0 0 1.078565 3.243881c0.184195 0.539282 0.38067 1.072425 0.567935 1.613754a242.779396 242.779396 0 0 0 5.072529 13.221116c0.013303 0.037862 0.022513 0.071631 0.037862 0.10233a228.986251 228.986251 0 0 0 1.720178 3.980661c0.148379 0.342808 0.292666 0.682545 0.445138 1.019213 0.559748 1.26583 1.137916 2.517333 1.719154 3.767814 0.179079 0.378623 0.357134 0.765433 0.533143 1.144056a260.912381 260.912381 0 0 0 1.801019 3.725858l0.523933 1.049912a276.732695 276.732695 0 0 0 1.946328 3.814886c0.12996 0.248663 0.261966 0.499373 0.388856 0.747013a257.196757 257.196757 0 0 0 2.196015 4.082992h0.004094c41.325198 74.981738 121.121592 125.797078 212.78936 125.797078 16.763802 0 30.355355-13.597693 30.355356-30.363542 0-16.761756-13.591553-30.347169-30.355356-30.347169h-9.100262v-0.225127c-53.021587-2.609431-100.072183-27.90556-131.672901-66.369593h0.002046a183.042873 183.042873 0 0 1-13.357216-18.501376l-0.076747-0.119727c-0.636496-1.01512-1.263783-2.036379-1.884931-3.059686-0.063445-0.102331-0.124843-0.207731-0.184195-0.310062a145.974629 145.974629 0 0 1-1.768273-3.01466c-0.071631-0.116657-0.1361-0.236384-0.204661-0.354064a212.053604 212.053604 0 0 1-1.707898-3.056615c-0.051165-0.093121-0.098237-0.187265-0.151449-0.283456a180.918489 180.918489 0 0 1-8.049327-16.810874c-0.061398-0.143263-0.125867-0.286526-0.181125-0.433882-0.38374-0.925069-0.75213-1.851161-1.119497-2.783393-0.1361-0.341784-0.275269-0.680499-0.402159-1.01819-0.329505-0.854461-0.650823-1.708921-0.967025-2.563382a70.380954 70.380954 0 0 1-0.47686-1.293459 163.17743 163.17743 0 0 1-1.355881-3.891633c-0.268106-0.781806-0.525979-1.576915-0.782829-2.366907-0.163729-0.515746-0.327458-1.037632-0.488117-1.565659-0.239454-0.771573-0.479931-1.542122-0.709152-2.319835-0.161682-0.551562-0.319272-1.104147-0.47686-1.660826-0.220011-0.760317-0.435928-1.51961-0.64366-2.27788-0.157589-0.581238-0.306992-1.174756-0.460488-1.755993-0.192382-0.747014-0.390903-1.483794-0.576121-2.230808-0.164752-0.663102-0.315178-1.334391-0.473791-1.998517a180.99933 180.99933 0 0 1-0.788969-3.511986c-0.174985-0.812505-0.350994-1.619894-0.51677-2.437516-0.122797-0.624217-0.232291-1.24741-0.352017-1.87572-0.14224-0.754177-0.286526-1.506307-0.421602-2.2656-0.112564-0.629333-0.213871-1.269923-0.317225-1.898233-0.127913-0.759293-0.252757-1.524726-0.36839-2.289136-0.094144-0.630357-0.183172-1.26583-0.276293-1.893116-0.10847-0.777713-0.214894-1.548262-0.317225-2.318812-0.076748-0.635473-0.153496-1.264806-0.227174-1.899257-0.092098-0.782829-0.179079-1.577938-0.26299-2.365883a200.056362 200.056362 0 0 1-0.185218-1.875721c-0.076748-0.812505-0.144286-1.62501-0.214894-2.438538-0.046049-0.610914-0.095167-1.221828-0.138147-1.826602-0.059352-0.853437-0.109494-1.714038-0.157589-2.575662-0.028653-0.566912-0.071631-1.137916-0.094144-1.719154a181.943842 181.943842 0 0 1-0.1054-2.876514c-0.016373-0.480954-0.036839-0.955768-0.048096-1.436722a189.712783 189.712783 0 0 1-0.054235-4.342911c0-1.548262 0.020466-3.090385 0.059352-4.631484 0.01228-0.511653 0.038886-1.00898 0.056282-1.518586 0.032746-1.027399 0.065492-2.058892 0.118703-3.085269 0.028653-0.604774 0.076748-1.210571 0.112564-1.811252 0.053212-0.917906 0.102331-1.843998 0.173962-2.756786 0.049119-0.647753 0.113587-1.293459 0.166799-1.939166 0.077771-0.871857 0.146333-1.738597 0.23229-2.605337 0.067538-0.665149 0.148379-1.328251 0.222058-1.992377 0.092098-0.842181 0.180102-1.685385 0.284479-2.515287 0.082888-0.676405 0.185218-1.351787 0.279362-2.03024 0.109494-0.818645 0.218988-1.63729 0.340761-2.443655 0.100284-0.687662 0.214894-1.363044 0.325412-2.039449 0.130983-0.806365 0.261966-1.601474 0.399089-2.402723 0.12075-0.681522 0.251733-1.358951 0.378623-2.041496 0.148379-0.789992 0.296759-1.576915 0.456395-2.366907 0.135076-0.675382 0.281409-1.350764 0.427742-2.036379 0.165776-0.774643 0.331551-1.553379 0.506537-2.322906 0.157589-0.682545 0.321318-1.359974 0.480953-2.036379 0.184195-0.76441 0.36839-1.527796 0.560772-2.295276 0.171915-0.675382 0.352017-1.345648 0.532119-2.022053a143.118582 143.118582 0 0 1 1.193176-4.278443c0.217964-0.740874 0.433882-1.487887 0.663102-2.224668 0.203638-0.669242 0.415462-1.340531 0.63138-1.998517a137.290853 137.290853 0 0 1 1.387603-4.182252c0.252757-0.722454 0.505513-1.452071 0.765433-2.169409 0.23536-0.659009 0.480954-1.318018 0.723478-1.970888 0.270153-0.710175 0.537236-1.428535 0.816598-2.140757a180.420139 180.420139 0 0 1 1.632173-4.057409c0.268106-0.647753 0.542352-1.286296 0.817622-1.934048a196.085934 196.085934 0 0 1 1.769296-3.985778c0.317225-0.689708 0.635473-1.37123 0.961908-2.058892 0.296759-0.629333 0.595564-1.257643 0.904603-1.88186 0.328481-0.681522 0.668219-1.350764 1.003863-2.022053 0.317225-0.62831 0.630357-1.245364 0.948605-1.862417 0.346901-0.671289 0.698918-1.335415 1.054005-1.999541 0.328481-0.610914 0.655939-1.227967 0.988514-1.839904 0.36225-0.657986 0.729617-1.309832 1.094938-1.956562 0.343831-0.611937 0.684592-1.216711 1.034562-1.821485 0.378623-0.64059 0.759293-1.288343 1.13894-1.927909 0.360204-0.599657 0.718361-1.199315 1.084705-1.797949 0.384763-0.627287 0.780783-1.25662 1.179872-1.88493 0.373507-0.593518 0.74292-1.187035 1.122567-1.780552 0.400113-0.617054 0.810459-1.233084 1.218757-1.846045 0.388856-0.584308 0.773619-1.173732 1.172709-1.753947 0.414439-0.611937 0.836041-1.210571 1.257644-1.815345 0.402159-0.576121 0.801249-1.158383 1.209548-1.726317 0.431835-0.599657 0.865717-1.193175 1.303692-1.786693 0.413416-0.562818 0.825808-1.131777 1.245363-1.690502 0.440022-0.593518 0.8913-1.174756 1.340531-1.757017 0.429789-0.556679 0.852414-1.11438 1.289366-1.664919 0.451278-0.576121 0.913812-1.134847 1.370207-1.702781 0.444115-0.546446 0.887206-1.103124 1.337461-1.650593 0.462534-0.556679 0.932232-1.103124 1.394767-1.647523 0.462534-0.547469 0.921999-1.098008 1.390673-1.63729 0.463558-0.535189 0.937348-1.057075 1.402953-1.585101 0.485047-0.545422 0.967024-1.096984 1.459234-1.642407 0.453325-0.499373 0.918929-0.985444 1.379417-1.476631 0.517793-0.558725 1.033539-1.121544 1.558496-1.667989 0.378623-0.396019 0.76441-0.783853 1.143033-1.174755a186.231495 186.231495 0 0 1 3.86912-3.867074c0.337691-0.327458 0.670266-0.659009 1.011027-0.985444 0.610914-0.580215 1.236154-1.150196 1.852184-1.731434 0.431835-0.399089 0.859577-0.807389 1.292436-1.197269 0.600681-0.547469 1.219781-1.086751 1.825578-1.626033 0.464581-0.415462 0.923022-0.831948 1.388627-1.234107 0.61296-0.530073 1.227967-1.045819 1.845021-1.565659 0.480954-0.404206 0.952698-0.820692 1.435698-1.210571 0.617054-0.51677 1.242294-1.01512 1.868557-1.520633 0.48914-0.396019 0.985444-0.793062 1.480724-1.186012 0.627287-0.496304 1.263783-0.982374 1.89721-1.470491 0.50142-0.384763 1.000793-0.776689 1.50733-1.156336 0.642636-0.480954 1.291412-0.953721 1.944282-1.430582 0.508583-0.372483 1.01512-0.747014 1.529843-1.115404 0.654916-0.466628 1.314948-0.923022 1.972934-1.387603 0.520863-0.36225 1.040702-0.723477 1.558495-1.080611 0.665149-0.450255 1.338485-0.895393 2.004657-1.340532 0.532119-0.341784 1.057075-0.697895 1.592265-1.043772 0.677429-0.438998 1.355881-0.865717 2.041495-1.291412 0.533143-0.333598 1.068332-0.678452 1.606591-1.00284 0.688685-0.422625 1.385557-0.836041 2.081405-1.251504 0.542352-0.320295 1.084705-0.647753 1.630127-0.961908 0.699941-0.409322 1.406023-0.806365 2.108011-1.211594 0.552585-0.306992 1.100054-0.615007 1.657756-0.924046 0.710175-0.38988 1.428535-0.77055 2.145873-1.156336 0.554632-0.290619 1.109264-0.588401 1.665942-0.87902 0.728594-0.373507 1.453095-0.747014 2.187829-1.115404 0.562818-0.278339 1.12052-0.560772 1.687432-0.835017 0.734734-0.36225 1.478677-0.713244 2.220574-1.068332 0.567935-0.25992 1.1328-0.533143 1.699712-0.796132 0.747014-0.342808 1.50426-0.681522 2.260483-1.01819 0.565888-0.249687 1.13587-0.499373 1.706875-0.740874 0.76441-0.333598 1.534959-0.659009 2.302439-0.980327 0.569982-0.237407 1.139963-0.467651 1.709945-0.699941 0.781806-0.306992 1.565658-0.623193 2.353604-0.926093 0.569982-0.225127 1.139963-0.438998 1.708921-0.652869 0.795109-0.295735 1.596358-0.593518 2.396583-0.877997 0.573051-0.205685 1.14201-0.402159 1.717108-0.60375 0.808412-0.286526 1.619894-0.557702 2.432399-0.830925 0.572028-0.190335 1.146103-0.378623 1.719154-0.558725 0.826831-0.26606 1.647523-0.527003 2.479471-0.780783 0.567935-0.173962 1.14201-0.344854 1.713015-0.511653 0.840134-0.249687 1.681292-0.491187 2.524496-0.723477 0.567935-0.165776 1.13894-0.314155 1.708922-0.462535 0.856507-0.231267 1.711991-0.463558 2.570545-0.678452 0.564865-0.140193 1.128707-0.276293 1.694595-0.413415 0.87902-0.213871 1.7519-0.426719 2.63399-0.624217 0.547469-0.122797 1.105171-0.242524 1.660826-0.359181 0.895393-0.191358 1.793856-0.393973 2.699482-0.571005 0.542352-0.107447 1.087774-0.207731 1.630126-0.306991 0.918929-0.180102 1.841951-0.357134 2.769067-0.51677 0.524956-0.096191 1.054005-0.179079 1.582031-0.267083 0.949628-0.154519 1.898233-0.314155 2.854001-0.457418 0.494257-0.076748 0.997724-0.1361 1.498121-0.207731 0.988514-0.14224 1.977028-0.285502 2.975774-0.404206 0.450255-0.058328 0.906649-0.105401 1.356904-0.153496 1.045819-0.12382 2.095731-0.248663 3.14462-0.355087 0.384763-0.036839 0.777713-0.065492 1.163499-0.096191 1.124614-0.105401 2.246157-0.213871 3.370771-0.296759 0.26913-0.017396 0.529049-0.028653 0.791015-0.046048 1.25662-0.090051 2.509147-0.172939 3.771907-0.238431 3.012613-0.143263 6.049786-0.225127 9.100262-0.225127 100.577696 0 182.117804 81.539085 182.117804 182.117804 0 30.883381-7.701402 59.96165-21.266349 85.448114l-0.042979-0.013303c-5.196349 9.271154-15.103999 15.544021-26.491351 15.544021-16.759709 0-30.351262-13.585413-30.351262-30.351262 0-4.792143 1.128707-9.312086 3.096525-13.340842 9.155521-17.066701 14.34573-36.570917 14.345729-57.286728v-91.057879c0-16.764825-13.585413-30.349215-30.350238-30.349215-12.30321 0-22.892383 7.325849-27.65485 17.854647-18.455327-11.323906-40.162722-17.854647-63.404052-17.854647-67.051115 0-121.403001 54.350862-121.403001 121.407094 0 67.052139 54.351885 121.408117 121.404024 121.408117 18.104333 0 35.272341-3.968381 50.706869-11.069103 13.966083 32.342616 46.142923 54.984289 83.610256 54.984289 35.181267 0 64.49285-19.961634 78.945003-49.164747h0.023536c18.828834-34.507932 29.535687-74.081229 29.535687-116.158556 0-134.103254-108.711957-242.815211-242.815211-242.815211-62.407352 0-119.312386 23.550369-162.319899 62.239529-0.027629 0.023536-0.054235 0.042979-0.077771 0.065492a287.221584 287.221584 0 0 0-3.919263 3.607154c-0.10847 0.102331-0.218988 0.207731-0.328481 0.306992a224.036519 224.036519 0 0 0-3.623528 3.501754c-0.177032 0.170892-0.350994 0.337691-0.524956 0.51063a219.357963 219.357963 0 0 0-3.374864 3.415796l-0.683568 0.692778c-1.065262 1.106194-2.108011 2.220574-3.151783 3.347235-0.270153 0.285502-0.540306 0.569982-0.808412 0.86674a231.850485 231.850485 0 0 0-2.957355 3.279696c-0.296759 0.337691-0.600681 0.675382-0.900509 1.014097-0.936325 1.074472-1.862417 2.153036-2.778277 3.239787a179.310875 179.310875 0 0 0-3.595898 4.348028c-0.345877 0.432859-0.692778 0.861624-1.037632 1.288343a173.808558 173.808558 0 0 0-2.466168 3.168156c-0.363274 0.461511-0.725524 0.935302-1.084705 1.406022a265.296225 265.296225 0 0 0-2.323928 3.125178c-0.37453 0.509606-0.747014 1.020236-1.119497 1.530866a359.149776 359.149776 0 0 0-2.197039 3.101641c-0.378623 0.545422-0.760317 1.091868-1.139963 1.64343-0.697895 1.020236-1.390673 2.046612-2.072195 3.079128-0.382717 0.575098-0.76748 1.156336-1.146103 1.738597-0.664126 1.020236-1.312902 2.040473-1.959631 3.064802-0.384763 0.61296-0.772596 1.227967-1.152243 1.845021-0.624217 1.00898-1.238201 2.0241-1.846044 3.044336-0.382717 0.647753-0.766456 1.287319-1.146103 1.939165-0.587378 1.00284-1.168616 2.01796-1.742691 3.025917-0.38067 0.675382-0.762363 1.353834-1.135869 2.034333-0.554632 1.001817-1.103124 2.00568-1.644454 3.01466-0.375553 0.705058-0.747014 1.412163-1.11745 2.116197-0.522909 0.997724-1.039679 2.00568-1.542122 3.00852-0.37146 0.728594-0.735757 1.465374-1.094938 2.200108a217.810724 217.810724 0 0 0-2.515287 5.28026c-0.462534 0.995677-0.916882 1.9934-1.364067 2.990101-0.347924 0.782829-0.688685 1.571798-1.031492 2.361791-0.431835 0.989537-0.854461 1.980097-1.272993 2.976798-0.334621 0.813528-0.665149 1.62501-0.993631 2.443655a174.300768 174.300768 0 0 0-2.139733 5.482874c-0.373507 0.983397-0.741897 1.967818-1.099031 2.965542-0.313132 0.854461-0.608867 1.713015-0.907672 2.574638-0.343831 0.983397-0.688685 1.969864-1.020237 2.964518-0.294712 0.87902-0.576121 1.757017-0.859577 2.647293-0.315178 0.983397-0.633427 1.963725-0.934278 2.953262-0.280386 0.903579-0.542352 1.810229-0.808412 2.716878-0.287549 0.978281-0.581238 1.958608-0.856508 2.943029-0.258896 0.926092-0.502443 1.856277-0.751106 2.787486-0.264013 0.972141-0.527003 1.951445-0.77976 2.936888-0.237407 0.943488-0.466628 1.899256-0.691755 2.851955-0.237407 0.974188-0.477884 1.947352-0.700964 2.925632-0.216941 0.967024-0.424672 1.947352-0.633427 2.924609-0.207731 0.967024-0.421602 1.934049-0.620123 2.908237-0.201591 0.995677-0.382717 1.991354-0.571005 2.988054-0.181125 0.961908-0.37453 1.927909-0.542353 2.894933-0.180102 1.01512-0.339738 2.040473-0.509606 3.061732-0.153496 0.960885-0.319272 1.910513-0.462535 2.870374-0.159636 1.049912-0.296759 2.099824-0.440021 3.151783-0.132006 0.942465-0.26913 1.883907-0.388857 2.828418-0.132006 1.085728-0.249687 2.171456-0.372483 3.256161-0.104377 0.931209-0.214894 1.852184-0.310062 2.782369-0.112564 1.121544-0.202615 2.25025-0.300852 3.376911-0.073678 0.89437-0.165776 1.795902-0.231267 2.691295-0.088004 1.199315-0.157589 2.403746-0.228197 3.602038-0.051165 0.842181-0.112564 1.672082-0.156566 2.51631-0.065492 1.340531-0.107447 2.691295-0.153496 4.036943-0.025583 0.707105-0.060375 1.414209-0.076748 2.118244-0.053212 2.041496-0.075725 4.094248-0.075725 6.147V307.689754c0 1.974981 0.022513 3.944845 0.075725 5.909594 0.008186 0.659009 0.038886 1.311879 0.057305 1.968841z m242.675018 52.821019c-33.523511 0-60.7015-27.181059-60.7015-60.70457 0-33.523511 27.176966-60.703547 60.7015-60.703547 33.527604 0 60.709687 27.181059 60.709687 60.702524 0 33.524534-27.182083 60.705594-60.709687 60.705593z m361.418447-1.804089a30.224372 30.224372 0 0 0-18.235317-6.085602 30.242791 30.242791 0 0 0-20.466124 7.94188l-0.00614 0.008186a31.426757 31.426757 0 0 0-1.934048 1.927909L571.921229 631.741151c-16.73515 16.730033-38.708604 25.009603-60.633962 24.867364-21.927405 0.143263-43.899836-8.137331-60.631915-24.86634L189.294762 370.376469a29.389354 29.389354 0 0 0-1.930979-1.927909l-0.00307-0.008187a30.259164 30.259164 0 0 0-20.469193-7.940856 30.223349 30.223349 0 0 0-18.235317 6.084579c-37.165458 20.757766-62.298881 60.47228-62.298881 106.061594v364.230492c0 67.057255 54.354955 121.408117 121.40607 121.408117H814.813189c67.045999 0 121.407094-54.350862 121.407094-121.408117V472.646714c0-45.588291-25.13854-85.309968-62.303998-106.061595z" fill="#ffffff" p-id="108463"></path></svg>