<?xml version="1.0" standalone="no"?><!DOCTYPE svg PUBLIC "-//W3C//DTD SVG 1.1//EN" "http://www.w3.org/Graphics/SVG/1.1/DTD/svg11.dtd"><svg t="1554193592976" class="icon" style="" viewBox="0 0 1024 1024" version="1.1" xmlns="http://www.w3.org/2000/svg" p-id="93164" xmlns:xlink="http://www.w3.org/1999/xlink" width="200" height="200"><defs><style type="text/css"></style></defs><path d="M738.510851 978.396955c-132.181476 0-239.72199-107.533676-239.72199-239.713442 0-132.181476 107.540514-239.72199 239.72199-239.72199 132.172928 0 239.713442 107.540514 239.713443 239.72199 0 132.179766-107.540514 239.713442-239.713443 239.713442m0-524.688027c-157.364354 0-284.974584 127.618778-284.974584 284.974585 0 157.355806 127.61023 284.966037 284.974584 284.966036 157.355806 0 284.966037-127.61023 284.966037-284.966036 0-157.355806-127.61023-284.974584-284.966037-284.974585" fill="#ffffff" p-id="93165"></path><path d="M920.57771 855.036581l-162.846772-112.691286-21.712561-172.66623s-3.35578-18.093516-23.772527-16.019873c-20.423586 2.058257-20.167159 21.192868-20.167159 21.192868l21.712561 174.724488c1.282137 10.27419 0.897496 18.999559 17.060968 28.947232l160.258565 110.633028s16.539566 12.399119 32.046584-4.653302c0 0 9.828007-13.959907-2.579659-29.466925" fill="#ffffff" p-id="93166"></path><path d="M309.648027 500.891566c0 17.129349-13.703479 30.831119-34.263827 30.831118-17.127639 0-34.262117-13.703479-34.262117-30.831118v-71.950104H117.785643c-17.134477 0-30.839666-17.129349-30.839666-34.263826 0-17.127639 13.705189-34.255279 30.839666-34.255279h123.334731V309.029182H117.785643c-17.134477 0-30.839666-13.703479-30.839666-34.262117 0-17.136187 13.705189-34.263826 30.839666-34.263826h109.63809L128.059833 144.570337c-13.710317-13.703479-13.710317-34.262117 0-47.958758 13.703479-13.710317 34.263826-13.710317 47.967306 0l102.781222 99.350224 95.934611-95.926063c13.703479-13.710317 34.263826-13.710317 47.958758 0 13.718865 13.703479 13.718865 34.255279 0 47.958757l-99.357062 95.934612h109.644928c17.129349 0 30.831119 17.134477 30.831119 34.262116 0 17.129349-13.703479 34.263826-30.831119 34.263827l-123.341569-3.424161v51.391466h123.341569c17.129349 0 30.831119 13.703479 30.831119 34.255279 0 17.136187-13.703479 34.263826-30.831119 34.263826h-123.341569v71.950104z m428.859405-91.619793c41.096761 0 80.427593 7.480841 116.758224 21.124487V78.171032C855.265656 35.174998 819.62225 0 776.058658 0H79.203579C35.639987 0-0.003419 35.174998-0.003419 78.171032v804.766557c0 42.997743 35.643406 78.172741 79.206998 78.172742h410.09576c-51.641055-58.556047-83.008962-135.431265-83.008962-219.630051 0-183.443018 148.774037-332.210217 332.217055-332.210217z" fill="#ffffff" p-id="93167"></path></svg>