<?xml version="1.0" standalone="no"?><!DOCTYPE svg PUBLIC "-//W3C//DTD SVG 1.1//EN" "http://www.w3.org/Graphics/SVG/1.1/DTD/svg11.dtd"><svg t="1554193734862" class="icon" style="" viewBox="0 0 1305 1024" version="1.1" xmlns="http://www.w3.org/2000/svg" p-id="99271" xmlns:xlink="http://www.w3.org/1999/xlink" width="254.8828125" height="200"><defs><style type="text/css"></style></defs><path d="M542.479373 1024c-64.835509 0-127.799478-12.699739-187.020365-37.831854-57.215666-24.196345-108.549347-58.819843-152.66423-102.934726s-78.738381-95.448564-102.934726-152.664229c-25.132115-59.354569-37.965535-122.318538-37.965535-187.154047s12.699739-127.799478 37.831854-187.020366c24.196345-57.215666 58.819843-108.549347 102.934726-152.66423s95.448564-78.738381 152.664229-102.934726c59.354569-25.132115 122.318538-37.831854 187.154047-37.831853v80.208877c-220.708094 0-400.242298 179.534204-400.242297 400.242298 0 220.708094 179.534204 400.242298 400.242297 400.242297 220.708094 0 400.242298-179.534204 400.242298-400.242297h80.208877c0 64.835509-12.699739 127.799478-37.831853 187.020365-24.196345 57.215666-58.819843 108.549347-102.934726 152.66423s-95.448564 78.738381-152.66423 102.934726c-59.220888 25.265796-122.184856 37.965535-187.020366 37.965535z" p-id="99272" fill="#ffffff"></path><path d="M542.479373 114.966057m-114.966057 0a114.966057 114.966057 0 1 0 229.932115 0 114.966057 114.966057 0 1 0-229.932115 0Z" p-id="99273" fill="#ffffff"></path><path d="M342.625587 411.872585h45.719061v-74.9953H446.496084V411.872585h40.772846v55.076762H446.496084v68.845953c13.368146-2.673629 27.538381-5.48094 42.644386-8.421932-3.609399 24.864752-5.48094 44.649608-5.748303 59.488251-12.432376 2.138903-24.73107 4.277807-36.896083 6.684073v117.639687c0 33.153003-13.769191 51.066319-41.307572 53.739947-17.512272 1.470496-35.158225 2.272585-53.205222 2.272585-2.940992-17.111227-6.951436-36.628721-12.031332-58.55248 0.93577 0 12.165013 0.267363 33.687729 0.93577 9.758747-0.267363 14.704961-6.684073 14.704961-19.116449v-85.288773c-15.106005 3.208355-29.944648 6.684073-44.382246 10.159791l-4.946214-62.963968c14.838642-1.470496 31.281462-3.609399 49.32846-6.149348v-79.005744h-45.719061V411.872585z m156.27363-54.943081h265.491384V664.530548h-57.750392v-20.052219H661.723238v125.660574h-60.424021v-125.660574h-44.78329v20.052219h-57.750392V356.929504z m57.61671 116.302872h44.78329v-60.424021h-44.78329v60.424021z m0 115.367102h44.78329V528.175457h-44.78329v60.424021z m150.124282-175.791123H661.723238v60.424021h44.783289v-60.424021z m0 175.791123V528.175457H661.723238v60.424021h44.916971z" p-id="99274" fill="#ffffff"></path></svg>