<?xml version="1.0" standalone="no"?><!DOCTYPE svg PUBLIC "-//W3C//DTD SVG 1.1//EN" "http://www.w3.org/Graphics/SVG/1.1/DTD/svg11.dtd"><svg t="1552810847683" class="icon" style="" viewBox="0 0 1024 1024" version="1.1" xmlns="http://www.w3.org/2000/svg" p-id="2720" xmlns:xlink="http://www.w3.org/1999/xlink" width="200" height="200"><defs><style type="text/css"></style></defs><path d="M193.019697 557.245311l423.858555-423.84995c58.514286-58.514286 153.376269-58.514286 211.890555 0 58.514286 58.514286 58.514286 153.376269 0 211.890555l-407.878992 407.878992c-30.599529 30.608134-80.061311 30.68558-110.462924 0.283966-30.410218-30.401613-30.324168-79.863395 0.283966-110.471529l333.780975-330.433614-59.331765-59.32316-333.780975 330.425009c-63.333109 63.333109-63.50521 165.913815-0.283966 229.135059 63.212639 63.212639 165.80195 63.040538 229.135059-0.292572l415.021176-415.021176-0.15489-0.154891c84.217546-91.703933 81.88558-234.366924-6.9959-323.248403-91.282286-91.282286-239.271798-91.282286-330.554084 0L132.431597 499.178487c-118.190252 119.549849-117.863261 312.216739 1.09284 431.172841 119.369143 119.369143 312.973983 119.283092 432.429176-0.172101l413.532505-414.040202-59.32316-59.331764-413.541109 414.048806c-86.695798 86.695798-227.173109 86.756034-313.765647 0.172101-86.592538-86.601143-86.532303-227.087059 0.172101-313.782857z" p-id="2721"></path></svg>