<?xml version="1.0" standalone="no"?><!DOCTYPE svg PUBLIC "-//W3C//DTD SVG 1.1//EN" "http://www.w3.org/Graphics/SVG/1.1/DTD/svg11.dtd"><svg t="1550386244796" class="icon" style="" viewBox="0 0 1024 1024" version="1.1" xmlns="http://www.w3.org/2000/svg" p-id="4798" xmlns:xlink="http://www.w3.org/1999/xlink" width="200" height="200"><defs><style type="text/css"></style></defs><path d="M0 0L960 0C995.344 0 1024 28.656 1024 64L1024 1024 0 0ZM480.152 348.456C489.928 332.984 497.872 318.928 503.976 305.496L489.928 298.368C482.6 312.208 474.456 326.056 465.288 339.704L480.152 348.456ZM447.776 325.04C462.032 309.16 472.624 295.72 479.136 285.128L466.512 274.952C459.592 285.128 449 298.16 433.936 314.048L447.776 325.04ZM401.968 279.224L410.312 295.312C426.192 288.392 442.08 277.8 458.168 264.16L447.376 250.512C432.304 263.136 417.24 272.912 401.968 279.224ZM582.784 107.368L510.496 179.656 548.168 217.328 531.464 234.024 494.816 197.368 483.008 209.176 519.656 245.832 502.144 263.344C489.32 251.328 475.472 238.296 461.016 224.248L450.224 238.296C492.376 277.6 524.752 306.304 547.144 324.632L558.752 313.024C545.928 302.64 531.672 290.016 515.792 275.76L532.688 258.864 569.752 295.92 581.56 284.112 544.496 247.056 561.2 230.36 599.888 269.048 672.168 196.76 582.784 107.368ZM715.544 226.28C702.92 238.912 684.592 256.824 660.36 280.24L634.096 253.976 620.04 268.024 645.696 293.68C603.144 330.536 557.528 355.376 508.864 367.8 515.584 355.784 522.104 341.944 528.416 326.264L515.176 318.728C508.864 333.592 501.736 348.048 493.392 362.096L506.832 368.208C506.424 368.208 505.808 368.408 505.2 368.616L504.184 388.368C543.688 380.632 584 362.712 624.728 335.016 596.424 376.352 579.928 417.688 575.04 458.816L596.016 457.8C599.68 411.376 621.472 361.896 661.376 309.36L696.4 344.384 710.448 330.336 674.616 294.496C695.992 273.52 714.52 255.4 729.592 240.336L715.544 226.28ZM723.888 260.288C721.04 280.24 717.168 297.552 712.688 311.808L730.2 314.656C734.072 301.416 737.536 284.52 739.976 264.16L723.888 260.288ZM726.768 360.904L712.72 374.952 742.648 404.888 663.24 484.296C659.976 487.552 655.296 488.984 649.8 488.368L642.464 507.104C666.088 511.992 690.32 514.64 714.96 515.248L726.36 496.512C710.072 496.104 695.208 495.088 681.768 493.864L770.752 404.888 726.768 360.904ZM810.864 324.456L790.704 324.248C794.368 349.904 795.592 372.304 794.168 390.832L814.32 390.632C815.544 370.68 814.32 348.688 810.864 324.456ZM906.56 418.12C867.064 457.624 831.632 486.944 800.48 506.696 762.4 529.296 721.472 538.464 677.896 534.792L675.864 556.784C725.344 561.472 771.56 549.864 814.32 522.576 820.632 518.304 826.944 514.024 833.664 509.344 804.752 561.064 787.04 611.768 781.136 661.248L803.936 659.616C807.808 602.4 830.616 542.128 871.952 479.208 887.832 465.768 904.528 450.296 921.632 433.192L906.56 418.12ZM571.584 217.936L621.064 168.456 648.96 196.352 599.48 245.832 571.584 217.936ZM623.304 191.872C612.304 200.424 600.696 207.552 588.688 213.048L593.776 223.432C606.4 217.328 618.208 209.992 629.208 201.44L623.304 191.872ZM533.704 180.064L583.184 130.584 610.472 157.864 560.992 207.344 533.704 180.064ZM585.224 155.424L575.04 150.128C569.544 162.144 563.232 174.16 556.104 185.76L565.68 191.264C573.616 178.432 580.136 166.624 585.224 155.424Z" fill="#ad80b9" p-id="4799"></path></svg>